SplineFontDB: 3.2
FontName: Minecraft-Bold
FullName: Minecraft-Bold
FamilyName: Minecraft
Weight: Bold
Copyright: Idrees Hassan
Version: 001.000
ItalicAngle: 0
UnderlinePosition: -4
UnderlineWidth: 0
Ascent: 16
Descent: 2
InvalidEm: 0
sfntRevision: 0x00010000
LayerCount: 2
Layer: 0 1 "Back" 1
Layer: 1 1 "Fore" 0
XUID: [1021 384 -154929595 9525256]
StyleMap: 0x0020
FSType: 0
OS2Version: 4
OS2_WeightWidthSlopeOnly: 0
OS2_UseTypoMetrics: 0
CreationTime: 1280473793
ModificationTime: 1661454111
PfmFamily: 17
TTFWeight: 700
TTFWidth: 5
LineGap: 2
VLineGap: 0
Panose: 2 0 8 3 0 0 0 0 0 0
OS2TypoAscent: 16
OS2TypoAOffset: 0
OS2TypoDescent: -2
OS2TypoDOffset: 0
OS2TypoLinegap: 2
OS2WinAscent: 16
OS2WinAOffset: 0
OS2WinDescent: 4
OS2WinDOffset: 0
HheadAscent: 16
HheadAOffset: 0
HheadDescent: -2
HheadDOffset: 0
OS2SubXSize: 10
OS2SubYSize: 12
OS2SubXOff: 0
OS2SubYOff: 2
OS2SupXSize: 10
OS2SupYSize: 12
OS2SupXOff: 0
OS2SupYOff: 8
OS2StrikeYSize: 0
OS2StrikeYPos: 4
OS2Vendor: '2ttf'
OS2CodePages: 40000001.00000000
OS2UnicodeRanges: 00000003.00014002.00000000.00000000
MarkAttachClasses: 1
DEI: 91125
ShortTable: cvt  2
  34
  648
EndShort
ShortTable: maxp 16
  1
  0
  196
  60
  4
  0
  0
  2
  0
  1
  1
  0
  64
  46
  0
  0
EndShort
LangName: 1033 "" "" "" "IdreesHassan:Minecraft"
GaspTable: 1 65535 0 0
Encoding: UnicodeBmp
Compacted: 1
UnicodeInterp: none
NameList: AGL For New Fonts
DisplaySize: -48
AntiAlias: 1
FitToEm: 0
WinInfo: 0 30 12
BeginPrivate: 0
EndPrivate
BeginChars: 65539 194

StartChar: .notdef
Encoding: 65536 -1 0
Width: 10
VWidth: 16
GlyphClass: 1
Flags: W
LayerCount: 2
Fore
SplineSet
1.056640625 0 m 1,0,-1
 1.056640625 21.3125 l 1,1,-1
 9.568359375 21.3125 l 1,2,-1
 9.568359375 0 l 1,3,-1
 1.056640625 0 l 1,0,-1
2.12890625 1.056640625 m 1,4,-1
 8.49609375 1.056640625 l 1,5,-1
 8.49609375 20.255859375 l 1,6,-1
 2.12890625 20.255859375 l 1,7,-1
 2.12890625 1.056640625 l 1,4,-1
EndSplineSet
EndChar

StartChar: exclam
Encoding: 33 33 2
Width: 7
VWidth: 16
GlyphClass: 2
Flags: W
LayerCount: 2
Fore
SplineSet
3 2 m 1,0,-1
 5 2 l 1,1,-1
 5 0 l 1,2,-1
 3 0 l 1,3,-1
 1 0 l 1,4,-1
 1 2 l 1,5,-1
 3 2 l 1,0,-1
3 4 m 1,6,-1
 1 4 l 1,7,-1
 1 6 l 1,8,-1
 1 8 l 1,9,-1
 1 10 l 1,10,-1
 1 12 l 1,11,-1
 1 14 l 1,12,-1
 3 14 l 1,13,-1
 5 14 l 1,14,-1
 5 12 l 1,15,-1
 5 10 l 1,16,-1
 5 8 l 1,17,-1
 5 6 l 1,18,-1
 5 4 l 1,19,-1
 3 4 l 1,6,-1
EndSplineSet
EndChar

StartChar: quotedbl
Encoding: 34 34 3
Width: 11
VWidth: 16
GlyphClass: 2
Flags: W
LayerCount: 2
Fore
SplineSet
7 10 m 1,0,-1
 5 10 l 1,1,-1
 3 10 l 1,2,-1
 1 10 l 1,3,-1
 1 12 l 1,4,-1
 1 14 l 1,5,-1
 3 14 l 1,6,-1
 5 14 l 1,7,-1
 7 14 l 1,8,-1
 9 14 l 1,9,-1
 9 12 l 1,10,-1
 9 10 l 1,11,-1
 7 10 l 1,0,-1
EndSplineSet
EndChar

StartChar: numbersign
Encoding: 35 35 4
Width: 15
VWidth: 16
GlyphClass: 2
Flags: W
LayerCount: 2
Fore
SplineSet
9 0 m 1,0,-1
 7 0 l 1,1,-1
 5 0 l 1,2,-1
 3 0 l 1,3,-1
 3 2 l 1,4,-1
 3 4 l 1,5,-1
 1 4 l 1,6,-1
 1 6 l 1,7,-1
 3 6 l 1,8,-1
 3 8 l 1,9,-1
 1 8 l 1,10,-1
 1 10 l 1,11,-1
 3 10 l 1,12,-1
 3 12 l 1,13,-1
 3 14 l 1,14,-1
 5 14 l 1,15,-1
 7 14 l 1,16,-1
 9 14 l 1,17,-1
 11 14 l 1,18,-1
 11 12 l 1,19,-1
 11 10 l 1,20,-1
 13 10 l 1,21,-1
 13 8 l 1,22,-1
 11 8 l 1,23,-1
 11 6 l 1,24,-1
 13 6 l 1,25,-1
 13 4 l 1,26,-1
 11 4 l 1,27,-1
 11 2 l 1,28,-1
 11 0 l 1,29,-1
 9 0 l 1,0,-1
EndSplineSet
EndChar

StartChar: dollar
Encoding: 36 36 5
Width: 15
VWidth: 16
GlyphClass: 2
Flags: W
LayerCount: 2
Fore
SplineSet
7 0 m 1,0,-1
 5 0 l 1,1,-1
 5 2 l 1,2,-1
 3 2 l 1,3,-1
 1 2 l 1,4,-1
 1 4 l 1,5,-1
 3 4 l 1,6,-1
 5 4 l 1,7,-1
 7 4 l 1,8,-1
 9 4 l 1,9,-1
 9 6 l 1,10,-1
 7 6 l 1,11,-1
 5 6 l 1,12,-1
 3 6 l 1,13,-1
 3 8 l 1,14,-1
 1 8 l 1,15,-1
 1 10 l 1,16,-1
 3 10 l 1,17,-1
 3 12 l 1,18,-1
 5 12 l 1,19,-1
 5 14 l 1,20,-1
 7 14 l 1,21,-1
 9 14 l 1,22,-1
 9 12 l 1,23,-1
 11 12 l 1,24,-1
 13 12 l 1,25,-1
 13 10 l 1,26,-1
 11 10 l 1,27,-1
 9 10 l 1,28,-1
 7 10 l 1,29,-1
 5 10 l 1,30,-1
 5 8 l 1,31,-1
 7 8 l 1,32,-1
 9 8 l 1,33,-1
 11 8 l 1,34,-1
 11 6 l 1,35,-1
 13 6 l 1,36,-1
 13 4 l 1,37,-1
 11 4 l 1,38,-1
 11 2 l 1,39,-1
 9 2 l 1,40,-1
 9 0 l 1,41,-1
 7 0 l 1,0,-1
EndSplineSet
EndChar

StartChar: percent
Encoding: 37 37 6
Width: 15
VWidth: 16
GlyphClass: 2
Flags: W
LayerCount: 2
Fore
SplineSet
11 0 m 1,0,-1
 9 0 l 1,1,-1
 9 2 l 1,2,-1
 9 4 l 1,3,-1
 11 4 l 1,4,-1
 13 4 l 1,5,-1
 13 2 l 1,6,-1
 13 0 l 1,7,-1
 11 0 l 1,0,-1
3 0 m 1,8,-1
 1 0 l 1,9,-1
 1 2 l 1,10,-1
 3 2 l 1,11,-1
 3 4 l 1,12,-1
 3 6 l 1,13,-1
 5 6 l 1,14,-1
 5 8 l 1,15,-1
 7 8 l 1,16,-1
 7 10 l 1,17,-1
 7 12 l 1,18,-1
 9 12 l 1,19,-1
 9 14 l 1,20,-1
 11 14 l 1,21,-1
 13 14 l 1,22,-1
 13 12 l 1,23,-1
 11 12 l 1,24,-1
 11 10 l 1,25,-1
 11 8 l 1,26,-1
 9 8 l 1,27,-1
 9 6 l 1,28,-1
 7 6 l 1,29,-1
 7 4 l 1,30,-1
 7 2 l 1,31,-1
 5 2 l 1,32,-1
 5 0 l 1,33,-1
 3 0 l 1,8,-1
3 10 m 1,34,-1
 1 10 l 1,35,-1
 1 12 l 1,36,-1
 1 14 l 1,37,-1
 3 14 l 1,38,-1
 5 14 l 1,39,-1
 5 12 l 1,40,-1
 5 10 l 1,41,-1
 3 10 l 1,34,-1
EndSplineSet
EndChar

StartChar: ampersand
Encoding: 38 38 7
Width: 15
VWidth: 16
GlyphClass: 2
Flags: W
LayerCount: 2
Fore
SplineSet
11 0 m 1,0,-1
 9 0 l 1,1,-1
 7 0 l 1,2,-1
 5 0 l 1,3,-1
 3 0 l 1,4,-1
 3 2 l 1,5,-1
 1 2 l 1,6,-1
 1 4 l 1,7,-1
 1 6 l 1,8,-1
 3 6 l 1,9,-1
 3 8 l 1,10,-1
 5 8 l 1,11,-1
 5 10 l 1,12,-1
 3 10 l 1,13,-1
 3 12 l 1,14,-1
 5 12 l 1,15,-1
 5 14 l 1,16,-1
 7 14 l 1,17,-1
 9 14 l 1,18,-1
 9 12 l 1,19,-1
 11 12 l 1,20,-1
 11 10 l 1,21,-1
 9 10 l 1,22,-1
 9 8 l 1,23,-1
 11 8 l 1,24,-1
 13 8 l 1,25,-1
 13 6 l 1,26,-1
 11 6 l 1,27,-1
 11 4 l 1,28,-1
 11 2 l 1,29,-1
 13 2 l 1,30,-1
 13 0 l 1,31,-1
 11 0 l 1,0,-1
7 2 m 1,32,-1
 7 4 l 1,33,-1
 5 4 l 1,34,-1
 5 2 l 1,35,-1
 7 2 l 1,32,-1
EndSplineSet
EndChar

StartChar: quotesingle
Encoding: 39 39 8
Width: 7
VWidth: 16
GlyphClass: 2
Flags: W
LayerCount: 2
Fore
SplineSet
3 10 m 1,0,-1
 1 10 l 1,1,-1
 1 12 l 1,2,-1
 1 14 l 1,3,-1
 3 14 l 1,4,-1
 5 14 l 1,5,-1
 5 12 l 1,6,-1
 5 10 l 1,7,-1
 3 10 l 1,0,-1
EndSplineSet
EndChar

StartChar: parenleft
Encoding: 40 40 9
Width: 11
VWidth: 16
GlyphClass: 2
Flags: W
LayerCount: 2
Fore
SplineSet
7 0 m 1,0,-1
 5 0 l 1,1,-1
 5 2 l 1,2,-1
 3 2 l 1,3,-1
 3 4 l 1,4,-1
 1 4 l 1,5,-1
 1 6 l 1,6,-1
 1 8 l 1,7,-1
 1 10 l 1,8,-1
 3 10 l 1,9,-1
 3 12 l 1,10,-1
 5 12 l 1,11,-1
 5 14 l 1,12,-1
 7 14 l 1,13,-1
 9 14 l 1,14,-1
 9 12 l 1,15,-1
 7 12 l 1,16,-1
 7 10 l 1,17,-1
 5 10 l 1,18,-1
 5 8 l 1,19,-1
 5 6 l 1,20,-1
 5 4 l 1,21,-1
 7 4 l 1,22,-1
 7 2 l 1,23,-1
 9 2 l 1,24,-1
 9 0 l 1,25,-1
 7 0 l 1,0,-1
EndSplineSet
EndChar

StartChar: parenright
Encoding: 41 41 10
Width: 11
VWidth: 16
GlyphClass: 2
Flags: W
LayerCount: 2
Fore
SplineSet
3 0 m 1,0,-1
 1 0 l 1,1,-1
 1 2 l 1,2,-1
 3 2 l 1,3,-1
 3 4 l 1,4,-1
 5 4 l 1,5,-1
 5 6 l 1,6,-1
 5 8 l 1,7,-1
 5 10 l 1,8,-1
 3 10 l 1,9,-1
 3 12 l 1,10,-1
 1 12 l 1,11,-1
 1 14 l 1,12,-1
 3 14 l 1,13,-1
 5 14 l 1,14,-1
 5 12 l 1,15,-1
 7 12 l 1,16,-1
 7 10 l 1,17,-1
 9 10 l 1,18,-1
 9 8 l 1,19,-1
 9 6 l 1,20,-1
 9 4 l 1,21,-1
 7 4 l 1,22,-1
 7 2 l 1,23,-1
 5 2 l 1,24,-1
 5 0 l 1,25,-1
 3 0 l 1,0,-1
EndSplineSet
EndChar

StartChar: asterisk
Encoding: 42 42 11
Width: 11
VWidth: 16
GlyphClass: 2
Flags: W
LayerCount: 2
Fore
SplineSet
7 8 m 1,0,-1
 5 8 l 1,1,-1
 3 8 l 1,2,-1
 1 8 l 1,3,-1
 1 10 l 1,4,-1
 3 10 l 1,5,-1
 3 12 l 1,6,-1
 1 12 l 1,7,-1
 1 14 l 1,8,-1
 3 14 l 1,9,-1
 5 14 l 1,10,-1
 7 14 l 1,11,-1
 9 14 l 1,12,-1
 9 12 l 1,13,-1
 7 12 l 1,14,-1
 7 10 l 1,15,-1
 9 10 l 1,16,-1
 9 8 l 1,17,-1
 7 8 l 1,0,-1
EndSplineSet
EndChar

StartChar: plus
Encoding: 43 43 12
Width: 15
VWidth: 16
GlyphClass: 2
Flags: W
LayerCount: 2
Fore
SplineSet
7 2 m 1,0,-1
 5 2 l 1,1,-1
 5 4 l 1,2,-1
 5 6 l 1,3,-1
 3 6 l 1,4,-1
 1 6 l 1,5,-1
 1 8 l 1,6,-1
 3 8 l 1,7,-1
 5 8 l 1,8,-1
 5 10 l 1,9,-1
 5 12 l 1,10,-1
 7 12 l 1,11,-1
 9 12 l 1,12,-1
 9 10 l 1,13,-1
 9 8 l 1,14,-1
 11 8 l 1,15,-1
 13 8 l 1,16,-1
 13 6 l 1,17,-1
 11 6 l 1,18,-1
 9 6 l 1,19,-1
 9 4 l 1,20,-1
 9 2 l 1,21,-1
 7 2 l 1,0,-1
EndSplineSet
EndChar

StartChar: comma
Encoding: 44 44 13
Width: 7
VWidth: 16
GlyphClass: 2
Flags: W
LayerCount: 2
Fore
SplineSet
3 -2 m 1,0,-1
 1 -2 l 1,1,-1
 1 0 l 1,2,-1
 1 2 l 1,3,-1
 3 2 l 1,4,-1
 5 2 l 1,5,-1
 5 0 l 1,6,-1
 5 -2 l 1,7,-1
 3 -2 l 1,0,-1
EndSplineSet
EndChar

StartChar: hyphen
Encoding: 45 45 14
Width: 15
VWidth: 16
GlyphClass: 2
Flags: W
LayerCount: 2
Fore
SplineSet
11 8 m 1,0,-1
 13 8 l 1,1,-1
 13 6 l 1,2,-1
 11 6 l 1,3,-1
 9 6 l 1,4,-1
 7 6 l 1,5,-1
 5 6 l 1,6,-1
 3 6 l 1,7,-1
 1 6 l 1,8,-1
 1 8 l 1,9,-1
 3 8 l 1,10,-1
 5 8 l 1,11,-1
 7 8 l 1,12,-1
 9 8 l 1,13,-1
 11 8 l 1,0,-1
EndSplineSet
EndChar

StartChar: period
Encoding: 46 46 15
Width: 7
VWidth: 16
GlyphClass: 2
Flags: W
LayerCount: 2
Fore
SplineSet
3 2 m 1,0,-1
 5 2 l 1,1,-1
 5 0 l 1,2,-1
 3 0 l 1,3,-1
 1 0 l 1,4,-1
 1 2 l 1,5,-1
 3 2 l 1,0,-1
EndSplineSet
EndChar

StartChar: slash
Encoding: 47 47 16
Width: 15
VWidth: 16
GlyphClass: 2
Flags: W
LayerCount: 2
Fore
SplineSet
3 0 m 1,0,-1
 1 0 l 1,1,-1
 1 2 l 1,2,-1
 3 2 l 1,3,-1
 3 4 l 1,4,-1
 3 6 l 1,5,-1
 5 6 l 1,6,-1
 5 8 l 1,7,-1
 7 8 l 1,8,-1
 7 10 l 1,9,-1
 7 12 l 1,10,-1
 9 12 l 1,11,-1
 9 14 l 1,12,-1
 11 14 l 1,13,-1
 13 14 l 1,14,-1
 13 12 l 1,15,-1
 11 12 l 1,16,-1
 11 10 l 1,17,-1
 11 8 l 1,18,-1
 9 8 l 1,19,-1
 9 6 l 1,20,-1
 7 6 l 1,21,-1
 7 4 l 1,22,-1
 7 2 l 1,23,-1
 5 2 l 1,24,-1
 5 0 l 1,25,-1
 3 0 l 1,0,-1
EndSplineSet
EndChar

StartChar: zero
Encoding: 48 48 17
Width: 15
VWidth: 16
GlyphClass: 2
Flags: W
LayerCount: 2
Fore
SplineSet
9 0 m 1,0,-1
 7 0 l 1,1,-1
 5 0 l 1,2,-1
 3 0 l 1,3,-1
 3 2 l 1,4,-1
 1 2 l 1,5,-1
 1 4 l 1,6,-1
 1 6 l 1,7,-1
 1 8 l 1,8,-1
 1 10 l 1,9,-1
 1 12 l 1,10,-1
 3 12 l 1,11,-1
 3 14 l 1,12,-1
 5 14 l 1,13,-1
 7 14 l 1,14,-1
 9 14 l 1,15,-1
 11 14 l 1,16,-1
 11 12 l 1,17,-1
 13 12 l 1,18,-1
 13 10 l 1,19,-1
 13 8 l 1,20,-1
 13 6 l 1,21,-1
 13 4 l 1,22,-1
 13 2 l 1,23,-1
 11 2 l 1,24,-1
 11 0 l 1,25,-1
 9 0 l 1,0,-1
7 2 m 1,26,-1
 9 2 l 1,27,-1
 9 4 l 1,28,-1
 9 6 l 1,29,-1
 7 6 l 1,30,-1
 7 4 l 1,31,-1
 5 4 l 1,32,-1
 5 2 l 1,33,-1
 7 2 l 1,26,-1
7 8 m 1,34,-1
 7 10 l 1,35,-1
 9 10 l 1,36,-1
 9 12 l 1,37,-1
 7 12 l 1,38,-1
 5 12 l 1,39,-1
 5 10 l 1,40,-1
 5 8 l 1,41,-1
 7 8 l 1,34,-1
EndSplineSet
EndChar

StartChar: one
Encoding: 49 49 18
Width: 15
VWidth: 16
GlyphClass: 2
Flags: W
LayerCount: 2
Fore
SplineSet
11 2 m 1,0,-1
 13 2 l 1,1,-1
 13 0 l 1,2,-1
 11 0 l 1,3,-1
 9 0 l 1,4,-1
 7 0 l 1,5,-1
 5 0 l 1,6,-1
 3 0 l 1,7,-1
 1 0 l 1,8,-1
 1 2 l 1,9,-1
 3 2 l 1,10,-1
 5 2 l 1,11,-1
 5 4 l 1,12,-1
 5 6 l 1,13,-1
 5 8 l 1,14,-1
 5 10 l 1,15,-1
 3 10 l 1,16,-1
 3 12 l 1,17,-1
 5 12 l 1,18,-1
 5 14 l 1,19,-1
 7 14 l 1,20,-1
 9 14 l 1,21,-1
 9 12 l 1,22,-1
 9 10 l 1,23,-1
 9 8 l 1,24,-1
 9 6 l 1,25,-1
 9 4 l 1,26,-1
 9 2 l 1,27,-1
 11 2 l 1,0,-1
EndSplineSet
EndChar

StartChar: two
Encoding: 50 50 19
Width: 15
VWidth: 16
GlyphClass: 2
Flags: W
LayerCount: 2
Fore
SplineSet
11 0 m 1,0,-1
 9 0 l 1,1,-1
 7 0 l 1,2,-1
 5 0 l 1,3,-1
 3 0 l 1,4,-1
 1 0 l 1,5,-1
 1 2 l 1,6,-1
 1 4 l 1,7,-1
 3 4 l 1,8,-1
 3 6 l 1,9,-1
 5 6 l 1,10,-1
 5 8 l 1,11,-1
 7 8 l 1,12,-1
 9 8 l 1,13,-1
 9 10 l 1,14,-1
 9 12 l 1,15,-1
 7 12 l 1,16,-1
 5 12 l 1,17,-1
 5 10 l 1,18,-1
 3 10 l 1,19,-1
 1 10 l 1,20,-1
 1 12 l 1,21,-1
 3 12 l 1,22,-1
 3 14 l 1,23,-1
 5 14 l 1,24,-1
 7 14 l 1,25,-1
 9 14 l 1,26,-1
 11 14 l 1,27,-1
 11 12 l 1,28,-1
 13 12 l 1,29,-1
 13 10 l 1,30,-1
 13 8 l 1,31,-1
 11 8 l 1,32,-1
 11 6 l 1,33,-1
 9 6 l 1,34,-1
 7 6 l 1,35,-1
 7 4 l 1,36,-1
 5 4 l 1,37,-1
 5 2 l 1,38,-1
 7 2 l 1,39,-1
 9 2 l 1,40,-1
 9 4 l 1,41,-1
 11 4 l 1,42,-1
 13 4 l 1,43,-1
 13 2 l 1,44,-1
 13 0 l 1,45,-1
 11 0 l 1,0,-1
EndSplineSet
EndChar

StartChar: three
Encoding: 51 51 20
Width: 15
VWidth: 16
GlyphClass: 2
Flags: W
LayerCount: 2
Fore
SplineSet
9 0 m 1,0,-1
 7 0 l 1,1,-1
 5 0 l 1,2,-1
 3 0 l 1,3,-1
 3 2 l 1,4,-1
 1 2 l 1,5,-1
 1 4 l 1,6,-1
 3 4 l 1,7,-1
 5 4 l 1,8,-1
 5 2 l 1,9,-1
 7 2 l 1,10,-1
 9 2 l 1,11,-1
 9 4 l 1,12,-1
 9 6 l 1,13,-1
 7 6 l 1,14,-1
 5 6 l 1,15,-1
 5 8 l 1,16,-1
 7 8 l 1,17,-1
 9 8 l 1,18,-1
 9 10 l 1,19,-1
 9 12 l 1,20,-1
 7 12 l 1,21,-1
 5 12 l 1,22,-1
 5 10 l 1,23,-1
 3 10 l 1,24,-1
 1 10 l 1,25,-1
 1 12 l 1,26,-1
 3 12 l 1,27,-1
 3 14 l 1,28,-1
 5 14 l 1,29,-1
 7 14 l 1,30,-1
 9 14 l 1,31,-1
 11 14 l 1,32,-1
 11 12 l 1,33,-1
 13 12 l 1,34,-1
 13 10 l 1,35,-1
 13 8 l 1,36,-1
 11 8 l 1,37,-1
 11 6 l 1,38,-1
 13 6 l 1,39,-1
 13 4 l 1,40,-1
 13 2 l 1,41,-1
 11 2 l 1,42,-1
 11 0 l 1,43,-1
 9 0 l 1,0,-1
EndSplineSet
EndChar

StartChar: four
Encoding: 52 52 21
Width: 15
VWidth: 16
GlyphClass: 2
Flags: W
LayerCount: 2
Fore
SplineSet
11 0 m 1,0,-1
 9 0 l 1,1,-1
 9 2 l 1,2,-1
 9 4 l 1,3,-1
 7 4 l 1,4,-1
 5 4 l 1,5,-1
 3 4 l 1,6,-1
 1 4 l 1,7,-1
 1 6 l 1,8,-1
 1 8 l 1,9,-1
 3 8 l 1,10,-1
 3 10 l 1,11,-1
 5 10 l 1,12,-1
 5 12 l 1,13,-1
 7 12 l 1,14,-1
 7 14 l 1,15,-1
 9 14 l 1,16,-1
 11 14 l 1,17,-1
 13 14 l 1,18,-1
 13 12 l 1,19,-1
 13 10 l 1,20,-1
 13 8 l 1,21,-1
 13 6 l 1,22,-1
 13 4 l 1,23,-1
 13 2 l 1,24,-1
 13 0 l 1,25,-1
 11 0 l 1,0,-1
7 6 m 1,26,-1
 9 6 l 1,27,-1
 9 8 l 1,28,-1
 9 10 l 1,29,-1
 7 10 l 1,30,-1
 7 8 l 1,31,-1
 5 8 l 1,32,-1
 5 6 l 1,33,-1
 7 6 l 1,26,-1
EndSplineSet
EndChar

StartChar: five
Encoding: 53 53 22
Width: 15
VWidth: 16
GlyphClass: 2
Flags: W
LayerCount: 2
Fore
SplineSet
9 0 m 1,0,-1
 7 0 l 1,1,-1
 5 0 l 1,2,-1
 3 0 l 1,3,-1
 3 2 l 1,4,-1
 1 2 l 1,5,-1
 1 4 l 1,6,-1
 3 4 l 1,7,-1
 5 4 l 1,8,-1
 5 2 l 1,9,-1
 7 2 l 1,10,-1
 9 2 l 1,11,-1
 9 4 l 1,12,-1
 9 6 l 1,13,-1
 9 8 l 1,14,-1
 7 8 l 1,15,-1
 5 8 l 1,16,-1
 3 8 l 1,17,-1
 1 8 l 1,18,-1
 1 10 l 1,19,-1
 1 12 l 1,20,-1
 1 14 l 1,21,-1
 3 14 l 1,22,-1
 5 14 l 1,23,-1
 7 14 l 1,24,-1
 9 14 l 1,25,-1
 11 14 l 1,26,-1
 13 14 l 1,27,-1
 13 12 l 1,28,-1
 11 12 l 1,29,-1
 9 12 l 1,30,-1
 7 12 l 1,31,-1
 5 12 l 1,32,-1
 5 10 l 1,33,-1
 7 10 l 1,34,-1
 9 10 l 1,35,-1
 11 10 l 1,36,-1
 11 8 l 1,37,-1
 13 8 l 1,38,-1
 13 6 l 1,39,-1
 13 4 l 1,40,-1
 13 2 l 1,41,-1
 11 2 l 1,42,-1
 11 0 l 1,43,-1
 9 0 l 1,0,-1
EndSplineSet
EndChar

StartChar: six
Encoding: 54 54 23
Width: 15
VWidth: 16
GlyphClass: 2
Flags: W
LayerCount: 2
Fore
SplineSet
9 0 m 1,0,-1
 7 0 l 1,1,-1
 5 0 l 1,2,-1
 3 0 l 1,3,-1
 3 2 l 1,4,-1
 1 2 l 1,5,-1
 1 4 l 1,6,-1
 1 6 l 1,7,-1
 1 8 l 1,8,-1
 1 10 l 1,9,-1
 3 10 l 1,10,-1
 3 12 l 1,11,-1
 5 12 l 1,12,-1
 5 14 l 1,13,-1
 7 14 l 1,14,-1
 9 14 l 1,15,-1
 11 14 l 1,16,-1
 11 12 l 1,17,-1
 9 12 l 1,18,-1
 7 12 l 1,19,-1
 7 10 l 1,20,-1
 5 10 l 1,21,-1
 5 8 l 1,22,-1
 7 8 l 1,23,-1
 9 8 l 1,24,-1
 11 8 l 1,25,-1
 11 6 l 1,26,-1
 13 6 l 1,27,-1
 13 4 l 1,28,-1
 13 2 l 1,29,-1
 11 2 l 1,30,-1
 11 0 l 1,31,-1
 9 0 l 1,0,-1
7 2 m 1,32,-1
 9 2 l 1,33,-1
 9 4 l 1,34,-1
 9 6 l 1,35,-1
 7 6 l 1,36,-1
 5 6 l 1,37,-1
 5 4 l 1,38,-1
 5 2 l 1,39,-1
 7 2 l 1,32,-1
EndSplineSet
EndChar

StartChar: seven
Encoding: 55 55 24
Width: 15
VWidth: 16
GlyphClass: 2
Flags: W
LayerCount: 2
Fore
SplineSet
7 0 m 1,0,-1
 5 0 l 1,1,-1
 5 2 l 1,2,-1
 5 4 l 1,3,-1
 5 6 l 1,4,-1
 7 6 l 1,5,-1
 7 8 l 1,6,-1
 9 8 l 1,7,-1
 9 10 l 1,8,-1
 9 12 l 1,9,-1
 7 12 l 1,10,-1
 5 12 l 1,11,-1
 5 10 l 1,12,-1
 3 10 l 1,13,-1
 1 10 l 1,14,-1
 1 12 l 1,15,-1
 1 14 l 1,16,-1
 3 14 l 1,17,-1
 5 14 l 1,18,-1
 7 14 l 1,19,-1
 9 14 l 1,20,-1
 11 14 l 1,21,-1
 13 14 l 1,22,-1
 13 12 l 1,23,-1
 13 10 l 1,24,-1
 13 8 l 1,25,-1
 11 8 l 1,26,-1
 11 6 l 1,27,-1
 9 6 l 1,28,-1
 9 4 l 1,29,-1
 9 2 l 1,30,-1
 9 0 l 1,31,-1
 7 0 l 1,0,-1
EndSplineSet
EndChar

StartChar: eight
Encoding: 56 56 25
Width: 15
VWidth: 16
GlyphClass: 2
Flags: W
LayerCount: 2
Fore
SplineSet
9 0 m 1,0,-1
 7 0 l 1,1,-1
 5 0 l 1,2,-1
 3 0 l 1,3,-1
 3 2 l 1,4,-1
 1 2 l 1,5,-1
 1 4 l 1,6,-1
 1 6 l 1,7,-1
 3 6 l 1,8,-1
 3 8 l 1,9,-1
 1 8 l 1,10,-1
 1 10 l 1,11,-1
 1 12 l 1,12,-1
 3 12 l 1,13,-1
 3 14 l 1,14,-1
 5 14 l 1,15,-1
 7 14 l 1,16,-1
 9 14 l 1,17,-1
 11 14 l 1,18,-1
 11 12 l 1,19,-1
 13 12 l 1,20,-1
 13 10 l 1,21,-1
 13 8 l 1,22,-1
 11 8 l 1,23,-1
 11 6 l 1,24,-1
 13 6 l 1,25,-1
 13 4 l 1,26,-1
 13 2 l 1,27,-1
 11 2 l 1,28,-1
 11 0 l 1,29,-1
 9 0 l 1,0,-1
7 2 m 1,30,-1
 9 2 l 1,31,-1
 9 4 l 1,32,-1
 9 6 l 1,33,-1
 7 6 l 1,34,-1
 5 6 l 1,35,-1
 5 4 l 1,36,-1
 5 2 l 1,37,-1
 7 2 l 1,30,-1
7 8 m 1,38,-1
 9 8 l 1,39,-1
 9 10 l 1,40,-1
 9 12 l 1,41,-1
 7 12 l 1,42,-1
 5 12 l 1,43,-1
 5 10 l 1,44,-1
 5 8 l 1,45,-1
 7 8 l 1,38,-1
EndSplineSet
EndChar

StartChar: nine
Encoding: 57 57 26
Width: 15
VWidth: 16
GlyphClass: 2
Flags: W
LayerCount: 2
Fore
SplineSet
7 0 m 1,0,-1
 5 0 l 1,1,-1
 3 0 l 1,2,-1
 3 2 l 1,3,-1
 5 2 l 1,4,-1
 7 2 l 1,5,-1
 7 4 l 1,6,-1
 9 4 l 1,7,-1
 9 6 l 1,8,-1
 7 6 l 1,9,-1
 5 6 l 1,10,-1
 3 6 l 1,11,-1
 3 8 l 1,12,-1
 1 8 l 1,13,-1
 1 10 l 1,14,-1
 1 12 l 1,15,-1
 3 12 l 1,16,-1
 3 14 l 1,17,-1
 5 14 l 1,18,-1
 7 14 l 1,19,-1
 9 14 l 1,20,-1
 11 14 l 1,21,-1
 11 12 l 1,22,-1
 13 12 l 1,23,-1
 13 10 l 1,24,-1
 13 8 l 1,25,-1
 13 6 l 1,26,-1
 13 4 l 1,27,-1
 11 4 l 1,28,-1
 11 2 l 1,29,-1
 9 2 l 1,30,-1
 9 0 l 1,31,-1
 7 0 l 1,0,-1
7 8 m 1,32,-1
 9 8 l 1,33,-1
 9 10 l 1,34,-1
 9 12 l 1,35,-1
 7 12 l 1,36,-1
 5 12 l 1,37,-1
 5 10 l 1,38,-1
 5 8 l 1,39,-1
 7 8 l 1,32,-1
EndSplineSet
EndChar

StartChar: colon
Encoding: 58 58 27
Width: 7
VWidth: 16
GlyphClass: 2
Flags: W
LayerCount: 2
Fore
SplineSet
3 2 m 1,0,-1
 5 2 l 1,1,-1
 5 0 l 1,2,-1
 3 0 l 1,3,-1
 1 0 l 1,4,-1
 1 2 l 1,5,-1
 3 2 l 1,0,-1
3 10 m 1,6,-1
 5 10 l 1,7,-1
 5 8 l 1,8,-1
 3 8 l 1,9,-1
 1 8 l 1,10,-1
 1 10 l 1,11,-1
 3 10 l 1,6,-1
EndSplineSet
EndChar

StartChar: semicolon
Encoding: 59 59 28
Width: 7
VWidth: 16
GlyphClass: 2
Flags: W
LayerCount: 2
Fore
SplineSet
3 -2 m 1,0,-1
 1 -2 l 1,1,-1
 1 0 l 1,2,-1
 1 2 l 1,3,-1
 3 2 l 1,4,-1
 5 2 l 1,5,-1
 5 0 l 1,6,-1
 5 -2 l 1,7,-1
 3 -2 l 1,0,-1
3 10 m 1,8,-1
 5 10 l 1,9,-1
 5 8 l 1,10,-1
 3 8 l 1,11,-1
 1 8 l 1,12,-1
 1 10 l 1,13,-1
 3 10 l 1,8,-1
EndSplineSet
EndChar

StartChar: less
Encoding: 60 60 29
Width: 13
VWidth: 16
GlyphClass: 2
Flags: W
LayerCount: 2
Fore
SplineSet
9 0 m 1,0,-1
 7 0 l 1,1,-1
 7 2 l 1,2,-1
 5 2 l 1,3,-1
 5 4 l 1,4,-1
 3 4 l 1,5,-1
 3 6 l 1,6,-1
 1 6 l 1,7,-1
 1 8 l 1,8,-1
 3 8 l 1,9,-1
 3 10 l 1,10,-1
 5 10 l 1,11,-1
 5 12 l 1,12,-1
 7 12 l 1,13,-1
 7 14 l 1,14,-1
 9 14 l 1,15,-1
 11 14 l 1,16,-1
 11 12 l 1,17,-1
 9 12 l 1,18,-1
 9 10 l 1,19,-1
 7 10 l 1,20,-1
 7 8 l 1,21,-1
 5 8 l 1,22,-1
 5 6 l 1,23,-1
 7 6 l 1,24,-1
 7 4 l 1,25,-1
 9 4 l 1,26,-1
 9 2 l 1,27,-1
 11 2 l 1,28,-1
 11 0 l 1,29,-1
 9 0 l 1,0,-1
EndSplineSet
EndChar

StartChar: equal
Encoding: 61 61 30
Width: 15
VWidth: 16
GlyphClass: 2
Flags: W
LayerCount: 2
Fore
SplineSet
11 4 m 1,0,-1
 13 4 l 1,1,-1
 13 2 l 1,2,-1
 11 2 l 1,3,-1
 9 2 l 1,4,-1
 7 2 l 1,5,-1
 5 2 l 1,6,-1
 3 2 l 1,7,-1
 1 2 l 1,8,-1
 1 4 l 1,9,-1
 3 4 l 1,10,-1
 5 4 l 1,11,-1
 7 4 l 1,12,-1
 9 4 l 1,13,-1
 11 4 l 1,0,-1
11 10 m 1,14,-1
 13 10 l 1,15,-1
 13 8 l 1,16,-1
 11 8 l 1,17,-1
 9 8 l 1,18,-1
 7 8 l 1,19,-1
 5 8 l 1,20,-1
 3 8 l 1,21,-1
 1 8 l 1,22,-1
 1 10 l 1,23,-1
 3 10 l 1,24,-1
 5 10 l 1,25,-1
 7 10 l 1,26,-1
 9 10 l 1,27,-1
 11 10 l 1,14,-1
EndSplineSet
EndChar

StartChar: greater
Encoding: 62 62 31
Width: 13
VWidth: 16
GlyphClass: 2
Flags: W
LayerCount: 2
Fore
SplineSet
3 0 m 1,0,-1
 1 0 l 1,1,-1
 1 2 l 1,2,-1
 3 2 l 1,3,-1
 3 4 l 1,4,-1
 5 4 l 1,5,-1
 5 6 l 1,6,-1
 7 6 l 1,7,-1
 7 8 l 1,8,-1
 5 8 l 1,9,-1
 5 10 l 1,10,-1
 3 10 l 1,11,-1
 3 12 l 1,12,-1
 1 12 l 1,13,-1
 1 14 l 1,14,-1
 3 14 l 1,15,-1
 5 14 l 1,16,-1
 5 12 l 1,17,-1
 7 12 l 1,18,-1
 7 10 l 1,19,-1
 9 10 l 1,20,-1
 9 8 l 1,21,-1
 11 8 l 1,22,-1
 11 6 l 1,23,-1
 9 6 l 1,24,-1
 9 4 l 1,25,-1
 7 4 l 1,26,-1
 7 2 l 1,27,-1
 5 2 l 1,28,-1
 5 0 l 1,29,-1
 3 0 l 1,0,-1
EndSplineSet
EndChar

StartChar: question
Encoding: 63 63 32
Width: 15
VWidth: 16
GlyphClass: 2
Flags: W
LayerCount: 2
Fore
SplineSet
7 2 m 1,0,-1
 9 2 l 1,1,-1
 9 0 l 1,2,-1
 7 0 l 1,3,-1
 5 0 l 1,4,-1
 5 2 l 1,5,-1
 7 2 l 1,0,-1
7 4 m 1,6,-1
 5 4 l 1,7,-1
 5 6 l 1,8,-1
 7 6 l 1,9,-1
 7 8 l 1,10,-1
 9 8 l 1,11,-1
 9 10 l 1,12,-1
 9 12 l 1,13,-1
 7 12 l 1,14,-1
 5 12 l 1,15,-1
 5 10 l 1,16,-1
 3 10 l 1,17,-1
 1 10 l 1,18,-1
 1 12 l 1,19,-1
 3 12 l 1,20,-1
 3 14 l 1,21,-1
 5 14 l 1,22,-1
 7 14 l 1,23,-1
 9 14 l 1,24,-1
 11 14 l 1,25,-1
 11 12 l 1,26,-1
 13 12 l 1,27,-1
 13 10 l 1,28,-1
 13 8 l 1,29,-1
 11 8 l 1,30,-1
 11 6 l 1,31,-1
 9 6 l 1,32,-1
 9 4 l 1,33,-1
 7 4 l 1,6,-1
EndSplineSet
EndChar

StartChar: at
Encoding: 64 64 33
Width: 17
VWidth: 16
GlyphClass: 2
Flags: W
LayerCount: 2
Fore
SplineSet
11 0 m 1,0,-1
 13 0 l 1,1,-1
 13 -2 l 1,2,-1
 11 -2 l 1,3,-1
 9 -2 l 1,4,-1
 7 -2 l 1,5,-1
 5 -2 l 1,6,-1
 3 -2 l 1,7,-1
 3 0 l 1,8,-1
 1 0 l 1,9,-1
 1 2 l 1,10,-1
 1 4 l 1,11,-1
 1 6 l 1,12,-1
 1 8 l 1,13,-1
 1 10 l 1,14,-1
 3 10 l 1,15,-1
 3 12 l 1,16,-1
 5 12 l 1,17,-1
 7 12 l 1,18,-1
 9 12 l 1,19,-1
 11 12 l 1,20,-1
 13 12 l 1,21,-1
 13 10 l 1,22,-1
 15 10 l 1,23,-1
 15 8 l 1,24,-1
 15 6 l 1,25,-1
 15 4 l 1,26,-1
 15 2 l 1,27,-1
 13 2 l 1,28,-1
 11 2 l 1,29,-1
 9 2 l 1,30,-1
 7 2 l 1,31,-1
 5 2 l 1,32,-1
 5 0 l 1,33,-1
 7 0 l 1,34,-1
 9 0 l 1,35,-1
 11 0 l 1,0,-1
11 4 m 1,36,-1
 11 6 l 1,37,-1
 9 6 l 1,38,-1
 9 4 l 1,39,-1
 11 4 l 1,36,-1
9 8 m 1,40,-1
 11 8 l 1,41,-1
 11 10 l 1,42,-1
 9 10 l 1,43,-1
 7 10 l 1,44,-1
 5 10 l 1,45,-1
 5 8 l 1,46,-1
 7 8 l 1,47,-1
 9 8 l 1,40,-1
EndSplineSet
EndChar

StartChar: A
Encoding: 65 65 34
Width: 15
VWidth: 16
GlyphClass: 2
Flags: W
LayerCount: 2
Fore
SplineSet
11 0 m 1,0,-1
 9 0 l 1,1,-1
 9 2 l 1,2,-1
 9 4 l 1,3,-1
 9 6 l 1,4,-1
 9 8 l 1,5,-1
 7 8 l 1,6,-1
 5 8 l 1,7,-1
 5 6 l 1,8,-1
 5 4 l 1,9,-1
 5 2 l 1,10,-1
 5 0 l 1,11,-1
 3 0 l 1,12,-1
 1 0 l 1,13,-1
 1 2 l 1,14,-1
 1 4 l 1,15,-1
 1 6 l 1,16,-1
 1 8 l 1,17,-1
 1 10 l 1,18,-1
 1 12 l 1,19,-1
 3 12 l 1,20,-1
 3 14 l 1,21,-1
 5 14 l 1,22,-1
 7 14 l 1,23,-1
 9 14 l 1,24,-1
 11 14 l 1,25,-1
 11 12 l 1,26,-1
 13 12 l 1,27,-1
 13 10 l 1,28,-1
 13 8 l 1,29,-1
 13 6 l 1,30,-1
 13 4 l 1,31,-1
 13 2 l 1,32,-1
 13 0 l 1,33,-1
 11 0 l 1,0,-1
7 10 m 1,34,-1
 9 10 l 1,35,-1
 9 12 l 1,36,-1
 7 12 l 1,37,-1
 5 12 l 1,38,-1
 5 10 l 1,39,-1
 7 10 l 1,34,-1
EndSplineSet
EndChar

StartChar: B
Encoding: 66 66 35
Width: 15
VWidth: 16
GlyphClass: 2
Flags: W
LayerCount: 2
Fore
SplineSet
9 0 m 1,0,-1
 7 0 l 1,1,-1
 5 0 l 1,2,-1
 3 0 l 1,3,-1
 1 0 l 1,4,-1
 1 2 l 1,5,-1
 1 4 l 1,6,-1
 1 6 l 1,7,-1
 1 8 l 1,8,-1
 1 10 l 1,9,-1
 1 12 l 1,10,-1
 1 14 l 1,11,-1
 3 14 l 1,12,-1
 5 14 l 1,13,-1
 7 14 l 1,14,-1
 9 14 l 1,15,-1
 11 14 l 1,16,-1
 11 12 l 1,17,-1
 13 12 l 1,18,-1
 13 10 l 1,19,-1
 11 10 l 1,20,-1
 11 8 l 1,21,-1
 13 8 l 1,22,-1
 13 6 l 1,23,-1
 13 4 l 1,24,-1
 13 2 l 1,25,-1
 11 2 l 1,26,-1
 11 0 l 1,27,-1
 9 0 l 1,0,-1
7 2 m 1,28,-1
 9 2 l 1,29,-1
 9 4 l 1,30,-1
 9 6 l 1,31,-1
 9 8 l 1,32,-1
 7 8 l 1,33,-1
 5 8 l 1,34,-1
 5 6 l 1,35,-1
 5 4 l 1,36,-1
 5 2 l 1,37,-1
 7 2 l 1,28,-1
7 10 m 1,38,-1
 9 10 l 1,39,-1
 9 12 l 1,40,-1
 7 12 l 1,41,-1
 5 12 l 1,42,-1
 5 10 l 1,43,-1
 7 10 l 1,38,-1
EndSplineSet
EndChar

StartChar: C
Encoding: 67 67 36
Width: 15
VWidth: 16
GlyphClass: 2
Flags: W
LayerCount: 2
Fore
SplineSet
9 0 m 1,0,-1
 7 0 l 1,1,-1
 5 0 l 1,2,-1
 3 0 l 1,3,-1
 3 2 l 1,4,-1
 1 2 l 1,5,-1
 1 4 l 1,6,-1
 1 6 l 1,7,-1
 1 8 l 1,8,-1
 1 10 l 1,9,-1
 1 12 l 1,10,-1
 3 12 l 1,11,-1
 3 14 l 1,12,-1
 5 14 l 1,13,-1
 7 14 l 1,14,-1
 9 14 l 1,15,-1
 11 14 l 1,16,-1
 11 12 l 1,17,-1
 13 12 l 1,18,-1
 13 10 l 1,19,-1
 11 10 l 1,20,-1
 9 10 l 1,21,-1
 9 12 l 1,22,-1
 7 12 l 1,23,-1
 5 12 l 1,24,-1
 5 10 l 1,25,-1
 5 8 l 1,26,-1
 5 6 l 1,27,-1
 5 4 l 1,28,-1
 5 2 l 1,29,-1
 7 2 l 1,30,-1
 9 2 l 1,31,-1
 9 4 l 1,32,-1
 11 4 l 1,33,-1
 13 4 l 1,34,-1
 13 2 l 1,35,-1
 11 2 l 1,36,-1
 11 0 l 1,37,-1
 9 0 l 1,0,-1
EndSplineSet
EndChar

StartChar: D
Encoding: 68 68 37
Width: 15
VWidth: 16
GlyphClass: 2
Flags: W
LayerCount: 2
Fore
SplineSet
9 0 m 1,0,-1
 7 0 l 1,1,-1
 5 0 l 1,2,-1
 3 0 l 1,3,-1
 1 0 l 1,4,-1
 1 2 l 1,5,-1
 1 4 l 1,6,-1
 1 6 l 1,7,-1
 1 8 l 1,8,-1
 1 10 l 1,9,-1
 1 12 l 1,10,-1
 1 14 l 1,11,-1
 3 14 l 1,12,-1
 5 14 l 1,13,-1
 7 14 l 1,14,-1
 9 14 l 1,15,-1
 11 14 l 1,16,-1
 11 12 l 1,17,-1
 13 12 l 1,18,-1
 13 10 l 1,19,-1
 13 8 l 1,20,-1
 13 6 l 1,21,-1
 13 4 l 1,22,-1
 13 2 l 1,23,-1
 11 2 l 1,24,-1
 11 0 l 1,25,-1
 9 0 l 1,0,-1
7 2 m 1,26,-1
 9 2 l 1,27,-1
 9 4 l 1,28,-1
 9 6 l 1,29,-1
 9 8 l 1,30,-1
 9 10 l 1,31,-1
 9 12 l 1,32,-1
 7 12 l 1,33,-1
 5 12 l 1,34,-1
 5 10 l 1,35,-1
 5 8 l 1,36,-1
 5 6 l 1,37,-1
 5 4 l 1,38,-1
 5 2 l 1,39,-1
 7 2 l 1,26,-1
EndSplineSet
EndChar

StartChar: E
Encoding: 69 69 38
Width: 15
VWidth: 16
GlyphClass: 2
Flags: W
LayerCount: 2
Fore
SplineSet
11 2 m 1,0,-1
 13 2 l 1,1,-1
 13 0 l 1,2,-1
 11 0 l 1,3,-1
 9 0 l 1,4,-1
 7 0 l 1,5,-1
 5 0 l 1,6,-1
 3 0 l 1,7,-1
 1 0 l 1,8,-1
 1 2 l 1,9,-1
 1 4 l 1,10,-1
 1 6 l 1,11,-1
 1 8 l 1,12,-1
 1 10 l 1,13,-1
 1 12 l 1,14,-1
 1 14 l 1,15,-1
 3 14 l 1,16,-1
 5 14 l 1,17,-1
 7 14 l 1,18,-1
 9 14 l 1,19,-1
 11 14 l 1,20,-1
 13 14 l 1,21,-1
 13 12 l 1,22,-1
 11 12 l 1,23,-1
 9 12 l 1,24,-1
 7 12 l 1,25,-1
 5 12 l 1,26,-1
 5 10 l 1,27,-1
 7 10 l 1,28,-1
 9 10 l 1,29,-1
 9 8 l 1,30,-1
 7 8 l 1,31,-1
 5 8 l 1,32,-1
 5 6 l 1,33,-1
 5 4 l 1,34,-1
 5 2 l 1,35,-1
 7 2 l 1,36,-1
 9 2 l 1,37,-1
 11 2 l 1,0,-1
EndSplineSet
EndChar

StartChar: F
Encoding: 70 70 39
Width: 15
VWidth: 16
GlyphClass: 2
Flags: W
LayerCount: 2
Fore
SplineSet
3 0 m 1,0,-1
 1 0 l 1,1,-1
 1 2 l 1,2,-1
 1 4 l 1,3,-1
 1 6 l 1,4,-1
 1 8 l 1,5,-1
 1 10 l 1,6,-1
 1 12 l 1,7,-1
 1 14 l 1,8,-1
 3 14 l 1,9,-1
 5 14 l 1,10,-1
 7 14 l 1,11,-1
 9 14 l 1,12,-1
 11 14 l 1,13,-1
 13 14 l 1,14,-1
 13 12 l 1,15,-1
 11 12 l 1,16,-1
 9 12 l 1,17,-1
 7 12 l 1,18,-1
 5 12 l 1,19,-1
 5 10 l 1,20,-1
 7 10 l 1,21,-1
 9 10 l 1,22,-1
 9 8 l 1,23,-1
 7 8 l 1,24,-1
 5 8 l 1,25,-1
 5 6 l 1,26,-1
 5 4 l 1,27,-1
 5 2 l 1,28,-1
 5 0 l 1,29,-1
 3 0 l 1,0,-1
EndSplineSet
EndChar

StartChar: G
Encoding: 71 71 40
Width: 15
VWidth: 16
GlyphClass: 2
Flags: W
LayerCount: 2
Fore
SplineSet
9 0 m 1,0,-1
 7 0 l 1,1,-1
 5 0 l 1,2,-1
 3 0 l 1,3,-1
 3 2 l 1,4,-1
 1 2 l 1,5,-1
 1 4 l 1,6,-1
 1 6 l 1,7,-1
 1 8 l 1,8,-1
 1 10 l 1,9,-1
 1 12 l 1,10,-1
 3 12 l 1,11,-1
 3 14 l 1,12,-1
 5 14 l 1,13,-1
 7 14 l 1,14,-1
 9 14 l 1,15,-1
 11 14 l 1,16,-1
 13 14 l 1,17,-1
 13 12 l 1,18,-1
 11 12 l 1,19,-1
 9 12 l 1,20,-1
 7 12 l 1,21,-1
 5 12 l 1,22,-1
 5 10 l 1,23,-1
 5 8 l 1,24,-1
 5 6 l 1,25,-1
 5 4 l 1,26,-1
 5 2 l 1,27,-1
 7 2 l 1,28,-1
 9 2 l 1,29,-1
 9 4 l 1,30,-1
 9 6 l 1,31,-1
 9 8 l 1,32,-1
 7 8 l 1,33,-1
 7 10 l 1,34,-1
 9 10 l 1,35,-1
 11 10 l 1,36,-1
 13 10 l 1,37,-1
 13 8 l 1,38,-1
 13 6 l 1,39,-1
 13 4 l 1,40,-1
 13 2 l 1,41,-1
 11 2 l 1,42,-1
 11 0 l 1,43,-1
 9 0 l 1,0,-1
EndSplineSet
EndChar

StartChar: H
Encoding: 72 72 41
Width: 15
VWidth: 16
GlyphClass: 2
Flags: W
LayerCount: 2
Fore
SplineSet
11 0 m 1,0,-1
 9 0 l 1,1,-1
 9 2 l 1,2,-1
 9 4 l 1,3,-1
 9 6 l 1,4,-1
 9 8 l 1,5,-1
 7 8 l 1,6,-1
 5 8 l 1,7,-1
 5 6 l 1,8,-1
 5 4 l 1,9,-1
 5 2 l 1,10,-1
 5 0 l 1,11,-1
 3 0 l 1,12,-1
 1 0 l 1,13,-1
 1 2 l 1,14,-1
 1 4 l 1,15,-1
 1 6 l 1,16,-1
 1 8 l 1,17,-1
 1 10 l 1,18,-1
 1 12 l 1,19,-1
 1 14 l 1,20,-1
 3 14 l 1,21,-1
 5 14 l 1,22,-1
 5 12 l 1,23,-1
 5 10 l 1,24,-1
 7 10 l 1,25,-1
 9 10 l 1,26,-1
 9 12 l 1,27,-1
 9 14 l 1,28,-1
 11 14 l 1,29,-1
 13 14 l 1,30,-1
 13 12 l 1,31,-1
 13 10 l 1,32,-1
 13 8 l 1,33,-1
 13 6 l 1,34,-1
 13 4 l 1,35,-1
 13 2 l 1,36,-1
 13 0 l 1,37,-1
 11 0 l 1,0,-1
EndSplineSet
EndChar

StartChar: I
Encoding: 73 73 42
Width: 11
VWidth: 16
GlyphClass: 2
Flags: W
LayerCount: 2
Fore
SplineSet
7 0 m 1,0,-1
 5 0 l 1,1,-1
 3 0 l 1,2,-1
 1 0 l 1,3,-1
 1 2 l 1,4,-1
 3 2 l 1,5,-1
 3 4 l 1,6,-1
 3 6 l 1,7,-1
 3 8 l 1,8,-1
 3 10 l 1,9,-1
 3 12 l 1,10,-1
 1 12 l 1,11,-1
 1 14 l 1,12,-1
 3 14 l 1,13,-1
 5 14 l 1,14,-1
 7 14 l 1,15,-1
 9 14 l 1,16,-1
 9 12 l 1,17,-1
 7 12 l 1,18,-1
 7 10 l 1,19,-1
 7 8 l 1,20,-1
 7 6 l 1,21,-1
 7 4 l 1,22,-1
 7 2 l 1,23,-1
 9 2 l 1,24,-1
 9 0 l 1,25,-1
 7 0 l 1,0,-1
EndSplineSet
EndChar

StartChar: J
Encoding: 74 74 43
Width: 15
VWidth: 16
GlyphClass: 2
Flags: W
LayerCount: 2
Fore
SplineSet
9 0 m 1,0,-1
 7 0 l 1,1,-1
 5 0 l 1,2,-1
 3 0 l 1,3,-1
 3 2 l 1,4,-1
 1 2 l 1,5,-1
 1 4 l 1,6,-1
 3 4 l 1,7,-1
 5 4 l 1,8,-1
 5 2 l 1,9,-1
 7 2 l 1,10,-1
 9 2 l 1,11,-1
 9 4 l 1,12,-1
 9 6 l 1,13,-1
 9 8 l 1,14,-1
 9 10 l 1,15,-1
 9 12 l 1,16,-1
 9 14 l 1,17,-1
 11 14 l 1,18,-1
 13 14 l 1,19,-1
 13 12 l 1,20,-1
 13 10 l 1,21,-1
 13 8 l 1,22,-1
 13 6 l 1,23,-1
 13 4 l 1,24,-1
 13 2 l 1,25,-1
 11 2 l 1,26,-1
 11 0 l 1,27,-1
 9 0 l 1,0,-1
EndSplineSet
EndChar

StartChar: K
Encoding: 75 75 44
Width: 15
VWidth: 16
GlyphClass: 2
Flags: W
LayerCount: 2
Fore
SplineSet
11 0 m 1,0,-1
 9 0 l 1,1,-1
 9 2 l 1,2,-1
 9 4 l 1,3,-1
 9 6 l 1,4,-1
 7 6 l 1,5,-1
 7 8 l 1,6,-1
 5 8 l 1,7,-1
 5 6 l 1,8,-1
 5 4 l 1,9,-1
 5 2 l 1,10,-1
 5 0 l 1,11,-1
 3 0 l 1,12,-1
 1 0 l 1,13,-1
 1 2 l 1,14,-1
 1 4 l 1,15,-1
 1 6 l 1,16,-1
 1 8 l 1,17,-1
 1 10 l 1,18,-1
 1 12 l 1,19,-1
 1 14 l 1,20,-1
 3 14 l 1,21,-1
 5 14 l 1,22,-1
 5 12 l 1,23,-1
 5 10 l 1,24,-1
 7 10 l 1,25,-1
 7 12 l 1,26,-1
 9 12 l 1,27,-1
 9 14 l 1,28,-1
 11 14 l 1,29,-1
 13 14 l 1,30,-1
 13 12 l 1,31,-1
 11 12 l 1,32,-1
 11 10 l 1,33,-1
 9 10 l 1,34,-1
 9 8 l 1,35,-1
 11 8 l 1,36,-1
 11 6 l 1,37,-1
 13 6 l 1,38,-1
 13 4 l 1,39,-1
 13 2 l 1,40,-1
 13 0 l 1,41,-1
 11 0 l 1,0,-1
EndSplineSet
EndChar

StartChar: L
Encoding: 76 76 45
Width: 15
VWidth: 16
GlyphClass: 2
Flags: W
LayerCount: 2
Fore
SplineSet
11 2 m 1,0,-1
 13 2 l 1,1,-1
 13 0 l 1,2,-1
 11 0 l 1,3,-1
 9 0 l 1,4,-1
 7 0 l 1,5,-1
 5 0 l 1,6,-1
 3 0 l 1,7,-1
 1 0 l 1,8,-1
 1 2 l 1,9,-1
 1 4 l 1,10,-1
 1 6 l 1,11,-1
 1 8 l 1,12,-1
 1 10 l 1,13,-1
 1 12 l 1,14,-1
 1 14 l 1,15,-1
 3 14 l 1,16,-1
 5 14 l 1,17,-1
 5 12 l 1,18,-1
 5 10 l 1,19,-1
 5 8 l 1,20,-1
 5 6 l 1,21,-1
 5 4 l 1,22,-1
 5 2 l 1,23,-1
 7 2 l 1,24,-1
 9 2 l 1,25,-1
 11 2 l 1,0,-1
EndSplineSet
EndChar

StartChar: M
Encoding: 77 77 46
Width: 15
VWidth: 16
GlyphClass: 2
Flags: W
LayerCount: 2
Fore
SplineSet
11 0 m 1,0,-1
 9 0 l 1,1,-1
 9 2 l 1,2,-1
 9 4 l 1,3,-1
 9 6 l 1,4,-1
 9 8 l 1,5,-1
 7 8 l 1,6,-1
 5 8 l 1,7,-1
 5 6 l 1,8,-1
 5 4 l 1,9,-1
 5 2 l 1,10,-1
 5 0 l 1,11,-1
 3 0 l 1,12,-1
 1 0 l 1,13,-1
 1 2 l 1,14,-1
 1 4 l 1,15,-1
 1 6 l 1,16,-1
 1 8 l 1,17,-1
 1 10 l 1,18,-1
 1 12 l 1,19,-1
 1 14 l 1,20,-1
 3 14 l 1,21,-1
 5 14 l 1,22,-1
 5 12 l 1,23,-1
 7 12 l 1,24,-1
 9 12 l 1,25,-1
 9 14 l 1,26,-1
 11 14 l 1,27,-1
 13 14 l 1,28,-1
 13 12 l 1,29,-1
 13 10 l 1,30,-1
 13 8 l 1,31,-1
 13 6 l 1,32,-1
 13 4 l 1,33,-1
 13 2 l 1,34,-1
 13 0 l 1,35,-1
 11 0 l 1,0,-1
EndSplineSet
EndChar

StartChar: N
Encoding: 78 78 47
Width: 15
VWidth: 16
GlyphClass: 2
Flags: W
LayerCount: 2
Fore
SplineSet
11 0 m 1,0,-1
 9 0 l 1,1,-1
 9 2 l 1,2,-1
 9 4 l 1,3,-1
 9 6 l 1,4,-1
 7 6 l 1,5,-1
 7 8 l 1,6,-1
 5 8 l 1,7,-1
 5 6 l 1,8,-1
 5 4 l 1,9,-1
 5 2 l 1,10,-1
 5 0 l 1,11,-1
 3 0 l 1,12,-1
 1 0 l 1,13,-1
 1 2 l 1,14,-1
 1 4 l 1,15,-1
 1 6 l 1,16,-1
 1 8 l 1,17,-1
 1 10 l 1,18,-1
 1 12 l 1,19,-1
 1 14 l 1,20,-1
 3 14 l 1,21,-1
 5 14 l 1,22,-1
 5 12 l 1,23,-1
 7 12 l 1,24,-1
 7 10 l 1,25,-1
 9 10 l 1,26,-1
 9 12 l 1,27,-1
 9 14 l 1,28,-1
 11 14 l 1,29,-1
 13 14 l 1,30,-1
 13 12 l 1,31,-1
 13 10 l 1,32,-1
 13 8 l 1,33,-1
 13 6 l 1,34,-1
 13 4 l 1,35,-1
 13 2 l 1,36,-1
 13 0 l 1,37,-1
 11 0 l 1,0,-1
EndSplineSet
EndChar

StartChar: O
Encoding: 79 79 48
Width: 15
VWidth: 16
GlyphClass: 2
Flags: W
LayerCount: 2
Fore
SplineSet
9 0 m 1,0,-1
 7 0 l 1,1,-1
 5 0 l 1,2,-1
 3 0 l 1,3,-1
 3 2 l 1,4,-1
 1 2 l 1,5,-1
 1 4 l 1,6,-1
 1 6 l 1,7,-1
 1 8 l 1,8,-1
 1 10 l 1,9,-1
 1 12 l 1,10,-1
 3 12 l 1,11,-1
 3 14 l 1,12,-1
 5 14 l 1,13,-1
 7 14 l 1,14,-1
 9 14 l 1,15,-1
 11 14 l 1,16,-1
 11 12 l 1,17,-1
 13 12 l 1,18,-1
 13 10 l 1,19,-1
 13 8 l 1,20,-1
 13 6 l 1,21,-1
 13 4 l 1,22,-1
 13 2 l 1,23,-1
 11 2 l 1,24,-1
 11 0 l 1,25,-1
 9 0 l 1,0,-1
7 2 m 1,26,-1
 9 2 l 1,27,-1
 9 4 l 1,28,-1
 9 6 l 1,29,-1
 9 8 l 1,30,-1
 9 10 l 1,31,-1
 9 12 l 1,32,-1
 7 12 l 1,33,-1
 5 12 l 1,34,-1
 5 10 l 1,35,-1
 5 8 l 1,36,-1
 5 6 l 1,37,-1
 5 4 l 1,38,-1
 5 2 l 1,39,-1
 7 2 l 1,26,-1
EndSplineSet
EndChar

StartChar: P
Encoding: 80 80 49
Width: 15
VWidth: 16
GlyphClass: 2
Flags: W
LayerCount: 2
Fore
SplineSet
3 0 m 1,0,-1
 1 0 l 1,1,-1
 1 2 l 1,2,-1
 1 4 l 1,3,-1
 1 6 l 1,4,-1
 1 8 l 1,5,-1
 1 10 l 1,6,-1
 1 12 l 1,7,-1
 1 14 l 1,8,-1
 3 14 l 1,9,-1
 5 14 l 1,10,-1
 7 14 l 1,11,-1
 9 14 l 1,12,-1
 11 14 l 1,13,-1
 11 12 l 1,14,-1
 13 12 l 1,15,-1
 13 10 l 1,16,-1
 11 10 l 1,17,-1
 11 8 l 1,18,-1
 9 8 l 1,19,-1
 7 8 l 1,20,-1
 5 8 l 1,21,-1
 5 6 l 1,22,-1
 5 4 l 1,23,-1
 5 2 l 1,24,-1
 5 0 l 1,25,-1
 3 0 l 1,0,-1
7 10 m 1,26,-1
 9 10 l 1,27,-1
 9 12 l 1,28,-1
 7 12 l 1,29,-1
 5 12 l 1,30,-1
 5 10 l 1,31,-1
 7 10 l 1,26,-1
EndSplineSet
EndChar

StartChar: Q
Encoding: 81 81 50
Width: 15
VWidth: 16
GlyphClass: 2
Flags: W
LayerCount: 2
Fore
SplineSet
11 0 m 1,0,-1
 9 0 l 1,1,-1
 7 0 l 1,2,-1
 5 0 l 1,3,-1
 3 0 l 1,4,-1
 3 2 l 1,5,-1
 1 2 l 1,6,-1
 1 4 l 1,7,-1
 1 6 l 1,8,-1
 1 8 l 1,9,-1
 1 10 l 1,10,-1
 1 12 l 1,11,-1
 3 12 l 1,12,-1
 3 14 l 1,13,-1
 5 14 l 1,14,-1
 7 14 l 1,15,-1
 9 14 l 1,16,-1
 11 14 l 1,17,-1
 11 12 l 1,18,-1
 13 12 l 1,19,-1
 13 10 l 1,20,-1
 13 8 l 1,21,-1
 13 6 l 1,22,-1
 13 4 l 1,23,-1
 11 4 l 1,24,-1
 11 2 l 1,25,-1
 13 2 l 1,26,-1
 13 0 l 1,27,-1
 11 0 l 1,0,-1
7 2 m 1,28,-1
 7 4 l 1,29,-1
 9 4 l 1,30,-1
 9 6 l 1,31,-1
 9 8 l 1,32,-1
 9 10 l 1,33,-1
 9 12 l 1,34,-1
 7 12 l 1,35,-1
 5 12 l 1,36,-1
 5 10 l 1,37,-1
 5 8 l 1,38,-1
 5 6 l 1,39,-1
 5 4 l 1,40,-1
 5 2 l 1,41,-1
 7 2 l 1,28,-1
EndSplineSet
EndChar

StartChar: R
Encoding: 82 82 51
Width: 15
VWidth: 16
GlyphClass: 2
Flags: W
LayerCount: 2
Fore
SplineSet
11 0 m 1,0,-1
 9 0 l 1,1,-1
 9 2 l 1,2,-1
 9 4 l 1,3,-1
 9 6 l 1,4,-1
 9 8 l 1,5,-1
 7 8 l 1,6,-1
 5 8 l 1,7,-1
 5 6 l 1,8,-1
 5 4 l 1,9,-1
 5 2 l 1,10,-1
 5 0 l 1,11,-1
 3 0 l 1,12,-1
 1 0 l 1,13,-1
 1 2 l 1,14,-1
 1 4 l 1,15,-1
 1 6 l 1,16,-1
 1 8 l 1,17,-1
 1 10 l 1,18,-1
 1 12 l 1,19,-1
 1 14 l 1,20,-1
 3 14 l 1,21,-1
 5 14 l 1,22,-1
 7 14 l 1,23,-1
 9 14 l 1,24,-1
 11 14 l 1,25,-1
 11 12 l 1,26,-1
 13 12 l 1,27,-1
 13 10 l 1,28,-1
 11 10 l 1,29,-1
 11 8 l 1,30,-1
 13 8 l 1,31,-1
 13 6 l 1,32,-1
 13 4 l 1,33,-1
 13 2 l 1,34,-1
 13 0 l 1,35,-1
 11 0 l 1,0,-1
7 10 m 1,36,-1
 9 10 l 1,37,-1
 9 12 l 1,38,-1
 7 12 l 1,39,-1
 5 12 l 1,40,-1
 5 10 l 1,41,-1
 7 10 l 1,36,-1
EndSplineSet
EndChar

StartChar: S
Encoding: 83 83 52
Width: 15
VWidth: 16
GlyphClass: 2
Flags: W
LayerCount: 2
Fore
SplineSet
9 0 m 1,0,-1
 7 0 l 1,1,-1
 5 0 l 1,2,-1
 3 0 l 1,3,-1
 3 2 l 1,4,-1
 1 2 l 1,5,-1
 1 4 l 1,6,-1
 3 4 l 1,7,-1
 5 4 l 1,8,-1
 5 2 l 1,9,-1
 7 2 l 1,10,-1
 9 2 l 1,11,-1
 9 4 l 1,12,-1
 9 6 l 1,13,-1
 9 8 l 1,14,-1
 7 8 l 1,15,-1
 5 8 l 1,16,-1
 3 8 l 1,17,-1
 3 10 l 1,18,-1
 1 10 l 1,19,-1
 1 12 l 1,20,-1
 3 12 l 1,21,-1
 3 14 l 1,22,-1
 5 14 l 1,23,-1
 7 14 l 1,24,-1
 9 14 l 1,25,-1
 11 14 l 1,26,-1
 13 14 l 1,27,-1
 13 12 l 1,28,-1
 11 12 l 1,29,-1
 9 12 l 1,30,-1
 7 12 l 1,31,-1
 5 12 l 1,32,-1
 5 10 l 1,33,-1
 7 10 l 1,34,-1
 9 10 l 1,35,-1
 11 10 l 1,36,-1
 11 8 l 1,37,-1
 13 8 l 1,38,-1
 13 6 l 1,39,-1
 13 4 l 1,40,-1
 13 2 l 1,41,-1
 11 2 l 1,42,-1
 11 0 l 1,43,-1
 9 0 l 1,0,-1
EndSplineSet
EndChar

StartChar: T
Encoding: 84 84 53
Width: 15
VWidth: 16
GlyphClass: 2
Flags: W
LayerCount: 2
Fore
SplineSet
7 0 m 1,0,-1
 5 0 l 1,1,-1
 5 2 l 1,2,-1
 5 4 l 1,3,-1
 5 6 l 1,4,-1
 5 8 l 1,5,-1
 5 10 l 1,6,-1
 5 12 l 1,7,-1
 3 12 l 1,8,-1
 1 12 l 1,9,-1
 1 14 l 1,10,-1
 3 14 l 1,11,-1
 5 14 l 1,12,-1
 7 14 l 1,13,-1
 9 14 l 1,14,-1
 11 14 l 1,15,-1
 13 14 l 1,16,-1
 13 12 l 1,17,-1
 11 12 l 1,18,-1
 9 12 l 1,19,-1
 9 10 l 1,20,-1
 9 8 l 1,21,-1
 9 6 l 1,22,-1
 9 4 l 1,23,-1
 9 2 l 1,24,-1
 9 0 l 1,25,-1
 7 0 l 1,0,-1
EndSplineSet
EndChar

StartChar: U
Encoding: 85 85 54
Width: 15
VWidth: 16
GlyphClass: 2
Flags: W
LayerCount: 2
Fore
SplineSet
9 0 m 1,0,-1
 7 0 l 1,1,-1
 5 0 l 1,2,-1
 3 0 l 1,3,-1
 3 2 l 1,4,-1
 1 2 l 1,5,-1
 1 4 l 1,6,-1
 1 6 l 1,7,-1
 1 8 l 1,8,-1
 1 10 l 1,9,-1
 1 12 l 1,10,-1
 1 14 l 1,11,-1
 3 14 l 1,12,-1
 5 14 l 1,13,-1
 5 12 l 1,14,-1
 5 10 l 1,15,-1
 5 8 l 1,16,-1
 5 6 l 1,17,-1
 5 4 l 1,18,-1
 5 2 l 1,19,-1
 7 2 l 1,20,-1
 9 2 l 1,21,-1
 9 4 l 1,22,-1
 9 6 l 1,23,-1
 9 8 l 1,24,-1
 9 10 l 1,25,-1
 9 12 l 1,26,-1
 9 14 l 1,27,-1
 11 14 l 1,28,-1
 13 14 l 1,29,-1
 13 12 l 1,30,-1
 13 10 l 1,31,-1
 13 8 l 1,32,-1
 13 6 l 1,33,-1
 13 4 l 1,34,-1
 13 2 l 1,35,-1
 11 2 l 1,36,-1
 11 0 l 1,37,-1
 9 0 l 1,0,-1
EndSplineSet
EndChar

StartChar: V
Encoding: 86 86 55
Width: 15
VWidth: 16
GlyphClass: 2
Flags: W
LayerCount: 2
Fore
SplineSet
7 0 m 1,0,-1
 5 0 l 1,1,-1
 5 2 l 1,2,-1
 3 2 l 1,3,-1
 3 4 l 1,4,-1
 3 6 l 1,5,-1
 1 6 l 1,6,-1
 1 8 l 1,7,-1
 1 10 l 1,8,-1
 1 12 l 1,9,-1
 1 14 l 1,10,-1
 3 14 l 1,11,-1
 5 14 l 1,12,-1
 5 12 l 1,13,-1
 5 10 l 1,14,-1
 5 8 l 1,15,-1
 5 6 l 1,16,-1
 7 6 l 1,17,-1
 9 6 l 1,18,-1
 9 8 l 1,19,-1
 9 10 l 1,20,-1
 9 12 l 1,21,-1
 9 14 l 1,22,-1
 11 14 l 1,23,-1
 13 14 l 1,24,-1
 13 12 l 1,25,-1
 13 10 l 1,26,-1
 13 8 l 1,27,-1
 13 6 l 1,28,-1
 11 6 l 1,29,-1
 11 4 l 1,30,-1
 11 2 l 1,31,-1
 9 2 l 1,32,-1
 9 0 l 1,33,-1
 7 0 l 1,0,-1
EndSplineSet
EndChar

StartChar: W
Encoding: 87 87 56
Width: 15
VWidth: 16
GlyphClass: 2
Flags: W
LayerCount: 2
Fore
SplineSet
11 0 m 1,0,-1
 9 0 l 1,1,-1
 9 2 l 1,2,-1
 7 2 l 1,3,-1
 5 2 l 1,4,-1
 5 0 l 1,5,-1
 3 0 l 1,6,-1
 1 0 l 1,7,-1
 1 2 l 1,8,-1
 1 4 l 1,9,-1
 1 6 l 1,10,-1
 1 8 l 1,11,-1
 1 10 l 1,12,-1
 1 12 l 1,13,-1
 1 14 l 1,14,-1
 3 14 l 1,15,-1
 5 14 l 1,16,-1
 5 12 l 1,17,-1
 5 10 l 1,18,-1
 5 8 l 1,19,-1
 5 6 l 1,20,-1
 7 6 l 1,21,-1
 9 6 l 1,22,-1
 9 8 l 1,23,-1
 9 10 l 1,24,-1
 9 12 l 1,25,-1
 9 14 l 1,26,-1
 11 14 l 1,27,-1
 13 14 l 1,28,-1
 13 12 l 1,29,-1
 13 10 l 1,30,-1
 13 8 l 1,31,-1
 13 6 l 1,32,-1
 13 4 l 1,33,-1
 13 2 l 1,34,-1
 13 0 l 1,35,-1
 11 0 l 1,0,-1
EndSplineSet
EndChar

StartChar: X
Encoding: 88 88 57
Width: 15
VWidth: 16
GlyphClass: 2
Flags: W
LayerCount: 2
Fore
SplineSet
11 0 m 1,0,-1
 9 0 l 1,1,-1
 9 2 l 1,2,-1
 9 4 l 1,3,-1
 9 6 l 1,4,-1
 7 6 l 1,5,-1
 5 6 l 1,6,-1
 5 4 l 1,7,-1
 5 2 l 1,8,-1
 5 0 l 1,9,-1
 3 0 l 1,10,-1
 1 0 l 1,11,-1
 1 2 l 1,12,-1
 1 4 l 1,13,-1
 1 6 l 1,14,-1
 3 6 l 1,15,-1
 3 8 l 1,16,-1
 5 8 l 1,17,-1
 5 10 l 1,18,-1
 3 10 l 1,19,-1
 3 12 l 1,20,-1
 1 12 l 1,21,-1
 1 14 l 1,22,-1
 3 14 l 1,23,-1
 5 14 l 1,24,-1
 5 12 l 1,25,-1
 7 12 l 1,26,-1
 9 12 l 1,27,-1
 9 14 l 1,28,-1
 11 14 l 1,29,-1
 13 14 l 1,30,-1
 13 12 l 1,31,-1
 11 12 l 1,32,-1
 11 10 l 1,33,-1
 9 10 l 1,34,-1
 9 8 l 1,35,-1
 11 8 l 1,36,-1
 11 6 l 1,37,-1
 13 6 l 1,38,-1
 13 4 l 1,39,-1
 13 2 l 1,40,-1
 13 0 l 1,41,-1
 11 0 l 1,0,-1
EndSplineSet
EndChar

StartChar: Y
Encoding: 89 89 58
Width: 15
VWidth: 16
GlyphClass: 2
Flags: W
LayerCount: 2
Fore
SplineSet
7 0 m 1,0,-1
 5 0 l 1,1,-1
 5 2 l 1,2,-1
 5 4 l 1,3,-1
 5 6 l 1,4,-1
 5 8 l 1,5,-1
 5 10 l 1,6,-1
 3 10 l 1,7,-1
 3 12 l 1,8,-1
 1 12 l 1,9,-1
 1 14 l 1,10,-1
 3 14 l 1,11,-1
 5 14 l 1,12,-1
 5 12 l 1,13,-1
 7 12 l 1,14,-1
 9 12 l 1,15,-1
 9 14 l 1,16,-1
 11 14 l 1,17,-1
 13 14 l 1,18,-1
 13 12 l 1,19,-1
 11 12 l 1,20,-1
 11 10 l 1,21,-1
 9 10 l 1,22,-1
 9 8 l 1,23,-1
 9 6 l 1,24,-1
 9 4 l 1,25,-1
 9 2 l 1,26,-1
 9 0 l 1,27,-1
 7 0 l 1,0,-1
EndSplineSet
EndChar

StartChar: Z
Encoding: 90 90 59
Width: 15
VWidth: 16
GlyphClass: 2
Flags: W
LayerCount: 2
Fore
SplineSet
11 2 m 1,0,-1
 13 2 l 1,1,-1
 13 0 l 1,2,-1
 11 0 l 1,3,-1
 9 0 l 1,4,-1
 7 0 l 1,5,-1
 5 0 l 1,6,-1
 3 0 l 1,7,-1
 1 0 l 1,8,-1
 1 2 l 1,9,-1
 1 4 l 1,10,-1
 3 4 l 1,11,-1
 3 6 l 1,12,-1
 5 6 l 1,13,-1
 5 8 l 1,14,-1
 7 8 l 1,15,-1
 7 10 l 1,16,-1
 9 10 l 1,17,-1
 9 12 l 1,18,-1
 7 12 l 1,19,-1
 5 12 l 1,20,-1
 3 12 l 1,21,-1
 1 12 l 1,22,-1
 1 14 l 1,23,-1
 3 14 l 1,24,-1
 5 14 l 1,25,-1
 7 14 l 1,26,-1
 9 14 l 1,27,-1
 11 14 l 1,28,-1
 13 14 l 1,29,-1
 13 12 l 1,30,-1
 13 10 l 1,31,-1
 11 10 l 1,32,-1
 11 8 l 1,33,-1
 9 8 l 1,34,-1
 9 6 l 1,35,-1
 7 6 l 1,36,-1
 7 4 l 1,37,-1
 5 4 l 1,38,-1
 5 2 l 1,39,-1
 7 2 l 1,40,-1
 9 2 l 1,41,-1
 11 2 l 1,0,-1
EndSplineSet
EndChar

StartChar: bracketleft
Encoding: 91 91 60
Width: 11
VWidth: 16
GlyphClass: 2
Flags: W
LayerCount: 2
Fore
SplineSet
7 2 m 1,0,-1
 9 2 l 1,1,-1
 9 0 l 1,2,-1
 7 0 l 1,3,-1
 5 0 l 1,4,-1
 3 0 l 1,5,-1
 1 0 l 1,6,-1
 1 2 l 1,7,-1
 1 4 l 1,8,-1
 1 6 l 1,9,-1
 1 8 l 1,10,-1
 1 10 l 1,11,-1
 1 12 l 1,12,-1
 1 14 l 1,13,-1
 3 14 l 1,14,-1
 5 14 l 1,15,-1
 7 14 l 1,16,-1
 9 14 l 1,17,-1
 9 12 l 1,18,-1
 7 12 l 1,19,-1
 5 12 l 1,20,-1
 5 10 l 1,21,-1
 5 8 l 1,22,-1
 5 6 l 1,23,-1
 5 4 l 1,24,-1
 5 2 l 1,25,-1
 7 2 l 1,0,-1
EndSplineSet
EndChar

StartChar: backslash
Encoding: 92 92 61
Width: 15
VWidth: 16
GlyphClass: 2
Flags: W
LayerCount: 2
Fore
SplineSet
11 0 m 1,0,-1
 9 0 l 1,1,-1
 9 2 l 1,2,-1
 7 2 l 1,3,-1
 7 4 l 1,4,-1
 7 6 l 1,5,-1
 5 6 l 1,6,-1
 5 8 l 1,7,-1
 3 8 l 1,8,-1
 3 10 l 1,9,-1
 3 12 l 1,10,-1
 1 12 l 1,11,-1
 1 14 l 1,12,-1
 3 14 l 1,13,-1
 5 14 l 1,14,-1
 5 12 l 1,15,-1
 7 12 l 1,16,-1
 7 10 l 1,17,-1
 7 8 l 1,18,-1
 9 8 l 1,19,-1
 9 6 l 1,20,-1
 11 6 l 1,21,-1
 11 4 l 1,22,-1
 11 2 l 1,23,-1
 13 2 l 1,24,-1
 13 0 l 1,25,-1
 11 0 l 1,0,-1
EndSplineSet
EndChar

StartChar: bracketright
Encoding: 93 93 62
Width: 11
VWidth: 16
GlyphClass: 2
Flags: W
LayerCount: 2
Fore
SplineSet
7 0 m 1,0,-1
 5 0 l 1,1,-1
 3 0 l 1,2,-1
 1 0 l 1,3,-1
 1 2 l 1,4,-1
 3 2 l 1,5,-1
 5 2 l 1,6,-1
 5 4 l 1,7,-1
 5 6 l 1,8,-1
 5 8 l 1,9,-1
 5 10 l 1,10,-1
 5 12 l 1,11,-1
 3 12 l 1,12,-1
 1 12 l 1,13,-1
 1 14 l 1,14,-1
 3 14 l 1,15,-1
 5 14 l 1,16,-1
 7 14 l 1,17,-1
 9 14 l 1,18,-1
 9 12 l 1,19,-1
 9 10 l 1,20,-1
 9 8 l 1,21,-1
 9 6 l 1,22,-1
 9 4 l 1,23,-1
 9 2 l 1,24,-1
 9 0 l 1,25,-1
 7 0 l 1,0,-1
EndSplineSet
EndChar

StartChar: asciicircum
Encoding: 94 94 63
Width: 15
VWidth: 16
GlyphClass: 2
Flags: W
LayerCount: 2
Fore
SplineSet
11 8 m 1,0,-1
 9 8 l 1,1,-1
 9 10 l 1,2,-1
 7 10 l 1,3,-1
 5 10 l 1,4,-1
 5 8 l 1,5,-1
 3 8 l 1,6,-1
 1 8 l 1,7,-1
 1 10 l 1,8,-1
 3 10 l 1,9,-1
 3 12 l 1,10,-1
 5 12 l 1,11,-1
 5 14 l 1,12,-1
 7 14 l 1,13,-1
 9 14 l 1,14,-1
 9 12 l 1,15,-1
 11 12 l 1,16,-1
 11 10 l 1,17,-1
 13 10 l 1,18,-1
 13 8 l 1,19,-1
 11 8 l 1,0,-1
EndSplineSet
EndChar

StartChar: underscore
Encoding: 95 95 64
Width: 15
VWidth: 16
GlyphClass: 2
Flags: W
LayerCount: 2
Fore
SplineSet
11 0 m 1,0,-1
 13 0 l 1,1,-1
 13 -2 l 1,2,-1
 11 -2 l 1,3,-1
 9 -2 l 1,4,-1
 7 -2 l 1,5,-1
 5 -2 l 1,6,-1
 3 -2 l 1,7,-1
 1 -2 l 1,8,-1
 1 0 l 1,9,-1
 3 0 l 1,10,-1
 5 0 l 1,11,-1
 7 0 l 1,12,-1
 9 0 l 1,13,-1
 11 0 l 1,0,-1
EndSplineSet
EndChar

StartChar: grave
Encoding: 96 96 65
Width: 9
VWidth: 16
GlyphClass: 2
Flags: W
LayerCount: 2
Fore
SplineSet
5 10 m 1,0,-1
 3 10 l 1,1,-1
 3 12 l 1,2,-1
 1 12 l 1,3,-1
 1 14 l 1,4,-1
 3 14 l 1,5,-1
 5 14 l 1,6,-1
 5 12 l 1,7,-1
 7 12 l 1,8,-1
 7 10 l 1,9,-1
 5 10 l 1,0,-1
EndSplineSet
EndChar

StartChar: a
Encoding: 97 97 66
Width: 15
VWidth: 16
GlyphClass: 2
Flags: W
LayerCount: 2
Fore
SplineSet
11 0 m 1,0,-1
 9 0 l 1,1,-1
 7 0 l 1,2,-1
 5 0 l 1,3,-1
 3 0 l 1,4,-1
 3 2 l 1,5,-1
 1 2 l 1,6,-1
 1 4 l 1,7,-1
 3 4 l 1,8,-1
 3 6 l 1,9,-1
 5 6 l 1,10,-1
 7 6 l 1,11,-1
 9 6 l 1,12,-1
 9 8 l 1,13,-1
 7 8 l 1,14,-1
 5 8 l 1,15,-1
 3 8 l 1,16,-1
 3 10 l 1,17,-1
 5 10 l 1,18,-1
 7 10 l 1,19,-1
 9 10 l 1,20,-1
 11 10 l 1,21,-1
 11 8 l 1,22,-1
 13 8 l 1,23,-1
 13 6 l 1,24,-1
 13 4 l 1,25,-1
 13 2 l 1,26,-1
 13 0 l 1,27,-1
 11 0 l 1,0,-1
7 2 m 1,28,-1
 9 2 l 1,29,-1
 9 4 l 1,30,-1
 7 4 l 1,31,-1
 5 4 l 1,32,-1
 5 2 l 1,33,-1
 7 2 l 1,28,-1
EndSplineSet
EndChar

StartChar: b
Encoding: 98 98 67
Width: 15
VWidth: 16
GlyphClass: 2
Flags: W
LayerCount: 2
Fore
SplineSet
9 0 m 1,0,-1
 7 0 l 1,1,-1
 5 0 l 1,2,-1
 3 0 l 1,3,-1
 1 0 l 1,4,-1
 1 2 l 1,5,-1
 1 4 l 1,6,-1
 1 6 l 1,7,-1
 1 8 l 1,8,-1
 1 10 l 1,9,-1
 1 12 l 1,10,-1
 1 14 l 1,11,-1
 3 14 l 1,12,-1
 5 14 l 1,13,-1
 5 12 l 1,14,-1
 5 10 l 1,15,-1
 7 10 l 1,16,-1
 9 10 l 1,17,-1
 11 10 l 1,18,-1
 11 8 l 1,19,-1
 13 8 l 1,20,-1
 13 6 l 1,21,-1
 13 4 l 1,22,-1
 13 2 l 1,23,-1
 11 2 l 1,24,-1
 11 0 l 1,25,-1
 9 0 l 1,0,-1
7 2 m 1,26,-1
 9 2 l 1,27,-1
 9 4 l 1,28,-1
 9 6 l 1,29,-1
 9 8 l 1,30,-1
 7 8 l 1,31,-1
 7 6 l 1,32,-1
 5 6 l 1,33,-1
 5 4 l 1,34,-1
 5 2 l 1,35,-1
 7 2 l 1,26,-1
EndSplineSet
EndChar

StartChar: c
Encoding: 99 99 68
Width: 15
VWidth: 16
GlyphClass: 2
Flags: W
LayerCount: 2
Fore
SplineSet
9 0 m 1,0,-1
 7 0 l 1,1,-1
 5 0 l 1,2,-1
 3 0 l 1,3,-1
 3 2 l 1,4,-1
 1 2 l 1,5,-1
 1 4 l 1,6,-1
 1 6 l 1,7,-1
 1 8 l 1,8,-1
 3 8 l 1,9,-1
 3 10 l 1,10,-1
 5 10 l 1,11,-1
 7 10 l 1,12,-1
 9 10 l 1,13,-1
 11 10 l 1,14,-1
 11 8 l 1,15,-1
 13 8 l 1,16,-1
 13 6 l 1,17,-1
 11 6 l 1,18,-1
 9 6 l 1,19,-1
 9 8 l 1,20,-1
 7 8 l 1,21,-1
 5 8 l 1,22,-1
 5 6 l 1,23,-1
 5 4 l 1,24,-1
 5 2 l 1,25,-1
 7 2 l 1,26,-1
 9 2 l 1,27,-1
 9 4 l 1,28,-1
 11 4 l 1,29,-1
 13 4 l 1,30,-1
 13 2 l 1,31,-1
 11 2 l 1,32,-1
 11 0 l 1,33,-1
 9 0 l 1,0,-1
EndSplineSet
EndChar

StartChar: d
Encoding: 100 100 69
Width: 15
VWidth: 16
GlyphClass: 2
Flags: W
LayerCount: 2
Fore
SplineSet
11 0 m 1,0,-1
 9 0 l 1,1,-1
 7 0 l 1,2,-1
 5 0 l 1,3,-1
 3 0 l 1,4,-1
 3 2 l 1,5,-1
 1 2 l 1,6,-1
 1 4 l 1,7,-1
 1 6 l 1,8,-1
 1 8 l 1,9,-1
 3 8 l 1,10,-1
 3 10 l 1,11,-1
 5 10 l 1,12,-1
 7 10 l 1,13,-1
 9 10 l 1,14,-1
 9 12 l 1,15,-1
 9 14 l 1,16,-1
 11 14 l 1,17,-1
 13 14 l 1,18,-1
 13 12 l 1,19,-1
 13 10 l 1,20,-1
 13 8 l 1,21,-1
 13 6 l 1,22,-1
 13 4 l 1,23,-1
 13 2 l 1,24,-1
 13 0 l 1,25,-1
 11 0 l 1,0,-1
7 2 m 1,26,-1
 9 2 l 1,27,-1
 9 4 l 1,28,-1
 9 6 l 1,29,-1
 7 6 l 1,30,-1
 7 8 l 1,31,-1
 5 8 l 1,32,-1
 5 6 l 1,33,-1
 5 4 l 1,34,-1
 5 2 l 1,35,-1
 7 2 l 1,26,-1
EndSplineSet
EndChar

StartChar: e
Encoding: 101 101 70
Width: 15
VWidth: 16
GlyphClass: 2
Flags: W
LayerCount: 2
Fore
SplineSet
11 2 m 1,0,-1
 13 2 l 1,1,-1
 13 0 l 1,2,-1
 11 0 l 1,3,-1
 9 0 l 1,4,-1
 7 0 l 1,5,-1
 5 0 l 1,6,-1
 3 0 l 1,7,-1
 3 2 l 1,8,-1
 1 2 l 1,9,-1
 1 4 l 1,10,-1
 1 6 l 1,11,-1
 1 8 l 1,12,-1
 3 8 l 1,13,-1
 3 10 l 1,14,-1
 5 10 l 1,15,-1
 7 10 l 1,16,-1
 9 10 l 1,17,-1
 11 10 l 1,18,-1
 11 8 l 1,19,-1
 13 8 l 1,20,-1
 13 6 l 1,21,-1
 13 4 l 1,22,-1
 11 4 l 1,23,-1
 9 4 l 1,24,-1
 7 4 l 1,25,-1
 5 4 l 1,26,-1
 5 2 l 1,27,-1
 7 2 l 1,28,-1
 9 2 l 1,29,-1
 11 2 l 1,0,-1
7 6 m 1,30,-1
 9 6 l 1,31,-1
 9 8 l 1,32,-1
 7 8 l 1,33,-1
 5 8 l 1,34,-1
 5 6 l 1,35,-1
 7 6 l 1,30,-1
EndSplineSet
EndChar

StartChar: f
Encoding: 102 102 71
Width: 13
VWidth: 16
GlyphClass: 2
Flags: W
LayerCount: 2
Fore
SplineSet
5 0 m 1,0,-1
 3 0 l 1,1,-1
 3 2 l 1,2,-1
 3 4 l 1,3,-1
 3 6 l 1,4,-1
 3 8 l 1,5,-1
 1 8 l 1,6,-1
 1 10 l 1,7,-1
 3 10 l 1,8,-1
 3 12 l 1,9,-1
 5 12 l 1,10,-1
 5 14 l 1,11,-1
 7 14 l 1,12,-1
 9 14 l 1,13,-1
 11 14 l 1,14,-1
 11 12 l 1,15,-1
 9 12 l 1,16,-1
 7 12 l 1,17,-1
 7 10 l 1,18,-1
 9 10 l 1,19,-1
 11 10 l 1,20,-1
 11 8 l 1,21,-1
 9 8 l 1,22,-1
 7 8 l 1,23,-1
 7 6 l 1,24,-1
 7 4 l 1,25,-1
 7 2 l 1,26,-1
 7 0 l 1,27,-1
 5 0 l 1,0,-1
EndSplineSet
EndChar

StartChar: g
Encoding: 103 103 72
Width: 15
VWidth: 16
GlyphClass: 2
Flags: W
LayerCount: 2
Fore
SplineSet
9 -2 m 1,0,-1
 7 -2 l 1,1,-1
 5 -2 l 1,2,-1
 3 -2 l 1,3,-1
 1 -2 l 1,4,-1
 1 0 l 1,5,-1
 3 0 l 1,6,-1
 5 0 l 1,7,-1
 7 0 l 1,8,-1
 9 0 l 1,9,-1
 9 2 l 1,10,-1
 7 2 l 1,11,-1
 5 2 l 1,12,-1
 3 2 l 1,13,-1
 3 4 l 1,14,-1
 1 4 l 1,15,-1
 1 6 l 1,16,-1
 1 8 l 1,17,-1
 3 8 l 1,18,-1
 3 10 l 1,19,-1
 5 10 l 1,20,-1
 7 10 l 1,21,-1
 9 10 l 1,22,-1
 11 10 l 1,23,-1
 13 10 l 1,24,-1
 13 8 l 1,25,-1
 13 6 l 1,26,-1
 13 4 l 1,27,-1
 13 2 l 1,28,-1
 13 0 l 1,29,-1
 11 0 l 1,30,-1
 11 -2 l 1,31,-1
 9 -2 l 1,0,-1
7 4 m 1,32,-1
 9 4 l 1,33,-1
 9 6 l 1,34,-1
 9 8 l 1,35,-1
 7 8 l 1,36,-1
 5 8 l 1,37,-1
 5 6 l 1,38,-1
 5 4 l 1,39,-1
 7 4 l 1,32,-1
EndSplineSet
EndChar

StartChar: h
Encoding: 104 104 73
Width: 15
VWidth: 16
GlyphClass: 2
Flags: W
LayerCount: 2
Fore
SplineSet
11 0 m 1,0,-1
 9 0 l 1,1,-1
 9 2 l 1,2,-1
 9 4 l 1,3,-1
 9 6 l 1,4,-1
 9 8 l 1,5,-1
 7 8 l 1,6,-1
 7 6 l 1,7,-1
 5 6 l 1,8,-1
 5 4 l 1,9,-1
 5 2 l 1,10,-1
 5 0 l 1,11,-1
 3 0 l 1,12,-1
 1 0 l 1,13,-1
 1 2 l 1,14,-1
 1 4 l 1,15,-1
 1 6 l 1,16,-1
 1 8 l 1,17,-1
 1 10 l 1,18,-1
 1 12 l 1,19,-1
 1 14 l 1,20,-1
 3 14 l 1,21,-1
 5 14 l 1,22,-1
 5 12 l 1,23,-1
 5 10 l 1,24,-1
 7 10 l 1,25,-1
 9 10 l 1,26,-1
 11 10 l 1,27,-1
 11 8 l 1,28,-1
 13 8 l 1,29,-1
 13 6 l 1,30,-1
 13 4 l 1,31,-1
 13 2 l 1,32,-1
 13 0 l 1,33,-1
 11 0 l 1,0,-1
EndSplineSet
EndChar

StartChar: i
Encoding: 105 105 74
Width: 7
VWidth: 16
GlyphClass: 2
Flags: W
LayerCount: 2
Fore
SplineSet
3 0 m 1,0,-1
 1 0 l 1,1,-1
 1 2 l 1,2,-1
 1 4 l 1,3,-1
 1 6 l 1,4,-1
 1 8 l 1,5,-1
 1 10 l 1,6,-1
 3 10 l 1,7,-1
 5 10 l 1,8,-1
 5 8 l 1,9,-1
 5 6 l 1,10,-1
 5 4 l 1,11,-1
 5 2 l 1,12,-1
 5 0 l 1,13,-1
 3 0 l 1,0,-1
3 14 m 1,14,-1
 5 14 l 1,15,-1
 5 12 l 1,16,-1
 3 12 l 1,17,-1
 1 12 l 1,18,-1
 1 14 l 1,19,-1
 3 14 l 1,14,-1
EndSplineSet
EndChar

StartChar: j
Encoding: 106 106 75
Width: 15
VWidth: 16
GlyphClass: 2
Flags: W
LayerCount: 2
Fore
SplineSet
9 -2 m 1,0,-1
 7 -2 l 1,1,-1
 5 -2 l 1,2,-1
 3 -2 l 1,3,-1
 3 0 l 1,4,-1
 1 0 l 1,5,-1
 1 2 l 1,6,-1
 1 4 l 1,7,-1
 3 4 l 1,8,-1
 5 4 l 1,9,-1
 5 2 l 1,10,-1
 5 0 l 1,11,-1
 7 0 l 1,12,-1
 9 0 l 1,13,-1
 9 2 l 1,14,-1
 9 4 l 1,15,-1
 9 6 l 1,16,-1
 9 8 l 1,17,-1
 9 10 l 1,18,-1
 11 10 l 1,19,-1
 13 10 l 1,20,-1
 13 8 l 1,21,-1
 13 6 l 1,22,-1
 13 4 l 1,23,-1
 13 2 l 1,24,-1
 13 0 l 1,25,-1
 11 0 l 1,26,-1
 11 -2 l 1,27,-1
 9 -2 l 1,0,-1
11 14 m 1,28,-1
 13 14 l 1,29,-1
 13 12 l 1,30,-1
 11 12 l 1,31,-1
 9 12 l 1,32,-1
 9 14 l 1,33,-1
 11 14 l 1,28,-1
EndSplineSet
EndChar

StartChar: k
Encoding: 107 107 76
Width: 13
VWidth: 16
GlyphClass: 2
Flags: W
LayerCount: 2
Fore
SplineSet
9 0 m 1,0,-1
 7 0 l 1,1,-1
 7 2 l 1,2,-1
 5 2 l 1,3,-1
 5 0 l 1,4,-1
 3 0 l 1,5,-1
 1 0 l 1,6,-1
 1 2 l 1,7,-1
 1 4 l 1,8,-1
 1 6 l 1,9,-1
 1 8 l 1,10,-1
 1 10 l 1,11,-1
 1 12 l 1,12,-1
 1 14 l 1,13,-1
 3 14 l 1,14,-1
 5 14 l 1,15,-1
 5 12 l 1,16,-1
 5 10 l 1,17,-1
 5 8 l 1,18,-1
 7 8 l 1,19,-1
 7 10 l 1,20,-1
 9 10 l 1,21,-1
 11 10 l 1,22,-1
 11 8 l 1,23,-1
 9 8 l 1,24,-1
 9 6 l 1,25,-1
 7 6 l 1,26,-1
 7 4 l 1,27,-1
 9 4 l 1,28,-1
 9 2 l 1,29,-1
 11 2 l 1,30,-1
 11 0 l 1,31,-1
 9 0 l 1,0,-1
EndSplineSet
EndChar

StartChar: l
Encoding: 108 108 77
Width: 9
VWidth: 16
GlyphClass: 2
Flags: W
LayerCount: 2
Fore
SplineSet
5 0 m 1,0,-1
 3 0 l 1,1,-1
 3 2 l 1,2,-1
 1 2 l 1,3,-1
 1 4 l 1,4,-1
 1 6 l 1,5,-1
 1 8 l 1,6,-1
 1 10 l 1,7,-1
 1 12 l 1,8,-1
 1 14 l 1,9,-1
 3 14 l 1,10,-1
 5 14 l 1,11,-1
 5 12 l 1,12,-1
 5 10 l 1,13,-1
 5 8 l 1,14,-1
 5 6 l 1,15,-1
 5 4 l 1,16,-1
 5 2 l 1,17,-1
 7 2 l 1,18,-1
 7 0 l 1,19,-1
 5 0 l 1,0,-1
EndSplineSet
EndChar

StartChar: m
Encoding: 109 109 78
Width: 15
VWidth: 16
GlyphClass: 2
Flags: W
LayerCount: 2
Fore
SplineSet
11 0 m 1,0,-1
 9 0 l 1,1,-1
 9 2 l 1,2,-1
 9 4 l 1,3,-1
 7 4 l 1,4,-1
 5 4 l 1,5,-1
 5 2 l 1,6,-1
 5 0 l 1,7,-1
 3 0 l 1,8,-1
 1 0 l 1,9,-1
 1 2 l 1,10,-1
 1 4 l 1,11,-1
 1 6 l 1,12,-1
 1 8 l 1,13,-1
 1 10 l 1,14,-1
 3 10 l 1,15,-1
 5 10 l 1,16,-1
 7 10 l 1,17,-1
 9 10 l 1,18,-1
 11 10 l 1,19,-1
 11 8 l 1,20,-1
 13 8 l 1,21,-1
 13 6 l 1,22,-1
 13 4 l 1,23,-1
 13 2 l 1,24,-1
 13 0 l 1,25,-1
 11 0 l 1,0,-1
EndSplineSet
EndChar

StartChar: n
Encoding: 110 110 79
Width: 15
VWidth: 16
GlyphClass: 2
Flags: W
LayerCount: 2
Fore
SplineSet
11 0 m 1,0,-1
 9 0 l 1,1,-1
 9 2 l 1,2,-1
 9 4 l 1,3,-1
 9 6 l 1,4,-1
 9 8 l 1,5,-1
 7 8 l 1,6,-1
 5 8 l 1,7,-1
 5 6 l 1,8,-1
 5 4 l 1,9,-1
 5 2 l 1,10,-1
 5 0 l 1,11,-1
 3 0 l 1,12,-1
 1 0 l 1,13,-1
 1 2 l 1,14,-1
 1 4 l 1,15,-1
 1 6 l 1,16,-1
 1 8 l 1,17,-1
 1 10 l 1,18,-1
 3 10 l 1,19,-1
 5 10 l 1,20,-1
 7 10 l 1,21,-1
 9 10 l 1,22,-1
 11 10 l 1,23,-1
 11 8 l 1,24,-1
 13 8 l 1,25,-1
 13 6 l 1,26,-1
 13 4 l 1,27,-1
 13 2 l 1,28,-1
 13 0 l 1,29,-1
 11 0 l 1,0,-1
EndSplineSet
EndChar

StartChar: o
Encoding: 111 111 80
Width: 15
VWidth: 16
GlyphClass: 2
Flags: W
LayerCount: 2
Fore
SplineSet
9 0 m 1,0,-1
 7 0 l 1,1,-1
 5 0 l 1,2,-1
 3 0 l 1,3,-1
 3 2 l 1,4,-1
 1 2 l 1,5,-1
 1 4 l 1,6,-1
 1 6 l 1,7,-1
 1 8 l 1,8,-1
 3 8 l 1,9,-1
 3 10 l 1,10,-1
 5 10 l 1,11,-1
 7 10 l 1,12,-1
 9 10 l 1,13,-1
 11 10 l 1,14,-1
 11 8 l 1,15,-1
 13 8 l 1,16,-1
 13 6 l 1,17,-1
 13 4 l 1,18,-1
 13 2 l 1,19,-1
 11 2 l 1,20,-1
 11 0 l 1,21,-1
 9 0 l 1,0,-1
7 2 m 1,22,-1
 9 2 l 1,23,-1
 9 4 l 1,24,-1
 9 6 l 1,25,-1
 9 8 l 1,26,-1
 7 8 l 1,27,-1
 5 8 l 1,28,-1
 5 6 l 1,29,-1
 5 4 l 1,30,-1
 5 2 l 1,31,-1
 7 2 l 1,22,-1
EndSplineSet
EndChar

StartChar: p
Encoding: 112 112 81
Width: 15
VWidth: 16
GlyphClass: 2
Flags: W
LayerCount: 2
Fore
SplineSet
3 -2 m 1,0,-1
 1 -2 l 1,1,-1
 1 0 l 1,2,-1
 1 2 l 1,3,-1
 1 4 l 1,4,-1
 1 6 l 1,5,-1
 1 8 l 1,6,-1
 1 10 l 1,7,-1
 3 10 l 1,8,-1
 5 10 l 1,9,-1
 7 10 l 1,10,-1
 9 10 l 1,11,-1
 11 10 l 1,12,-1
 11 8 l 1,13,-1
 13 8 l 1,14,-1
 13 6 l 1,15,-1
 13 4 l 1,16,-1
 11 4 l 1,17,-1
 11 2 l 1,18,-1
 9 2 l 1,19,-1
 7 2 l 1,20,-1
 5 2 l 1,21,-1
 5 0 l 1,22,-1
 5 -2 l 1,23,-1
 3 -2 l 1,0,-1
7 4 m 1,24,-1
 9 4 l 1,25,-1
 9 6 l 1,26,-1
 9 8 l 1,27,-1
 7 8 l 1,28,-1
 7 6 l 1,29,-1
 5 6 l 1,30,-1
 5 4 l 1,31,-1
 7 4 l 1,24,-1
EndSplineSet
EndChar

StartChar: q
Encoding: 113 113 82
Width: 15
VWidth: 16
GlyphClass: 2
Flags: W
LayerCount: 2
Fore
SplineSet
11 -2 m 1,0,-1
 9 -2 l 1,1,-1
 9 0 l 1,2,-1
 9 2 l 1,3,-1
 7 2 l 1,4,-1
 5 2 l 1,5,-1
 3 2 l 1,6,-1
 3 4 l 1,7,-1
 1 4 l 1,8,-1
 1 6 l 1,9,-1
 1 8 l 1,10,-1
 3 8 l 1,11,-1
 3 10 l 1,12,-1
 5 10 l 1,13,-1
 7 10 l 1,14,-1
 9 10 l 1,15,-1
 11 10 l 1,16,-1
 13 10 l 1,17,-1
 13 8 l 1,18,-1
 13 6 l 1,19,-1
 13 4 l 1,20,-1
 13 2 l 1,21,-1
 13 0 l 1,22,-1
 13 -2 l 1,23,-1
 11 -2 l 1,0,-1
7 4 m 1,24,-1
 9 4 l 1,25,-1
 9 6 l 1,26,-1
 7 6 l 1,27,-1
 7 8 l 1,28,-1
 5 8 l 1,29,-1
 5 6 l 1,30,-1
 5 4 l 1,31,-1
 7 4 l 1,24,-1
EndSplineSet
EndChar

StartChar: r
Encoding: 114 114 83
Width: 15
VWidth: 16
GlyphClass: 2
Flags: W
LayerCount: 2
Fore
SplineSet
3 0 m 1,0,-1
 1 0 l 1,1,-1
 1 2 l 1,2,-1
 1 4 l 1,3,-1
 1 6 l 1,4,-1
 1 8 l 1,5,-1
 1 10 l 1,6,-1
 3 10 l 1,7,-1
 5 10 l 1,8,-1
 7 10 l 1,9,-1
 9 10 l 1,10,-1
 11 10 l 1,11,-1
 11 8 l 1,12,-1
 13 8 l 1,13,-1
 13 6 l 1,14,-1
 11 6 l 1,15,-1
 9 6 l 1,16,-1
 9 8 l 1,17,-1
 7 8 l 1,18,-1
 7 6 l 1,19,-1
 5 6 l 1,20,-1
 5 4 l 1,21,-1
 5 2 l 1,22,-1
 5 0 l 1,23,-1
 3 0 l 1,0,-1
EndSplineSet
EndChar

StartChar: s
Encoding: 115 115 84
Width: 15
VWidth: 16
GlyphClass: 2
Flags: W
LayerCount: 2
Fore
SplineSet
9 0 m 1,0,-1
 7 0 l 1,1,-1
 5 0 l 1,2,-1
 3 0 l 1,3,-1
 1 0 l 1,4,-1
 1 2 l 1,5,-1
 3 2 l 1,6,-1
 5 2 l 1,7,-1
 7 2 l 1,8,-1
 9 2 l 1,9,-1
 9 4 l 1,10,-1
 7 4 l 1,11,-1
 5 4 l 1,12,-1
 3 4 l 1,13,-1
 3 6 l 1,14,-1
 1 6 l 1,15,-1
 1 8 l 1,16,-1
 3 8 l 1,17,-1
 3 10 l 1,18,-1
 5 10 l 1,19,-1
 7 10 l 1,20,-1
 9 10 l 1,21,-1
 11 10 l 1,22,-1
 13 10 l 1,23,-1
 13 8 l 1,24,-1
 11 8 l 1,25,-1
 9 8 l 1,26,-1
 7 8 l 1,27,-1
 5 8 l 1,28,-1
 5 6 l 1,29,-1
 7 6 l 1,30,-1
 9 6 l 1,31,-1
 11 6 l 1,32,-1
 11 4 l 1,33,-1
 13 4 l 1,34,-1
 13 2 l 1,35,-1
 11 2 l 1,36,-1
 11 0 l 1,37,-1
 9 0 l 1,0,-1
EndSplineSet
EndChar

StartChar: t
Encoding: 116 116 85
Width: 11
VWidth: 16
GlyphClass: 2
Flags: W
LayerCount: 2
Fore
SplineSet
7 0 m 1,0,-1
 5 0 l 1,1,-1
 5 2 l 1,2,-1
 3 2 l 1,3,-1
 3 4 l 1,4,-1
 3 6 l 1,5,-1
 3 8 l 1,6,-1
 1 8 l 1,7,-1
 1 10 l 1,8,-1
 3 10 l 1,9,-1
 3 12 l 1,10,-1
 3 14 l 1,11,-1
 5 14 l 1,12,-1
 7 14 l 1,13,-1
 7 12 l 1,14,-1
 7 10 l 1,15,-1
 9 10 l 1,16,-1
 9 8 l 1,17,-1
 7 8 l 1,18,-1
 7 6 l 1,19,-1
 7 4 l 1,20,-1
 7 2 l 1,21,-1
 9 2 l 1,22,-1
 9 0 l 1,23,-1
 7 0 l 1,0,-1
EndSplineSet
EndChar

StartChar: u
Encoding: 117 117 86
Width: 15
VWidth: 16
GlyphClass: 2
Flags: W
LayerCount: 2
Fore
SplineSet
11 0 m 1,0,-1
 9 0 l 1,1,-1
 7 0 l 1,2,-1
 5 0 l 1,3,-1
 3 0 l 1,4,-1
 3 2 l 1,5,-1
 1 2 l 1,6,-1
 1 4 l 1,7,-1
 1 6 l 1,8,-1
 1 8 l 1,9,-1
 1 10 l 1,10,-1
 3 10 l 1,11,-1
 5 10 l 1,12,-1
 5 8 l 1,13,-1
 5 6 l 1,14,-1
 5 4 l 1,15,-1
 5 2 l 1,16,-1
 7 2 l 1,17,-1
 9 2 l 1,18,-1
 9 4 l 1,19,-1
 9 6 l 1,20,-1
 9 8 l 1,21,-1
 9 10 l 1,22,-1
 11 10 l 1,23,-1
 13 10 l 1,24,-1
 13 8 l 1,25,-1
 13 6 l 1,26,-1
 13 4 l 1,27,-1
 13 2 l 1,28,-1
 13 0 l 1,29,-1
 11 0 l 1,0,-1
EndSplineSet
EndChar

StartChar: v
Encoding: 118 118 87
Width: 15
VWidth: 16
GlyphClass: 2
Flags: W
LayerCount: 2
Fore
SplineSet
7 0 m 1,0,-1
 5 0 l 1,1,-1
 5 2 l 1,2,-1
 3 2 l 1,3,-1
 3 4 l 1,4,-1
 1 4 l 1,5,-1
 1 6 l 1,6,-1
 1 8 l 1,7,-1
 1 10 l 1,8,-1
 3 10 l 1,9,-1
 5 10 l 1,10,-1
 5 8 l 1,11,-1
 5 6 l 1,12,-1
 5 4 l 1,13,-1
 7 4 l 1,14,-1
 9 4 l 1,15,-1
 9 6 l 1,16,-1
 9 8 l 1,17,-1
 9 10 l 1,18,-1
 11 10 l 1,19,-1
 13 10 l 1,20,-1
 13 8 l 1,21,-1
 13 6 l 1,22,-1
 13 4 l 1,23,-1
 11 4 l 1,24,-1
 11 2 l 1,25,-1
 9 2 l 1,26,-1
 9 0 l 1,27,-1
 7 0 l 1,0,-1
EndSplineSet
EndChar

StartChar: w
Encoding: 119 119 88
Width: 15
VWidth: 16
GlyphClass: 2
Flags: W
LayerCount: 2
Fore
SplineSet
11 0 m 1,0,-1
 9 0 l 1,1,-1
 7 0 l 1,2,-1
 5 0 l 1,3,-1
 3 0 l 1,4,-1
 3 2 l 1,5,-1
 1 2 l 1,6,-1
 1 4 l 1,7,-1
 1 6 l 1,8,-1
 1 8 l 1,9,-1
 1 10 l 1,10,-1
 3 10 l 1,11,-1
 5 10 l 1,12,-1
 5 8 l 1,13,-1
 5 6 l 1,14,-1
 7 6 l 1,15,-1
 9 6 l 1,16,-1
 9 8 l 1,17,-1
 9 10 l 1,18,-1
 11 10 l 1,19,-1
 13 10 l 1,20,-1
 13 8 l 1,21,-1
 13 6 l 1,22,-1
 13 4 l 1,23,-1
 13 2 l 1,24,-1
 13 0 l 1,25,-1
 11 0 l 1,0,-1
EndSplineSet
EndChar

StartChar: x
Encoding: 120 120 89
Width: 15
VWidth: 16
GlyphClass: 2
Flags: W
LayerCount: 2
Fore
SplineSet
11 0 m 1,0,-1
 9 0 l 1,1,-1
 9 2 l 1,2,-1
 7 2 l 1,3,-1
 5 2 l 1,4,-1
 5 0 l 1,5,-1
 3 0 l 1,6,-1
 1 0 l 1,7,-1
 1 2 l 1,8,-1
 3 2 l 1,9,-1
 3 4 l 1,10,-1
 5 4 l 1,11,-1
 5 6 l 1,12,-1
 3 6 l 1,13,-1
 3 8 l 1,14,-1
 1 8 l 1,15,-1
 1 10 l 1,16,-1
 3 10 l 1,17,-1
 5 10 l 1,18,-1
 5 8 l 1,19,-1
 7 8 l 1,20,-1
 9 8 l 1,21,-1
 9 10 l 1,22,-1
 11 10 l 1,23,-1
 13 10 l 1,24,-1
 13 8 l 1,25,-1
 11 8 l 1,26,-1
 11 6 l 1,27,-1
 9 6 l 1,28,-1
 9 4 l 1,29,-1
 11 4 l 1,30,-1
 11 2 l 1,31,-1
 13 2 l 1,32,-1
 13 0 l 1,33,-1
 11 0 l 1,0,-1
EndSplineSet
EndChar

StartChar: y
Encoding: 121 121 90
Width: 15
VWidth: 16
GlyphClass: 2
Flags: W
LayerCount: 2
Fore
SplineSet
9 -2 m 1,0,-1
 7 -2 l 1,1,-1
 5 -2 l 1,2,-1
 3 -2 l 1,3,-1
 1 -2 l 1,4,-1
 1 0 l 1,5,-1
 3 0 l 1,6,-1
 5 0 l 1,7,-1
 7 0 l 1,8,-1
 9 0 l 1,9,-1
 9 2 l 1,10,-1
 7 2 l 1,11,-1
 5 2 l 1,12,-1
 3 2 l 1,13,-1
 3 4 l 1,14,-1
 1 4 l 1,15,-1
 1 6 l 1,16,-1
 1 8 l 1,17,-1
 1 10 l 1,18,-1
 3 10 l 1,19,-1
 5 10 l 1,20,-1
 5 8 l 1,21,-1
 5 6 l 1,22,-1
 5 4 l 1,23,-1
 7 4 l 1,24,-1
 9 4 l 1,25,-1
 9 6 l 1,26,-1
 9 8 l 1,27,-1
 9 10 l 1,28,-1
 11 10 l 1,29,-1
 13 10 l 1,30,-1
 13 8 l 1,31,-1
 13 6 l 1,32,-1
 13 4 l 1,33,-1
 13 2 l 1,34,-1
 13 0 l 1,35,-1
 11 0 l 1,36,-1
 11 -2 l 1,37,-1
 9 -2 l 1,0,-1
EndSplineSet
EndChar

StartChar: z
Encoding: 122 122 91
Width: 15
VWidth: 16
GlyphClass: 2
Flags: W
LayerCount: 2
Fore
SplineSet
11 2 m 1,0,-1
 13 2 l 1,1,-1
 13 0 l 1,2,-1
 11 0 l 1,3,-1
 9 0 l 1,4,-1
 7 0 l 1,5,-1
 5 0 l 1,6,-1
 3 0 l 1,7,-1
 1 0 l 1,8,-1
 1 2 l 1,9,-1
 3 2 l 1,10,-1
 3 4 l 1,11,-1
 5 4 l 1,12,-1
 5 6 l 1,13,-1
 7 6 l 1,14,-1
 7 8 l 1,15,-1
 5 8 l 1,16,-1
 3 8 l 1,17,-1
 1 8 l 1,18,-1
 1 10 l 1,19,-1
 3 10 l 1,20,-1
 5 10 l 1,21,-1
 7 10 l 1,22,-1
 9 10 l 1,23,-1
 11 10 l 1,24,-1
 13 10 l 1,25,-1
 13 8 l 1,26,-1
 11 8 l 1,27,-1
 11 6 l 1,28,-1
 9 6 l 1,29,-1
 9 4 l 1,30,-1
 7 4 l 1,31,-1
 7 2 l 1,32,-1
 9 2 l 1,33,-1
 11 2 l 1,0,-1
EndSplineSet
EndChar

StartChar: braceleft
Encoding: 123 123 92
Width: 11
VWidth: 16
GlyphClass: 2
Flags: W
LayerCount: 2
Fore
SplineSet
7 0 m 1,0,-1
 5 0 l 1,1,-1
 5 2 l 1,2,-1
 3 2 l 1,3,-1
 3 4 l 1,4,-1
 3 6 l 1,5,-1
 1 6 l 1,6,-1
 1 8 l 1,7,-1
 3 8 l 1,8,-1
 3 10 l 1,9,-1
 3 12 l 1,10,-1
 5 12 l 1,11,-1
 5 14 l 1,12,-1
 7 14 l 1,13,-1
 9 14 l 1,14,-1
 9 12 l 1,15,-1
 7 12 l 1,16,-1
 7 10 l 1,17,-1
 7 8 l 1,18,-1
 5 8 l 1,19,-1
 5 6 l 1,20,-1
 7 6 l 1,21,-1
 7 4 l 1,22,-1
 7 2 l 1,23,-1
 9 2 l 1,24,-1
 9 0 l 1,25,-1
 7 0 l 1,0,-1
EndSplineSet
EndChar

StartChar: bar
Encoding: 124 124 93
Width: 7
VWidth: 16
GlyphClass: 2
Flags: W
LayerCount: 2
Fore
SplineSet
3 0 m 1,0,-1
 1 0 l 1,1,-1
 1 2 l 1,2,-1
 1 4 l 1,3,-1
 1 6 l 1,4,-1
 1 8 l 1,5,-1
 1 10 l 1,6,-1
 1 12 l 1,7,-1
 1 14 l 1,8,-1
 3 14 l 1,9,-1
 5 14 l 1,10,-1
 5 12 l 1,11,-1
 5 10 l 1,12,-1
 5 8 l 1,13,-1
 5 6 l 1,14,-1
 5 4 l 1,15,-1
 5 2 l 1,16,-1
 5 0 l 1,17,-1
 3 0 l 1,0,-1
EndSplineSet
EndChar

StartChar: braceright
Encoding: 125 125 94
Width: 11
VWidth: 16
GlyphClass: 2
Flags: W
LayerCount: 2
Fore
SplineSet
3 0 m 1,0,-1
 1 0 l 1,1,-1
 1 2 l 1,2,-1
 3 2 l 1,3,-1
 3 4 l 1,4,-1
 3 6 l 1,5,-1
 5 6 l 1,6,-1
 5 8 l 1,7,-1
 3 8 l 1,8,-1
 3 10 l 1,9,-1
 3 12 l 1,10,-1
 1 12 l 1,11,-1
 1 14 l 1,12,-1
 3 14 l 1,13,-1
 5 14 l 1,14,-1
 5 12 l 1,15,-1
 7 12 l 1,16,-1
 7 10 l 1,17,-1
 7 8 l 1,18,-1
 9 8 l 1,19,-1
 9 6 l 1,20,-1
 7 6 l 1,21,-1
 7 4 l 1,22,-1
 7 2 l 1,23,-1
 5 2 l 1,24,-1
 5 0 l 1,25,-1
 3 0 l 1,0,-1
EndSplineSet
EndChar

StartChar: asciitilde
Encoding: 126 126 95
Width: 17
VWidth: 16
GlyphClass: 2
Flags: W
LayerCount: 2
Fore
SplineSet
11 10 m 1,0,-1
 9 10 l 1,1,-1
 7 10 l 1,2,-1
 7 12 l 1,3,-1
 5 12 l 1,4,-1
 5 10 l 1,5,-1
 3 10 l 1,6,-1
 1 10 l 1,7,-1
 1 12 l 1,8,-1
 3 12 l 1,9,-1
 3 14 l 1,10,-1
 5 14 l 1,11,-1
 7 14 l 1,12,-1
 9 14 l 1,13,-1
 9 12 l 1,14,-1
 11 12 l 1,15,-1
 11 14 l 1,16,-1
 13 14 l 1,17,-1
 15 14 l 1,18,-1
 15 12 l 1,19,-1
 13 12 l 1,20,-1
 13 10 l 1,21,-1
 11 10 l 1,0,-1
EndSplineSet
EndChar

StartChar: exclamdown
Encoding: 161 161 97
Width: 7
VWidth: 16
GlyphClass: 2
Flags: W
LayerCount: 2
Fore
SplineSet
3 -2 m 1,0,-1
 1 -2 l 1,1,-1
 1 0 l 1,2,-1
 1 2 l 1,3,-1
 1 4 l 1,4,-1
 1 6 l 1,5,-1
 1 8 l 1,6,-1
 3 8 l 1,7,-1
 5 8 l 1,8,-1
 5 6 l 1,9,-1
 5 4 l 1,10,-1
 5 2 l 1,11,-1
 5 0 l 1,12,-1
 5 -2 l 1,13,-1
 3 -2 l 1,0,-1
3 12 m 1,14,-1
 5 12 l 1,15,-1
 5 10 l 1,16,-1
 3 10 l 1,17,-1
 1 10 l 1,18,-1
 1 12 l 1,19,-1
 3 12 l 1,14,-1
EndSplineSet
EndChar

StartChar: cent
Encoding: 162 162 98
Width: 15
VWidth: 16
GlyphClass: 2
Flags: W
LayerCount: 2
Fore
SplineSet
7 -2 m 1,0,-1
 5 -2 l 1,1,-1
 5 0 l 1,2,-1
 3 0 l 1,3,-1
 3 2 l 1,4,-1
 1 2 l 1,5,-1
 1 4 l 1,6,-1
 1 6 l 1,7,-1
 1 8 l 1,8,-1
 3 8 l 1,9,-1
 3 10 l 1,10,-1
 5 10 l 1,11,-1
 5 12 l 1,12,-1
 7 12 l 1,13,-1
 9 12 l 1,14,-1
 9 10 l 1,15,-1
 11 10 l 1,16,-1
 11 8 l 1,17,-1
 13 8 l 1,18,-1
 13 6 l 1,19,-1
 11 6 l 1,20,-1
 9 6 l 1,21,-1
 9 8 l 1,22,-1
 7 8 l 1,23,-1
 5 8 l 1,24,-1
 5 6 l 1,25,-1
 5 4 l 1,26,-1
 5 2 l 1,27,-1
 7 2 l 1,28,-1
 9 2 l 1,29,-1
 9 4 l 1,30,-1
 11 4 l 1,31,-1
 13 4 l 1,32,-1
 13 2 l 1,33,-1
 11 2 l 1,34,-1
 11 0 l 1,35,-1
 9 0 l 1,36,-1
 9 -2 l 1,37,-1
 7 -2 l 1,0,-1
EndSplineSet
EndChar

StartChar: sterling
Encoding: 163 163 99
Width: 15
VWidth: 16
GlyphClass: 2
Flags: W
LayerCount: 2
Fore
SplineSet
11 2 m 1,0,-1
 13 2 l 1,1,-1
 13 0 l 1,2,-1
 11 0 l 1,3,-1
 9 0 l 1,4,-1
 7 0 l 1,5,-1
 5 0 l 1,6,-1
 3 0 l 1,7,-1
 1 0 l 1,8,-1
 1 2 l 1,9,-1
 3 2 l 1,10,-1
 3 4 l 1,11,-1
 3 6 l 1,12,-1
 1 6 l 1,13,-1
 1 8 l 1,14,-1
 3 8 l 1,15,-1
 3 10 l 1,16,-1
 3 12 l 1,17,-1
 5 12 l 1,18,-1
 5 14 l 1,19,-1
 7 14 l 1,20,-1
 9 14 l 1,21,-1
 11 14 l 1,22,-1
 11 12 l 1,23,-1
 13 12 l 1,24,-1
 13 10 l 1,25,-1
 11 10 l 1,26,-1
 9 10 l 1,27,-1
 9 12 l 1,28,-1
 7 12 l 1,29,-1
 7 10 l 1,30,-1
 7 8 l 1,31,-1
 9 8 l 1,32,-1
 11 8 l 1,33,-1
 11 6 l 1,34,-1
 9 6 l 1,35,-1
 7 6 l 1,36,-1
 7 4 l 1,37,-1
 7 2 l 1,38,-1
 9 2 l 1,39,-1
 11 2 l 1,0,-1
EndSplineSet
EndChar

StartChar: currency
Encoding: 164 164 100
Width: 19
VWidth: 16
GlyphClass: 2
Flags: W
LayerCount: 2
Fore
SplineSet
15 0 m 1,0,-1
 13 0 l 1,1,-1
 11 0 l 1,2,-1
 9 0 l 1,3,-1
 7 0 l 1,4,-1
 5 0 l 1,5,-1
 3 0 l 1,6,-1
 1 0 l 1,7,-1
 1 2 l 1,8,-1
 3 2 l 1,9,-1
 3 4 l 1,10,-1
 3 6 l 1,11,-1
 3 8 l 1,12,-1
 1 8 l 1,13,-1
 1 10 l 1,14,-1
 3 10 l 1,15,-1
 5 10 l 1,16,-1
 7 10 l 1,17,-1
 9 10 l 1,18,-1
 11 10 l 1,19,-1
 13 10 l 1,20,-1
 15 10 l 1,21,-1
 17 10 l 1,22,-1
 17 8 l 1,23,-1
 15 8 l 1,24,-1
 15 6 l 1,25,-1
 15 4 l 1,26,-1
 15 2 l 1,27,-1
 17 2 l 1,28,-1
 17 0 l 1,29,-1
 15 0 l 1,0,-1
9 2 m 1,30,-1
 11 2 l 1,31,-1
 11 4 l 1,32,-1
 11 6 l 1,33,-1
 11 8 l 1,34,-1
 9 8 l 1,35,-1
 7 8 l 1,36,-1
 7 6 l 1,37,-1
 7 4 l 1,38,-1
 7 2 l 1,39,-1
 9 2 l 1,30,-1
EndSplineSet
EndChar

StartChar: yen
Encoding: 165 165 101
Width: 15
VWidth: 16
GlyphClass: 2
Flags: W
LayerCount: 2
Fore
SplineSet
7 0 m 1,0,-1
 5 0 l 1,1,-1
 5 2 l 1,2,-1
 3 2 l 1,3,-1
 1 2 l 1,4,-1
 1 4 l 1,5,-1
 3 4 l 1,6,-1
 5 4 l 1,7,-1
 5 6 l 1,8,-1
 3 6 l 1,9,-1
 1 6 l 1,10,-1
 1 8 l 1,11,-1
 3 8 l 1,12,-1
 5 8 l 1,13,-1
 5 10 l 1,14,-1
 3 10 l 1,15,-1
 3 12 l 1,16,-1
 1 12 l 1,17,-1
 1 14 l 1,18,-1
 3 14 l 1,19,-1
 5 14 l 1,20,-1
 5 12 l 1,21,-1
 7 12 l 1,22,-1
 9 12 l 1,23,-1
 9 14 l 1,24,-1
 11 14 l 1,25,-1
 13 14 l 1,26,-1
 13 12 l 1,27,-1
 11 12 l 1,28,-1
 11 10 l 1,29,-1
 9 10 l 1,30,-1
 9 8 l 1,31,-1
 11 8 l 1,32,-1
 13 8 l 1,33,-1
 13 6 l 1,34,-1
 11 6 l 1,35,-1
 9 6 l 1,36,-1
 9 4 l 1,37,-1
 11 4 l 1,38,-1
 13 4 l 1,39,-1
 13 2 l 1,40,-1
 11 2 l 1,41,-1
 9 2 l 1,42,-1
 9 0 l 1,43,-1
 7 0 l 1,0,-1
EndSplineSet
EndChar

StartChar: brokenbar
Encoding: 166 166 102
Width: 7
VWidth: 16
GlyphClass: 2
Flags: W
LayerCount: 2
Fore
SplineSet
3 0 m 1,0,-1
 1 0 l 1,1,-1
 1 2 l 1,2,-1
 1 4 l 1,3,-1
 1 6 l 1,4,-1
 3 6 l 1,5,-1
 5 6 l 1,6,-1
 5 4 l 1,7,-1
 5 2 l 1,8,-1
 5 0 l 1,9,-1
 3 0 l 1,0,-1
3 8 m 1,10,-1
 1 8 l 1,11,-1
 1 10 l 1,12,-1
 1 12 l 1,13,-1
 1 14 l 1,14,-1
 3 14 l 1,15,-1
 5 14 l 1,16,-1
 5 12 l 1,17,-1
 5 10 l 1,18,-1
 5 8 l 1,19,-1
 3 8 l 1,10,-1
EndSplineSet
EndChar

StartChar: section
Encoding: 167 167 103
Width: 15
VWidth: 16
GlyphClass: 2
Flags: W
LayerCount: 2
Fore
SplineSet
9 0 m 1,0,-1
 7 0 l 1,1,-1
 5 0 l 1,2,-1
 3 0 l 1,3,-1
 1 0 l 1,4,-1
 1 2 l 1,5,-1
 3 2 l 1,6,-1
 5 2 l 1,7,-1
 7 2 l 1,8,-1
 9 2 l 1,9,-1
 9 4 l 1,10,-1
 7 4 l 1,11,-1
 5 4 l 1,12,-1
 3 4 l 1,13,-1
 3 6 l 1,14,-1
 1 6 l 1,15,-1
 1 8 l 1,16,-1
 3 8 l 1,17,-1
 3 10 l 1,18,-1
 1 10 l 1,19,-1
 1 12 l 1,20,-1
 3 12 l 1,21,-1
 3 14 l 1,22,-1
 5 14 l 1,23,-1
 7 14 l 1,24,-1
 9 14 l 1,25,-1
 11 14 l 1,26,-1
 13 14 l 1,27,-1
 13 12 l 1,28,-1
 11 12 l 1,29,-1
 9 12 l 1,30,-1
 7 12 l 1,31,-1
 5 12 l 1,32,-1
 5 10 l 1,33,-1
 7 10 l 1,34,-1
 9 10 l 1,35,-1
 11 10 l 1,36,-1
 11 8 l 1,37,-1
 13 8 l 1,38,-1
 13 6 l 1,39,-1
 11 6 l 1,40,-1
 11 4 l 1,41,-1
 13 4 l 1,42,-1
 13 2 l 1,43,-1
 11 2 l 1,44,-1
 11 0 l 1,45,-1
 9 0 l 1,0,-1
7 6 m 1,46,-1
 9 6 l 1,47,-1
 9 8 l 1,48,-1
 7 8 l 1,49,-1
 5 8 l 1,50,-1
 5 6 l 1,51,-1
 7 6 l 1,46,-1
EndSplineSet
EndChar

StartChar: dieresis
Encoding: 168 168 104
Width: 11
VWidth: 16
GlyphClass: 2
Flags: W
LayerCount: 2
Fore
SplineSet
7 14 m 1,0,-1
 9 14 l 1,1,-1
 9 12 l 1,2,-1
 7 12 l 1,3,-1
 5 12 l 1,4,-1
 3 12 l 1,5,-1
 1 12 l 1,6,-1
 1 14 l 1,7,-1
 3 14 l 1,8,-1
 5 14 l 1,9,-1
 7 14 l 1,0,-1
EndSplineSet
EndChar

StartChar: copyright
Encoding: 169 169 105
Width: 19
VWidth: 16
GlyphClass: 2
Flags: W
LayerCount: 2
Fore
SplineSet
11 0 m 1,0,-1
 9 0 l 1,1,-1
 7 0 l 1,2,-1
 5 0 l 1,3,-1
 5 2 l 1,4,-1
 3 2 l 1,5,-1
 3 4 l 1,6,-1
 1 4 l 1,7,-1
 1 6 l 1,8,-1
 1 8 l 1,9,-1
 1 10 l 1,10,-1
 3 10 l 1,11,-1
 3 12 l 1,12,-1
 5 12 l 1,13,-1
 5 14 l 1,14,-1
 7 14 l 1,15,-1
 9 14 l 1,16,-1
 11 14 l 1,17,-1
 13 14 l 1,18,-1
 13 12 l 1,19,-1
 15 12 l 1,20,-1
 15 10 l 1,21,-1
 17 10 l 1,22,-1
 17 8 l 1,23,-1
 17 6 l 1,24,-1
 17 4 l 1,25,-1
 15 4 l 1,26,-1
 15 2 l 1,27,-1
 13 2 l 1,28,-1
 13 0 l 1,29,-1
 11 0 l 1,0,-1
9 2 m 1,30,-1
 11 2 l 1,31,-1
 11 4 l 1,32,-1
 9 4 l 1,33,-1
 7 4 l 1,34,-1
 7 2 l 1,35,-1
 9 2 l 1,30,-1
11 6 m 1,36,-1
 13 6 l 1,37,-1
 13 8 l 1,38,-1
 11 8 l 1,39,-1
 9 8 l 1,40,-1
 9 6 l 1,41,-1
 11 6 l 1,36,-1
9 10 m 1,42,-1
 11 10 l 1,43,-1
 11 12 l 1,44,-1
 9 12 l 1,45,-1
 7 12 l 1,46,-1
 7 10 l 1,47,-1
 9 10 l 1,42,-1
EndSplineSet
EndChar

StartChar: ordfeminine
Encoding: 170 170 106
Width: 13
VWidth: 16
GlyphClass: 2
Flags: W
LayerCount: 2
Fore
SplineSet
9 4 m 1,0,-1
 11 4 l 1,1,-1
 11 2 l 1,2,-1
 9 2 l 1,3,-1
 7 2 l 1,4,-1
 5 2 l 1,5,-1
 3 2 l 1,6,-1
 1 2 l 1,7,-1
 1 4 l 1,8,-1
 3 4 l 1,9,-1
 5 4 l 1,10,-1
 7 4 l 1,11,-1
 9 4 l 1,0,-1
9 6 m 1,12,-1
 7 6 l 1,13,-1
 5 6 l 1,14,-1
 3 6 l 1,15,-1
 3 8 l 1,16,-1
 1 8 l 1,17,-1
 1 10 l 1,18,-1
 3 10 l 1,19,-1
 5 10 l 1,20,-1
 7 10 l 1,21,-1
 7 12 l 1,22,-1
 5 12 l 1,23,-1
 3 12 l 1,24,-1
 3 14 l 1,25,-1
 5 14 l 1,26,-1
 7 14 l 1,27,-1
 9 14 l 1,28,-1
 9 12 l 1,29,-1
 11 12 l 1,30,-1
 11 10 l 1,31,-1
 11 8 l 1,32,-1
 11 6 l 1,33,-1
 9 6 l 1,12,-1
EndSplineSet
EndChar

StartChar: guillemotleft
Encoding: 171 171 107
Width: 17
VWidth: 16
GlyphClass: 2
Flags: W
LayerCount: 2
Fore
SplineSet
13 2 m 1,0,-1
 11 2 l 1,1,-1
 11 4 l 1,2,-1
 9 4 l 1,3,-1
 9 6 l 1,4,-1
 7 6 l 1,5,-1
 7 4 l 1,6,-1
 9 4 l 1,7,-1
 9 2 l 1,8,-1
 7 2 l 1,9,-1
 5 2 l 1,10,-1
 5 4 l 1,11,-1
 3 4 l 1,12,-1
 3 6 l 1,13,-1
 1 6 l 1,14,-1
 1 8 l 1,15,-1
 3 8 l 1,16,-1
 3 10 l 1,17,-1
 5 10 l 1,18,-1
 5 12 l 1,19,-1
 7 12 l 1,20,-1
 9 12 l 1,21,-1
 9 10 l 1,22,-1
 7 10 l 1,23,-1
 7 8 l 1,24,-1
 5 8 l 1,25,-1
 5 6 l 1,26,-1
 7 6 l 1,27,-1
 7 8 l 1,28,-1
 9 8 l 1,29,-1
 9 10 l 1,30,-1
 11 10 l 1,31,-1
 11 12 l 1,32,-1
 13 12 l 1,33,-1
 15 12 l 1,34,-1
 15 10 l 1,35,-1
 13 10 l 1,36,-1
 13 8 l 1,37,-1
 11 8 l 1,38,-1
 11 6 l 1,39,-1
 13 6 l 1,40,-1
 13 4 l 1,41,-1
 15 4 l 1,42,-1
 15 2 l 1,43,-1
 13 2 l 1,0,-1
EndSplineSet
EndChar

StartChar: logicalnot
Encoding: 172 172 108
Width: 15
VWidth: 16
GlyphClass: 2
Flags: W
LayerCount: 2
Fore
SplineSet
11 2 m 1,0,-1
 9 2 l 1,1,-1
 9 4 l 1,2,-1
 9 6 l 1,3,-1
 7 6 l 1,4,-1
 5 6 l 1,5,-1
 3 6 l 1,6,-1
 1 6 l 1,7,-1
 1 8 l 1,8,-1
 3 8 l 1,9,-1
 5 8 l 1,10,-1
 7 8 l 1,11,-1
 9 8 l 1,12,-1
 11 8 l 1,13,-1
 13 8 l 1,14,-1
 13 6 l 1,15,-1
 13 4 l 1,16,-1
 13 2 l 1,17,-1
 11 2 l 1,0,-1
EndSplineSet
EndChar

StartChar: registered
Encoding: 174 174 109
Width: 19
VWidth: 16
GlyphClass: 2
Flags: W
LayerCount: 2
Fore
SplineSet
11 0 m 1,0,-1
 9 0 l 1,1,-1
 7 0 l 1,2,-1
 5 0 l 1,3,-1
 5 2 l 1,4,-1
 3 2 l 1,5,-1
 3 4 l 1,6,-1
 1 4 l 1,7,-1
 1 6 l 1,8,-1
 1 8 l 1,9,-1
 1 10 l 1,10,-1
 3 10 l 1,11,-1
 3 12 l 1,12,-1
 5 12 l 1,13,-1
 5 14 l 1,14,-1
 7 14 l 1,15,-1
 9 14 l 1,16,-1
 11 14 l 1,17,-1
 13 14 l 1,18,-1
 13 12 l 1,19,-1
 15 12 l 1,20,-1
 15 10 l 1,21,-1
 17 10 l 1,22,-1
 17 8 l 1,23,-1
 17 6 l 1,24,-1
 17 4 l 1,25,-1
 15 4 l 1,26,-1
 15 2 l 1,27,-1
 13 2 l 1,28,-1
 13 0 l 1,29,-1
 11 0 l 1,0,-1
9 2 m 1,30,-1
 11 2 l 1,31,-1
 11 4 l 1,32,-1
 9 4 l 1,33,-1
 7 4 l 1,34,-1
 7 2 l 1,35,-1
 9 2 l 1,30,-1
13 6 m 1,36,-1
 13 8 l 1,37,-1
 11 8 l 1,38,-1
 11 6 l 1,39,-1
 13 6 l 1,36,-1
EndSplineSet
EndChar

StartChar: macron
Encoding: 175 175 110
Width: 15
VWidth: 16
GlyphClass: 2
Flags: W
LayerCount: 2
Fore
SplineSet
11 14 m 1,0,-1
 13 14 l 1,1,-1
 13 12 l 1,2,-1
 11 12 l 1,3,-1
 9 12 l 1,4,-1
 7 12 l 1,5,-1
 5 12 l 1,6,-1
 3 12 l 1,7,-1
 1 12 l 1,8,-1
 1 14 l 1,9,-1
 3 14 l 1,10,-1
 5 14 l 1,11,-1
 7 14 l 1,12,-1
 9 14 l 1,13,-1
 11 14 l 1,0,-1
EndSplineSet
EndChar

StartChar: degree
Encoding: 176 176 111
Width: 13
VWidth: 16
GlyphClass: 2
Flags: W
LayerCount: 2
Fore
SplineSet
7 6 m 1,0,-1
 5 6 l 1,1,-1
 3 6 l 1,2,-1
 3 8 l 1,3,-1
 1 8 l 1,4,-1
 1 10 l 1,5,-1
 1 12 l 1,6,-1
 3 12 l 1,7,-1
 3 14 l 1,8,-1
 5 14 l 1,9,-1
 7 14 l 1,10,-1
 9 14 l 1,11,-1
 9 12 l 1,12,-1
 11 12 l 1,13,-1
 11 10 l 1,14,-1
 11 8 l 1,15,-1
 9 8 l 1,16,-1
 9 6 l 1,17,-1
 7 6 l 1,0,-1
7 8 m 1,18,-1
 7 10 l 1,19,-1
 7 12 l 1,20,-1
 5 12 l 1,21,-1
 5 10 l 1,22,-1
 5 8 l 1,23,-1
 7 8 l 1,18,-1
EndSplineSet
EndChar

StartChar: plusminus
Encoding: 177 177 112
Width: 15
VWidth: 16
GlyphClass: 2
Flags: W
LayerCount: 2
Fore
SplineSet
11 2 m 1,0,-1
 13 2 l 1,1,-1
 13 0 l 1,2,-1
 11 0 l 1,3,-1
 9 0 l 1,4,-1
 7 0 l 1,5,-1
 5 0 l 1,6,-1
 3 0 l 1,7,-1
 1 0 l 1,8,-1
 1 2 l 1,9,-1
 3 2 l 1,10,-1
 5 2 l 1,11,-1
 7 2 l 1,12,-1
 9 2 l 1,13,-1
 11 2 l 1,0,-1
7 4 m 1,14,-1
 5 4 l 1,15,-1
 5 6 l 1,16,-1
 5 8 l 1,17,-1
 3 8 l 1,18,-1
 1 8 l 1,19,-1
 1 10 l 1,20,-1
 3 10 l 1,21,-1
 5 10 l 1,22,-1
 5 12 l 1,23,-1
 5 14 l 1,24,-1
 7 14 l 1,25,-1
 9 14 l 1,26,-1
 9 12 l 1,27,-1
 9 10 l 1,28,-1
 11 10 l 1,29,-1
 13 10 l 1,30,-1
 13 8 l 1,31,-1
 11 8 l 1,32,-1
 9 8 l 1,33,-1
 9 6 l 1,34,-1
 9 4 l 1,35,-1
 7 4 l 1,14,-1
EndSplineSet
EndChar

StartChar: uni00B2
Encoding: 178 178 113
Width: 13
VWidth: 16
GlyphClass: 2
Flags: W
LayerCount: 2
Fore
SplineSet
9 6 m 1,0,-1
 11 6 l 1,1,-1
 11 4 l 1,2,-1
 9 4 l 1,3,-1
 7 4 l 1,4,-1
 5 4 l 1,5,-1
 3 4 l 1,6,-1
 1 4 l 1,7,-1
 1 6 l 1,8,-1
 3 6 l 1,9,-1
 3 8 l 1,10,-1
 5 8 l 1,11,-1
 5 10 l 1,12,-1
 3 10 l 1,13,-1
 1 10 l 1,14,-1
 1 12 l 1,15,-1
 3 12 l 1,16,-1
 3 14 l 1,17,-1
 5 14 l 1,18,-1
 7 14 l 1,19,-1
 9 14 l 1,20,-1
 9 12 l 1,21,-1
 11 12 l 1,22,-1
 11 10 l 1,23,-1
 9 10 l 1,24,-1
 9 8 l 1,25,-1
 7 8 l 1,26,-1
 7 6 l 1,27,-1
 9 6 l 1,0,-1
7 10 m 1,28,-1
 7 12 l 1,29,-1
 5 12 l 1,30,-1
 5 10 l 1,31,-1
 7 10 l 1,28,-1
EndSplineSet
EndChar

StartChar: uni00B3
Encoding: 179 179 114
Width: 13
VWidth: 16
GlyphClass: 2
Flags: W
LayerCount: 2
Fore
SplineSet
7 4 m 1,0,-1
 5 4 l 1,1,-1
 3 4 l 1,2,-1
 3 6 l 1,3,-1
 1 6 l 1,4,-1
 1 8 l 1,5,-1
 3 8 l 1,6,-1
 5 8 l 1,7,-1
 5 10 l 1,8,-1
 3 10 l 1,9,-1
 1 10 l 1,10,-1
 1 12 l 1,11,-1
 3 12 l 1,12,-1
 3 14 l 1,13,-1
 5 14 l 1,14,-1
 7 14 l 1,15,-1
 9 14 l 1,16,-1
 9 12 l 1,17,-1
 11 12 l 1,18,-1
 11 10 l 1,19,-1
 9 10 l 1,20,-1
 9 8 l 1,21,-1
 11 8 l 1,22,-1
 11 6 l 1,23,-1
 9 6 l 1,24,-1
 9 4 l 1,25,-1
 7 4 l 1,0,-1
7 6 m 1,26,-1
 7 8 l 1,27,-1
 5 8 l 1,28,-1
 5 6 l 1,29,-1
 7 6 l 1,26,-1
7 10 m 1,30,-1
 7 12 l 1,31,-1
 5 12 l 1,32,-1
 5 10 l 1,33,-1
 7 10 l 1,30,-1
EndSplineSet
EndChar

StartChar: acute
Encoding: 180 180 115
Width: 9
VWidth: 16
GlyphClass: 2
Flags: W
LayerCount: 2
Fore
SplineSet
3 10 m 1,0,-1
 1 10 l 1,1,-1
 1 12 l 1,2,-1
 3 12 l 1,3,-1
 3 14 l 1,4,-1
 5 14 l 1,5,-1
 7 14 l 1,6,-1
 7 12 l 1,7,-1
 5 12 l 1,8,-1
 5 10 l 1,9,-1
 3 10 l 1,0,-1
EndSplineSet
EndChar

StartChar: uni00B5
Encoding: 181 181 116
Width: 15
VWidth: 16
GlyphClass: 2
Flags: W
LayerCount: 2
Fore
SplineSet
3 -2 m 1,0,-1
 1 -2 l 1,1,-1
 1 0 l 1,2,-1
 1 2 l 1,3,-1
 1 4 l 1,4,-1
 1 6 l 1,5,-1
 1 8 l 1,6,-1
 1 10 l 1,7,-1
 3 10 l 1,8,-1
 5 10 l 1,9,-1
 5 8 l 1,10,-1
 5 6 l 1,11,-1
 5 4 l 1,12,-1
 5 2 l 1,13,-1
 7 2 l 1,14,-1
 9 2 l 1,15,-1
 9 4 l 1,16,-1
 9 6 l 1,17,-1
 9 8 l 1,18,-1
 9 10 l 1,19,-1
 11 10 l 1,20,-1
 13 10 l 1,21,-1
 13 8 l 1,22,-1
 13 6 l 1,23,-1
 13 4 l 1,24,-1
 13 2 l 1,25,-1
 11 2 l 1,26,-1
 11 0 l 1,27,-1
 9 0 l 1,28,-1
 7 0 l 1,29,-1
 5 0 l 1,30,-1
 5 -2 l 1,31,-1
 3 -2 l 1,0,-1
EndSplineSet
EndChar

StartChar: paragraph
Encoding: 182 182 117
Width: 17
VWidth: 16
GlyphClass: 2
Flags: W
LayerCount: 2
Fore
SplineSet
11 0 m 1,0,-1
 9 0 l 1,1,-1
 7 0 l 1,2,-1
 5 0 l 1,3,-1
 5 2 l 1,4,-1
 5 4 l 1,5,-1
 5 6 l 1,6,-1
 3 6 l 1,7,-1
 3 8 l 1,8,-1
 1 8 l 1,9,-1
 1 10 l 1,10,-1
 3 10 l 1,11,-1
 3 12 l 1,12,-1
 5 12 l 1,13,-1
 5 14 l 1,14,-1
 7 14 l 1,15,-1
 9 14 l 1,16,-1
 11 14 l 1,17,-1
 13 14 l 1,18,-1
 15 14 l 1,19,-1
 15 12 l 1,20,-1
 13 12 l 1,21,-1
 13 10 l 1,22,-1
 13 8 l 1,23,-1
 13 6 l 1,24,-1
 13 4 l 1,25,-1
 13 2 l 1,26,-1
 13 0 l 1,27,-1
 11 0 l 1,0,-1
EndSplineSet
EndChar

StartChar: periodcentered
Encoding: 183 183 118
Width: 7
VWidth: 16
GlyphClass: 2
Flags: W
LayerCount: 2
Fore
SplineSet
3 8 m 1,0,-1
 5 8 l 1,1,-1
 5 6 l 1,2,-1
 3 6 l 1,3,-1
 1 6 l 1,4,-1
 1 8 l 1,5,-1
 3 8 l 1,0,-1
EndSplineSet
EndChar

StartChar: cedilla
Encoding: 184 184 119
Width: 11
VWidth: 16
GlyphClass: 2
Flags: W
LayerCount: 2
Fore
SplineSet
5 -2 m 1,0,-1
 3 -2 l 1,1,-1
 1 -2 l 1,2,-1
 1 0 l 1,3,-1
 3 0 l 1,4,-1
 5 0 l 1,5,-1
 5 2 l 1,6,-1
 3 2 l 1,7,-1
 3 4 l 1,8,-1
 5 4 l 1,9,-1
 7 4 l 1,10,-1
 7 2 l 1,11,-1
 9 2 l 1,12,-1
 9 0 l 1,13,-1
 7 0 l 1,14,-1
 7 -2 l 1,15,-1
 5 -2 l 1,0,-1
EndSplineSet
EndChar

StartChar: uni00B9
Encoding: 185 185 120
Width: 11
VWidth: 16
GlyphClass: 2
Flags: W
LayerCount: 2
Fore
SplineSet
7 4 m 1,0,-1
 5 4 l 1,1,-1
 3 4 l 1,2,-1
 1 4 l 1,3,-1
 1 6 l 1,4,-1
 3 6 l 1,5,-1
 3 8 l 1,6,-1
 3 10 l 1,7,-1
 1 10 l 1,8,-1
 1 12 l 1,9,-1
 3 12 l 1,10,-1
 3 14 l 1,11,-1
 5 14 l 1,12,-1
 7 14 l 1,13,-1
 7 12 l 1,14,-1
 7 10 l 1,15,-1
 7 8 l 1,16,-1
 7 6 l 1,17,-1
 9 6 l 1,18,-1
 9 4 l 1,19,-1
 7 4 l 1,0,-1
EndSplineSet
EndChar

StartChar: ordmasculine
Encoding: 186 186 121
Width: 13
VWidth: 16
GlyphClass: 2
Flags: W
LayerCount: 2
Fore
SplineSet
9 4 m 1,0,-1
 11 4 l 1,1,-1
 11 2 l 1,2,-1
 9 2 l 1,3,-1
 7 2 l 1,4,-1
 5 2 l 1,5,-1
 3 2 l 1,6,-1
 1 2 l 1,7,-1
 1 4 l 1,8,-1
 3 4 l 1,9,-1
 5 4 l 1,10,-1
 7 4 l 1,11,-1
 9 4 l 1,0,-1
7 6 m 1,12,-1
 5 6 l 1,13,-1
 3 6 l 1,14,-1
 3 8 l 1,15,-1
 1 8 l 1,16,-1
 1 10 l 1,17,-1
 1 12 l 1,18,-1
 3 12 l 1,19,-1
 3 14 l 1,20,-1
 5 14 l 1,21,-1
 7 14 l 1,22,-1
 9 14 l 1,23,-1
 9 12 l 1,24,-1
 11 12 l 1,25,-1
 11 10 l 1,26,-1
 11 8 l 1,27,-1
 9 8 l 1,28,-1
 9 6 l 1,29,-1
 7 6 l 1,12,-1
7 8 m 1,30,-1
 7 10 l 1,31,-1
 7 12 l 1,32,-1
 5 12 l 1,33,-1
 5 10 l 1,34,-1
 5 8 l 1,35,-1
 7 8 l 1,30,-1
EndSplineSet
EndChar

StartChar: guillemotright
Encoding: 187 187 122
Width: 17
VWidth: 16
GlyphClass: 2
Flags: W
LayerCount: 2
Fore
SplineSet
9 2 m 1,0,-1
 7 2 l 1,1,-1
 7 4 l 1,2,-1
 5 4 l 1,3,-1
 5 2 l 1,4,-1
 3 2 l 1,5,-1
 1 2 l 1,6,-1
 1 4 l 1,7,-1
 3 4 l 1,8,-1
 3 6 l 1,9,-1
 5 6 l 1,10,-1
 5 8 l 1,11,-1
 3 8 l 1,12,-1
 3 10 l 1,13,-1
 1 10 l 1,14,-1
 1 12 l 1,15,-1
 3 12 l 1,16,-1
 5 12 l 1,17,-1
 5 10 l 1,18,-1
 7 10 l 1,19,-1
 7 12 l 1,20,-1
 9 12 l 1,21,-1
 11 12 l 1,22,-1
 11 10 l 1,23,-1
 13 10 l 1,24,-1
 13 8 l 1,25,-1
 15 8 l 1,26,-1
 15 6 l 1,27,-1
 13 6 l 1,28,-1
 13 4 l 1,29,-1
 11 4 l 1,30,-1
 11 2 l 1,31,-1
 9 2 l 1,0,-1
9 4 m 1,32,-1
 9 6 l 1,33,-1
 7 6 l 1,34,-1
 7 4 l 1,35,-1
 9 4 l 1,32,-1
11 6 m 1,36,-1
 11 8 l 1,37,-1
 9 8 l 1,38,-1
 9 10 l 1,39,-1
 7 10 l 1,40,-1
 7 8 l 1,41,-1
 9 8 l 1,42,-1
 9 6 l 1,43,-1
 11 6 l 1,36,-1
EndSplineSet
EndChar

StartChar: onequarter
Encoding: 188 188 123
Width: 19
VWidth: 16
GlyphClass: 2
Flags: W
LayerCount: 2
Fore
SplineSet
15 0 m 1,0,-1
 13 0 l 1,1,-1
 13 2 l 1,2,-1
 11 2 l 1,3,-1
 9 2 l 1,4,-1
 7 2 l 1,5,-1
 7 0 l 1,6,-1
 5 0 l 1,7,-1
 3 0 l 1,8,-1
 3 2 l 1,9,-1
 5 2 l 1,10,-1
 5 4 l 1,11,-1
 5 6 l 1,12,-1
 3 6 l 1,13,-1
 3 8 l 1,14,-1
 3 10 l 1,15,-1
 1 10 l 1,16,-1
 1 12 l 1,17,-1
 3 12 l 1,18,-1
 3 14 l 1,19,-1
 5 14 l 1,20,-1
 7 14 l 1,21,-1
 7 12 l 1,22,-1
 7 10 l 1,23,-1
 7 8 l 1,24,-1
 9 8 l 1,25,-1
 9 10 l 1,26,-1
 9 12 l 1,27,-1
 11 12 l 1,28,-1
 11 14 l 1,29,-1
 13 14 l 1,30,-1
 15 14 l 1,31,-1
 15 12 l 1,32,-1
 13 12 l 1,33,-1
 13 10 l 1,34,-1
 13 8 l 1,35,-1
 15 8 l 1,36,-1
 17 8 l 1,37,-1
 17 6 l 1,38,-1
 17 4 l 1,39,-1
 17 2 l 1,40,-1
 17 0 l 1,41,-1
 15 0 l 1,0,-1
EndSplineSet
EndChar

StartChar: onehalf
Encoding: 189 189 124
Width: 19
VWidth: 16
GlyphClass: 2
Flags: W
LayerCount: 2
Fore
SplineSet
15 0 m 1,0,-1
 13 0 l 1,1,-1
 11 0 l 1,2,-1
 11 2 l 1,3,-1
 11 4 l 1,4,-1
 13 4 l 1,5,-1
 13 6 l 1,6,-1
 11 6 l 1,7,-1
 9 6 l 1,8,-1
 9 4 l 1,9,-1
 9 2 l 1,10,-1
 7 2 l 1,11,-1
 7 0 l 1,12,-1
 5 0 l 1,13,-1
 3 0 l 1,14,-1
 3 2 l 1,15,-1
 5 2 l 1,16,-1
 5 4 l 1,17,-1
 5 6 l 1,18,-1
 3 6 l 1,19,-1
 3 8 l 1,20,-1
 3 10 l 1,21,-1
 1 10 l 1,22,-1
 1 12 l 1,23,-1
 3 12 l 1,24,-1
 3 14 l 1,25,-1
 5 14 l 1,26,-1
 7 14 l 1,27,-1
 7 12 l 1,28,-1
 7 10 l 1,29,-1
 7 8 l 1,30,-1
 9 8 l 1,31,-1
 9 10 l 1,32,-1
 9 12 l 1,33,-1
 11 12 l 1,34,-1
 11 14 l 1,35,-1
 13 14 l 1,36,-1
 15 14 l 1,37,-1
 15 12 l 1,38,-1
 13 12 l 1,39,-1
 13 10 l 1,40,-1
 13 8 l 1,41,-1
 15 8 l 1,42,-1
 17 8 l 1,43,-1
 17 6 l 1,44,-1
 17 4 l 1,45,-1
 15 4 l 1,46,-1
 15 2 l 1,47,-1
 17 2 l 1,48,-1
 17 0 l 1,49,-1
 15 0 l 1,0,-1
EndSplineSet
EndChar

StartChar: threequarters
Encoding: 190 190 125
Width: 19
VWidth: 16
GlyphClass: 2
Flags: W
LayerCount: 2
Fore
SplineSet
15 0 m 1,0,-1
 13 0 l 1,1,-1
 13 2 l 1,2,-1
 11 2 l 1,3,-1
 9 2 l 1,4,-1
 7 2 l 1,5,-1
 7 0 l 1,6,-1
 5 0 l 1,7,-1
 3 0 l 1,8,-1
 3 2 l 1,9,-1
 5 2 l 1,10,-1
 5 4 l 1,11,-1
 5 6 l 1,12,-1
 3 6 l 1,13,-1
 1 6 l 1,14,-1
 1 8 l 1,15,-1
 3 8 l 1,16,-1
 5 8 l 1,17,-1
 5 10 l 1,18,-1
 3 10 l 1,19,-1
 3 12 l 1,20,-1
 1 12 l 1,21,-1
 1 14 l 1,22,-1
 3 14 l 1,23,-1
 5 14 l 1,24,-1
 7 14 l 1,25,-1
 9 14 l 1,26,-1
 9 12 l 1,27,-1
 7 12 l 1,28,-1
 7 10 l 1,29,-1
 9 10 l 1,30,-1
 9 12 l 1,31,-1
 11 12 l 1,32,-1
 11 14 l 1,33,-1
 13 14 l 1,34,-1
 15 14 l 1,35,-1
 15 12 l 1,36,-1
 13 12 l 1,37,-1
 13 10 l 1,38,-1
 13 8 l 1,39,-1
 15 8 l 1,40,-1
 17 8 l 1,41,-1
 17 6 l 1,42,-1
 17 4 l 1,43,-1
 17 2 l 1,44,-1
 17 0 l 1,45,-1
 15 0 l 1,0,-1
EndSplineSet
EndChar

StartChar: questiondown
Encoding: 191 191 126
Width: 15
VWidth: 16
GlyphClass: 2
Flags: W
LayerCount: 2
Fore
SplineSet
9 -2 m 1,0,-1
 7 -2 l 1,1,-1
 5 -2 l 1,2,-1
 3 -2 l 1,3,-1
 3 0 l 1,4,-1
 1 0 l 1,5,-1
 1 2 l 1,6,-1
 1 4 l 1,7,-1
 3 4 l 1,8,-1
 3 6 l 1,9,-1
 5 6 l 1,10,-1
 5 8 l 1,11,-1
 7 8 l 1,12,-1
 9 8 l 1,13,-1
 9 6 l 1,14,-1
 7 6 l 1,15,-1
 7 4 l 1,16,-1
 5 4 l 1,17,-1
 5 2 l 1,18,-1
 5 0 l 1,19,-1
 7 0 l 1,20,-1
 9 0 l 1,21,-1
 9 2 l 1,22,-1
 11 2 l 1,23,-1
 13 2 l 1,24,-1
 13 0 l 1,25,-1
 11 0 l 1,26,-1
 11 -2 l 1,27,-1
 9 -2 l 1,0,-1
7 12 m 1,28,-1
 9 12 l 1,29,-1
 9 10 l 1,30,-1
 7 10 l 1,31,-1
 5 10 l 1,32,-1
 5 12 l 1,33,-1
 7 12 l 1,28,-1
EndSplineSet
EndChar

StartChar: Agrave
Encoding: 192 192 127
Width: 15
VWidth: 16
GlyphClass: 2
Flags: W
LayerCount: 2
Fore
SplineSet
11 0 m 1,0,-1
 9 0 l 1,1,-1
 9 2 l 1,2,-1
 9 4 l 1,3,-1
 9 6 l 1,4,-1
 9 8 l 1,5,-1
 7 8 l 1,6,-1
 5 8 l 1,7,-1
 5 6 l 1,8,-1
 5 4 l 1,9,-1
 5 2 l 1,10,-1
 5 0 l 1,11,-1
 3 0 l 1,12,-1
 1 0 l 1,13,-1
 1 2 l 1,14,-1
 1 4 l 1,15,-1
 1 6 l 1,16,-1
 1 8 l 1,17,-1
 1 10 l 1,18,-1
 1 12 l 1,19,-1
 3 12 l 1,20,-1
 3 14 l 1,21,-1
 5 14 l 1,22,-1
 7 14 l 1,23,-1
 9 14 l 1,24,-1
 11 14 l 1,25,-1
 11 12 l 1,26,-1
 13 12 l 1,27,-1
 13 10 l 1,28,-1
 13 8 l 1,29,-1
 13 6 l 1,30,-1
 13 4 l 1,31,-1
 13 2 l 1,32,-1
 13 0 l 1,33,-1
 11 0 l 1,0,-1
7 10 m 1,34,-1
 9 10 l 1,35,-1
 9 12 l 1,36,-1
 7 12 l 1,37,-1
 5 12 l 1,38,-1
 5 10 l 1,39,-1
 7 10 l 1,34,-1
7 16 m 1,40,-1
 5 16 l 1,41,-1
 5 18 l 1,42,-1
 3 18 l 1,43,-1
 3 20 l 1,44,-1
 5 20 l 1,45,-1
 7 20 l 1,46,-1
 7 18 l 1,47,-1
 9 18 l 1,48,-1
 9 16 l 1,49,-1
 7 16 l 1,40,-1
EndSplineSet
EndChar

StartChar: Aacute
Encoding: 193 193 128
Width: 15
VWidth: 16
GlyphClass: 2
Flags: W
LayerCount: 2
Fore
SplineSet
11 0 m 1,0,-1
 9 0 l 1,1,-1
 9 2 l 1,2,-1
 9 4 l 1,3,-1
 9 6 l 1,4,-1
 9 8 l 1,5,-1
 7 8 l 1,6,-1
 5 8 l 1,7,-1
 5 6 l 1,8,-1
 5 4 l 1,9,-1
 5 2 l 1,10,-1
 5 0 l 1,11,-1
 3 0 l 1,12,-1
 1 0 l 1,13,-1
 1 2 l 1,14,-1
 1 4 l 1,15,-1
 1 6 l 1,16,-1
 1 8 l 1,17,-1
 1 10 l 1,18,-1
 1 12 l 1,19,-1
 3 12 l 1,20,-1
 3 14 l 1,21,-1
 5 14 l 1,22,-1
 7 14 l 1,23,-1
 9 14 l 1,24,-1
 11 14 l 1,25,-1
 11 12 l 1,26,-1
 13 12 l 1,27,-1
 13 10 l 1,28,-1
 13 8 l 1,29,-1
 13 6 l 1,30,-1
 13 4 l 1,31,-1
 13 2 l 1,32,-1
 13 0 l 1,33,-1
 11 0 l 1,0,-1
7 10 m 1,34,-1
 9 10 l 1,35,-1
 9 12 l 1,36,-1
 7 12 l 1,37,-1
 5 12 l 1,38,-1
 5 10 l 1,39,-1
 7 10 l 1,34,-1
7 16 m 1,40,-1
 5 16 l 1,41,-1
 5 18 l 1,42,-1
 7 18 l 1,43,-1
 7 20 l 1,44,-1
 9 20 l 1,45,-1
 11 20 l 1,46,-1
 11 18 l 1,47,-1
 9 18 l 1,48,-1
 9 16 l 1,49,-1
 7 16 l 1,40,-1
EndSplineSet
EndChar

StartChar: Acircumflex
Encoding: 194 194 129
Width: 15
VWidth: 16
GlyphClass: 2
Flags: W
LayerCount: 2
Fore
SplineSet
11 0 m 1,0,-1
 9 0 l 1,1,-1
 9 2 l 1,2,-1
 9 4 l 1,3,-1
 9 6 l 1,4,-1
 9 8 l 1,5,-1
 7 8 l 1,6,-1
 5 8 l 1,7,-1
 5 6 l 1,8,-1
 5 4 l 1,9,-1
 5 2 l 1,10,-1
 5 0 l 1,11,-1
 3 0 l 1,12,-1
 1 0 l 1,13,-1
 1 2 l 1,14,-1
 1 4 l 1,15,-1
 1 6 l 1,16,-1
 1 8 l 1,17,-1
 1 10 l 1,18,-1
 1 12 l 1,19,-1
 3 12 l 1,20,-1
 3 14 l 1,21,-1
 5 14 l 1,22,-1
 7 14 l 1,23,-1
 9 14 l 1,24,-1
 11 14 l 1,25,-1
 11 12 l 1,26,-1
 13 12 l 1,27,-1
 13 10 l 1,28,-1
 13 8 l 1,29,-1
 13 6 l 1,30,-1
 13 4 l 1,31,-1
 13 2 l 1,32,-1
 13 0 l 1,33,-1
 11 0 l 1,0,-1
7 10 m 1,34,-1
 9 10 l 1,35,-1
 9 12 l 1,36,-1
 7 12 l 1,37,-1
 5 12 l 1,38,-1
 5 10 l 1,39,-1
 7 10 l 1,34,-1
9 16 m 1,40,-1
 7 16 l 1,41,-1
 5 16 l 1,42,-1
 3 16 l 1,43,-1
 3 18 l 1,44,-1
 5 18 l 1,45,-1
 5 20 l 1,46,-1
 7 20 l 1,47,-1
 9 20 l 1,48,-1
 9 18 l 1,49,-1
 11 18 l 1,50,-1
 11 16 l 1,51,-1
 9 16 l 1,40,-1
EndSplineSet
EndChar

StartChar: Atilde
Encoding: 195 195 130
Width: 15
VWidth: 16
GlyphClass: 2
Flags: W
LayerCount: 2
Fore
SplineSet
11 0 m 1,0,-1
 9 0 l 1,1,-1
 9 2 l 1,2,-1
 9 4 l 1,3,-1
 9 6 l 1,4,-1
 9 8 l 1,5,-1
 7 8 l 1,6,-1
 5 8 l 1,7,-1
 5 6 l 1,8,-1
 5 4 l 1,9,-1
 5 2 l 1,10,-1
 5 0 l 1,11,-1
 3 0 l 1,12,-1
 1 0 l 1,13,-1
 1 2 l 1,14,-1
 1 4 l 1,15,-1
 1 6 l 1,16,-1
 1 8 l 1,17,-1
 1 10 l 1,18,-1
 1 12 l 1,19,-1
 3 12 l 1,20,-1
 3 14 l 1,21,-1
 5 14 l 1,22,-1
 7 14 l 1,23,-1
 9 14 l 1,24,-1
 11 14 l 1,25,-1
 11 12 l 1,26,-1
 13 12 l 1,27,-1
 13 10 l 1,28,-1
 13 8 l 1,29,-1
 13 6 l 1,30,-1
 13 4 l 1,31,-1
 13 2 l 1,32,-1
 13 0 l 1,33,-1
 11 0 l 1,0,-1
7 10 m 1,34,-1
 9 10 l 1,35,-1
 9 12 l 1,36,-1
 7 12 l 1,37,-1
 5 12 l 1,38,-1
 5 10 l 1,39,-1
 7 10 l 1,34,-1
9 16 m 1,40,-1
 7 16 l 1,41,-1
 5 16 l 1,42,-1
 3 16 l 1,43,-1
 3 18 l 1,44,-1
 5 18 l 1,45,-1
 5 20 l 1,46,-1
 7 20 l 1,47,-1
 9 20 l 1,48,-1
 11 20 l 1,49,-1
 13 20 l 1,50,-1
 13 18 l 1,51,-1
 11 18 l 1,52,-1
 11 16 l 1,53,-1
 9 16 l 1,40,-1
EndSplineSet
EndChar

StartChar: Adieresis
Encoding: 196 196 131
Width: 15
VWidth: 16
GlyphClass: 2
Flags: W
LayerCount: 2
Fore
SplineSet
11 0 m 1,0,-1
 9 0 l 1,1,-1
 9 2 l 1,2,-1
 9 4 l 1,3,-1
 9 6 l 1,4,-1
 9 8 l 1,5,-1
 7 8 l 1,6,-1
 5 8 l 1,7,-1
 5 6 l 1,8,-1
 5 4 l 1,9,-1
 5 2 l 1,10,-1
 5 0 l 1,11,-1
 3 0 l 1,12,-1
 1 0 l 1,13,-1
 1 2 l 1,14,-1
 1 4 l 1,15,-1
 1 6 l 1,16,-1
 1 8 l 1,17,-1
 1 10 l 1,18,-1
 1 12 l 1,19,-1
 3 12 l 1,20,-1
 3 14 l 1,21,-1
 5 14 l 1,22,-1
 7 14 l 1,23,-1
 9 14 l 1,24,-1
 11 14 l 1,25,-1
 11 12 l 1,26,-1
 13 12 l 1,27,-1
 13 10 l 1,28,-1
 13 8 l 1,29,-1
 13 6 l 1,30,-1
 13 4 l 1,31,-1
 13 2 l 1,32,-1
 13 0 l 1,33,-1
 11 0 l 1,0,-1
7 10 m 1,34,-1
 9 10 l 1,35,-1
 9 12 l 1,36,-1
 7 12 l 1,37,-1
 5 12 l 1,38,-1
 5 10 l 1,39,-1
 7 10 l 1,34,-1
9 18 m 1,40,-1
 11 18 l 1,41,-1
 11 16 l 1,42,-1
 9 16 l 1,43,-1
 7 16 l 1,44,-1
 5 16 l 1,45,-1
 3 16 l 1,46,-1
 3 18 l 1,47,-1
 5 18 l 1,48,-1
 7 18 l 1,49,-1
 9 18 l 1,40,-1
EndSplineSet
EndChar

StartChar: Aring
Encoding: 197 197 132
Width: 15
VWidth: 16
GlyphClass: 2
Flags: W
LayerCount: 2
Fore
SplineSet
11 0 m 1,0,-1
 9 0 l 1,1,-1
 9 2 l 1,2,-1
 9 4 l 1,3,-1
 9 6 l 1,4,-1
 9 8 l 1,5,-1
 7 8 l 1,6,-1
 5 8 l 1,7,-1
 5 6 l 1,8,-1
 5 4 l 1,9,-1
 5 2 l 1,10,-1
 5 0 l 1,11,-1
 3 0 l 1,12,-1
 1 0 l 1,13,-1
 1 2 l 1,14,-1
 1 4 l 1,15,-1
 1 6 l 1,16,-1
 1 8 l 1,17,-1
 1 10 l 1,18,-1
 1 12 l 1,19,-1
 3 12 l 1,20,-1
 3 14 l 1,21,-1
 5 14 l 1,22,-1
 5 16 l 1,23,-1
 3 16 l 1,24,-1
 3 18 l 1,25,-1
 5 18 l 1,26,-1
 5 20 l 1,27,-1
 7 20 l 1,28,-1
 9 20 l 1,29,-1
 9 18 l 1,30,-1
 11 18 l 1,31,-1
 11 16 l 1,32,-1
 9 16 l 1,33,-1
 9 14 l 1,34,-1
 11 14 l 1,35,-1
 11 12 l 1,36,-1
 13 12 l 1,37,-1
 13 10 l 1,38,-1
 13 8 l 1,39,-1
 13 6 l 1,40,-1
 13 4 l 1,41,-1
 13 2 l 1,42,-1
 13 0 l 1,43,-1
 11 0 l 1,0,-1
7 10 m 1,44,-1
 9 10 l 1,45,-1
 9 12 l 1,46,-1
 7 12 l 1,47,-1
 5 12 l 1,48,-1
 5 10 l 1,49,-1
 7 10 l 1,44,-1
EndSplineSet
EndChar

StartChar: AE
Encoding: 198 198 133
Width: 23
VWidth: 16
GlyphClass: 2
Flags: W
LayerCount: 2
Fore
SplineSet
19 2 m 1,0,-1
 21 2 l 1,1,-1
 21 0 l 1,2,-1
 19 0 l 1,3,-1
 17 0 l 1,4,-1
 15 0 l 1,5,-1
 13 0 l 1,6,-1
 11 0 l 1,7,-1
 9 0 l 1,8,-1
 9 2 l 1,9,-1
 9 4 l 1,10,-1
 9 6 l 1,11,-1
 9 8 l 1,12,-1
 7 8 l 1,13,-1
 5 8 l 1,14,-1
 5 6 l 1,15,-1
 5 4 l 1,16,-1
 5 2 l 1,17,-1
 5 0 l 1,18,-1
 3 0 l 1,19,-1
 1 0 l 1,20,-1
 1 2 l 1,21,-1
 1 4 l 1,22,-1
 1 6 l 1,23,-1
 1 8 l 1,24,-1
 1 10 l 1,25,-1
 1 12 l 1,26,-1
 3 12 l 1,27,-1
 3 14 l 1,28,-1
 5 14 l 1,29,-1
 7 14 l 1,30,-1
 9 14 l 1,31,-1
 11 14 l 1,32,-1
 13 14 l 1,33,-1
 15 14 l 1,34,-1
 17 14 l 1,35,-1
 19 14 l 1,36,-1
 21 14 l 1,37,-1
 21 12 l 1,38,-1
 19 12 l 1,39,-1
 17 12 l 1,40,-1
 15 12 l 1,41,-1
 13 12 l 1,42,-1
 13 10 l 1,43,-1
 15 10 l 1,44,-1
 17 10 l 1,45,-1
 17 8 l 1,46,-1
 15 8 l 1,47,-1
 13 8 l 1,48,-1
 13 6 l 1,49,-1
 13 4 l 1,50,-1
 13 2 l 1,51,-1
 15 2 l 1,52,-1
 17 2 l 1,53,-1
 19 2 l 1,0,-1
7 10 m 1,54,-1
 9 10 l 1,55,-1
 9 12 l 1,56,-1
 7 12 l 1,57,-1
 5 12 l 1,58,-1
 5 10 l 1,59,-1
 7 10 l 1,54,-1
EndSplineSet
EndChar

StartChar: Ccedilla
Encoding: 199 199 134
Width: 15
VWidth: 16
GlyphClass: 2
Flags: W
LayerCount: 2
Fore
SplineSet
7 -4 m 1,0,-1
 5 -4 l 1,1,-1
 5 -2 l 1,2,-1
 7 -2 l 1,3,-1
 7 0 l 1,4,-1
 5 0 l 1,5,-1
 3 0 l 1,6,-1
 3 2 l 1,7,-1
 1 2 l 1,8,-1
 1 4 l 1,9,-1
 1 6 l 1,10,-1
 1 8 l 1,11,-1
 1 10 l 1,12,-1
 1 12 l 1,13,-1
 3 12 l 1,14,-1
 3 14 l 1,15,-1
 5 14 l 1,16,-1
 7 14 l 1,17,-1
 9 14 l 1,18,-1
 11 14 l 1,19,-1
 11 12 l 1,20,-1
 13 12 l 1,21,-1
 13 10 l 1,22,-1
 11 10 l 1,23,-1
 9 10 l 1,24,-1
 9 12 l 1,25,-1
 7 12 l 1,26,-1
 5 12 l 1,27,-1
 5 10 l 1,28,-1
 5 8 l 1,29,-1
 5 6 l 1,30,-1
 5 4 l 1,31,-1
 5 2 l 1,32,-1
 7 2 l 1,33,-1
 9 2 l 1,34,-1
 9 4 l 1,35,-1
 11 4 l 1,36,-1
 13 4 l 1,37,-1
 13 2 l 1,38,-1
 11 2 l 1,39,-1
 11 0 l 1,40,-1
 11 -2 l 1,41,-1
 9 -2 l 1,42,-1
 9 -4 l 1,43,-1
 7 -4 l 1,0,-1
EndSplineSet
EndChar

StartChar: Egrave
Encoding: 200 200 135
Width: 15
VWidth: 16
GlyphClass: 2
Flags: W
LayerCount: 2
Fore
SplineSet
11 2 m 1,0,-1
 13 2 l 1,1,-1
 13 0 l 1,2,-1
 11 0 l 1,3,-1
 9 0 l 1,4,-1
 7 0 l 1,5,-1
 5 0 l 1,6,-1
 3 0 l 1,7,-1
 1 0 l 1,8,-1
 1 2 l 1,9,-1
 1 4 l 1,10,-1
 1 6 l 1,11,-1
 1 8 l 1,12,-1
 1 10 l 1,13,-1
 1 12 l 1,14,-1
 1 14 l 1,15,-1
 3 14 l 1,16,-1
 5 14 l 1,17,-1
 7 14 l 1,18,-1
 9 14 l 1,19,-1
 11 14 l 1,20,-1
 13 14 l 1,21,-1
 13 12 l 1,22,-1
 11 12 l 1,23,-1
 9 12 l 1,24,-1
 7 12 l 1,25,-1
 5 12 l 1,26,-1
 5 10 l 1,27,-1
 7 10 l 1,28,-1
 9 10 l 1,29,-1
 9 8 l 1,30,-1
 7 8 l 1,31,-1
 5 8 l 1,32,-1
 5 6 l 1,33,-1
 5 4 l 1,34,-1
 5 2 l 1,35,-1
 7 2 l 1,36,-1
 9 2 l 1,37,-1
 11 2 l 1,0,-1
7 16 m 1,38,-1
 5 16 l 1,39,-1
 5 18 l 1,40,-1
 3 18 l 1,41,-1
 3 20 l 1,42,-1
 5 20 l 1,43,-1
 7 20 l 1,44,-1
 7 18 l 1,45,-1
 9 18 l 1,46,-1
 9 16 l 1,47,-1
 7 16 l 1,38,-1
EndSplineSet
EndChar

StartChar: Eacute
Encoding: 201 201 136
Width: 15
VWidth: 16
GlyphClass: 2
Flags: W
LayerCount: 2
Fore
SplineSet
11 2 m 1,0,-1
 13 2 l 1,1,-1
 13 0 l 1,2,-1
 11 0 l 1,3,-1
 9 0 l 1,4,-1
 7 0 l 1,5,-1
 5 0 l 1,6,-1
 3 0 l 1,7,-1
 1 0 l 1,8,-1
 1 2 l 1,9,-1
 1 4 l 1,10,-1
 1 6 l 1,11,-1
 1 8 l 1,12,-1
 1 10 l 1,13,-1
 1 12 l 1,14,-1
 1 14 l 1,15,-1
 3 14 l 1,16,-1
 5 14 l 1,17,-1
 7 14 l 1,18,-1
 9 14 l 1,19,-1
 11 14 l 1,20,-1
 13 14 l 1,21,-1
 13 12 l 1,22,-1
 11 12 l 1,23,-1
 9 12 l 1,24,-1
 7 12 l 1,25,-1
 5 12 l 1,26,-1
 5 10 l 1,27,-1
 7 10 l 1,28,-1
 9 10 l 1,29,-1
 9 8 l 1,30,-1
 7 8 l 1,31,-1
 5 8 l 1,32,-1
 5 6 l 1,33,-1
 5 4 l 1,34,-1
 5 2 l 1,35,-1
 7 2 l 1,36,-1
 9 2 l 1,37,-1
 11 2 l 1,0,-1
7 16 m 1,38,-1
 5 16 l 1,39,-1
 5 18 l 1,40,-1
 7 18 l 1,41,-1
 7 20 l 1,42,-1
 9 20 l 1,43,-1
 11 20 l 1,44,-1
 11 18 l 1,45,-1
 9 18 l 1,46,-1
 9 16 l 1,47,-1
 7 16 l 1,38,-1
EndSplineSet
EndChar

StartChar: Ecircumflex
Encoding: 202 202 137
Width: 15
VWidth: 16
GlyphClass: 2
Flags: W
LayerCount: 2
Fore
SplineSet
11 2 m 1,0,-1
 13 2 l 1,1,-1
 13 0 l 1,2,-1
 11 0 l 1,3,-1
 9 0 l 1,4,-1
 7 0 l 1,5,-1
 5 0 l 1,6,-1
 3 0 l 1,7,-1
 1 0 l 1,8,-1
 1 2 l 1,9,-1
 1 4 l 1,10,-1
 1 6 l 1,11,-1
 1 8 l 1,12,-1
 1 10 l 1,13,-1
 1 12 l 1,14,-1
 1 14 l 1,15,-1
 3 14 l 1,16,-1
 5 14 l 1,17,-1
 7 14 l 1,18,-1
 9 14 l 1,19,-1
 11 14 l 1,20,-1
 13 14 l 1,21,-1
 13 12 l 1,22,-1
 11 12 l 1,23,-1
 9 12 l 1,24,-1
 7 12 l 1,25,-1
 5 12 l 1,26,-1
 5 10 l 1,27,-1
 7 10 l 1,28,-1
 9 10 l 1,29,-1
 9 8 l 1,30,-1
 7 8 l 1,31,-1
 5 8 l 1,32,-1
 5 6 l 1,33,-1
 5 4 l 1,34,-1
 5 2 l 1,35,-1
 7 2 l 1,36,-1
 9 2 l 1,37,-1
 11 2 l 1,0,-1
9 16 m 1,38,-1
 7 16 l 1,39,-1
 5 16 l 1,40,-1
 3 16 l 1,41,-1
 3 18 l 1,42,-1
 5 18 l 1,43,-1
 5 20 l 1,44,-1
 7 20 l 1,45,-1
 9 20 l 1,46,-1
 9 18 l 1,47,-1
 11 18 l 1,48,-1
 11 16 l 1,49,-1
 9 16 l 1,38,-1
EndSplineSet
EndChar

StartChar: Edieresis
Encoding: 203 203 138
Width: 15
VWidth: 16
GlyphClass: 2
Flags: W
LayerCount: 2
Fore
SplineSet
11 2 m 1,0,-1
 13 2 l 1,1,-1
 13 0 l 1,2,-1
 11 0 l 1,3,-1
 9 0 l 1,4,-1
 7 0 l 1,5,-1
 5 0 l 1,6,-1
 3 0 l 1,7,-1
 1 0 l 1,8,-1
 1 2 l 1,9,-1
 1 4 l 1,10,-1
 1 6 l 1,11,-1
 1 8 l 1,12,-1
 1 10 l 1,13,-1
 1 12 l 1,14,-1
 1 14 l 1,15,-1
 3 14 l 1,16,-1
 5 14 l 1,17,-1
 7 14 l 1,18,-1
 9 14 l 1,19,-1
 11 14 l 1,20,-1
 13 14 l 1,21,-1
 13 12 l 1,22,-1
 11 12 l 1,23,-1
 9 12 l 1,24,-1
 7 12 l 1,25,-1
 5 12 l 1,26,-1
 5 10 l 1,27,-1
 7 10 l 1,28,-1
 9 10 l 1,29,-1
 9 8 l 1,30,-1
 7 8 l 1,31,-1
 5 8 l 1,32,-1
 5 6 l 1,33,-1
 5 4 l 1,34,-1
 5 2 l 1,35,-1
 7 2 l 1,36,-1
 9 2 l 1,37,-1
 11 2 l 1,0,-1
9 18 m 1,38,-1
 11 18 l 1,39,-1
 11 16 l 1,40,-1
 9 16 l 1,41,-1
 7 16 l 1,42,-1
 5 16 l 1,43,-1
 3 16 l 1,44,-1
 3 18 l 1,45,-1
 5 18 l 1,46,-1
 7 18 l 1,47,-1
 9 18 l 1,38,-1
EndSplineSet
EndChar

StartChar: Igrave
Encoding: 204 204 139
Width: 11
VWidth: 16
GlyphClass: 2
Flags: W
LayerCount: 2
Fore
SplineSet
7 0 m 1,0,-1
 5 0 l 1,1,-1
 3 0 l 1,2,-1
 1 0 l 1,3,-1
 1 2 l 1,4,-1
 3 2 l 1,5,-1
 3 4 l 1,6,-1
 3 6 l 1,7,-1
 3 8 l 1,8,-1
 3 10 l 1,9,-1
 3 12 l 1,10,-1
 1 12 l 1,11,-1
 1 14 l 1,12,-1
 3 14 l 1,13,-1
 5 14 l 1,14,-1
 7 14 l 1,15,-1
 9 14 l 1,16,-1
 9 12 l 1,17,-1
 7 12 l 1,18,-1
 7 10 l 1,19,-1
 7 8 l 1,20,-1
 7 6 l 1,21,-1
 7 4 l 1,22,-1
 7 2 l 1,23,-1
 9 2 l 1,24,-1
 9 0 l 1,25,-1
 7 0 l 1,0,-1
5 16 m 1,26,-1
 3 16 l 1,27,-1
 3 18 l 1,28,-1
 1 18 l 1,29,-1
 1 20 l 1,30,-1
 3 20 l 1,31,-1
 5 20 l 1,32,-1
 5 18 l 1,33,-1
 7 18 l 1,34,-1
 7 16 l 1,35,-1
 5 16 l 1,26,-1
EndSplineSet
EndChar

StartChar: Iacute
Encoding: 205 205 140
Width: 11
VWidth: 16
GlyphClass: 2
Flags: W
LayerCount: 2
Fore
SplineSet
7 0 m 1,0,-1
 5 0 l 1,1,-1
 3 0 l 1,2,-1
 1 0 l 1,3,-1
 1 2 l 1,4,-1
 3 2 l 1,5,-1
 3 4 l 1,6,-1
 3 6 l 1,7,-1
 3 8 l 1,8,-1
 3 10 l 1,9,-1
 3 12 l 1,10,-1
 1 12 l 1,11,-1
 1 14 l 1,12,-1
 3 14 l 1,13,-1
 5 14 l 1,14,-1
 7 14 l 1,15,-1
 9 14 l 1,16,-1
 9 12 l 1,17,-1
 7 12 l 1,18,-1
 7 10 l 1,19,-1
 7 8 l 1,20,-1
 7 6 l 1,21,-1
 7 4 l 1,22,-1
 7 2 l 1,23,-1
 9 2 l 1,24,-1
 9 0 l 1,25,-1
 7 0 l 1,0,-1
5 16 m 1,26,-1
 3 16 l 1,27,-1
 3 18 l 1,28,-1
 5 18 l 1,29,-1
 5 20 l 1,30,-1
 7 20 l 1,31,-1
 9 20 l 1,32,-1
 9 18 l 1,33,-1
 7 18 l 1,34,-1
 7 16 l 1,35,-1
 5 16 l 1,26,-1
EndSplineSet
EndChar

StartChar: Icircumflex
Encoding: 206 206 141
Width: 11
VWidth: 16
GlyphClass: 2
Flags: W
LayerCount: 2
Fore
SplineSet
7 0 m 1,0,-1
 5 0 l 1,1,-1
 3 0 l 1,2,-1
 1 0 l 1,3,-1
 1 2 l 1,4,-1
 3 2 l 1,5,-1
 3 4 l 1,6,-1
 3 6 l 1,7,-1
 3 8 l 1,8,-1
 3 10 l 1,9,-1
 3 12 l 1,10,-1
 1 12 l 1,11,-1
 1 14 l 1,12,-1
 3 14 l 1,13,-1
 5 14 l 1,14,-1
 7 14 l 1,15,-1
 9 14 l 1,16,-1
 9 12 l 1,17,-1
 7 12 l 1,18,-1
 7 10 l 1,19,-1
 7 8 l 1,20,-1
 7 6 l 1,21,-1
 7 4 l 1,22,-1
 7 2 l 1,23,-1
 9 2 l 1,24,-1
 9 0 l 1,25,-1
 7 0 l 1,0,-1
7 16 m 1,26,-1
 5 16 l 1,27,-1
 3 16 l 1,28,-1
 1 16 l 1,29,-1
 1 18 l 1,30,-1
 3 18 l 1,31,-1
 3 20 l 1,32,-1
 5 20 l 1,33,-1
 7 20 l 1,34,-1
 7 18 l 1,35,-1
 9 18 l 1,36,-1
 9 16 l 1,37,-1
 7 16 l 1,26,-1
EndSplineSet
EndChar

StartChar: Idieresis
Encoding: 207 207 142
Width: 11
VWidth: 16
GlyphClass: 2
Flags: W
LayerCount: 2
Fore
SplineSet
7 0 m 1,0,-1
 5 0 l 1,1,-1
 3 0 l 1,2,-1
 1 0 l 1,3,-1
 1 2 l 1,4,-1
 3 2 l 1,5,-1
 3 4 l 1,6,-1
 3 6 l 1,7,-1
 3 8 l 1,8,-1
 3 10 l 1,9,-1
 3 12 l 1,10,-1
 1 12 l 1,11,-1
 1 14 l 1,12,-1
 3 14 l 1,13,-1
 5 14 l 1,14,-1
 7 14 l 1,15,-1
 9 14 l 1,16,-1
 9 12 l 1,17,-1
 7 12 l 1,18,-1
 7 10 l 1,19,-1
 7 8 l 1,20,-1
 7 6 l 1,21,-1
 7 4 l 1,22,-1
 7 2 l 1,23,-1
 9 2 l 1,24,-1
 9 0 l 1,25,-1
 7 0 l 1,0,-1
7 18 m 1,26,-1
 9 18 l 1,27,-1
 9 16 l 1,28,-1
 7 16 l 1,29,-1
 5 16 l 1,30,-1
 3 16 l 1,31,-1
 1 16 l 1,32,-1
 1 18 l 1,33,-1
 3 18 l 1,34,-1
 5 18 l 1,35,-1
 7 18 l 1,26,-1
EndSplineSet
EndChar

StartChar: Eth
Encoding: 208 208 143
Width: 17
VWidth: 16
GlyphClass: 2
Flags: W
LayerCount: 2
Fore
SplineSet
11 0 m 1,0,-1
 9 0 l 1,1,-1
 7 0 l 1,2,-1
 5 0 l 1,3,-1
 3 0 l 1,4,-1
 3 2 l 1,5,-1
 3 4 l 1,6,-1
 3 6 l 1,7,-1
 3 8 l 1,8,-1
 1 8 l 1,9,-1
 1 10 l 1,10,-1
 3 10 l 1,11,-1
 3 12 l 1,12,-1
 3 14 l 1,13,-1
 5 14 l 1,14,-1
 7 14 l 1,15,-1
 9 14 l 1,16,-1
 11 14 l 1,17,-1
 13 14 l 1,18,-1
 13 12 l 1,19,-1
 15 12 l 1,20,-1
 15 10 l 1,21,-1
 15 8 l 1,22,-1
 15 6 l 1,23,-1
 15 4 l 1,24,-1
 15 2 l 1,25,-1
 13 2 l 1,26,-1
 13 0 l 1,27,-1
 11 0 l 1,0,-1
9 2 m 1,28,-1
 11 2 l 1,29,-1
 11 4 l 1,30,-1
 11 6 l 1,31,-1
 11 8 l 1,32,-1
 11 10 l 1,33,-1
 11 12 l 1,34,-1
 9 12 l 1,35,-1
 7 12 l 1,36,-1
 7 10 l 1,37,-1
 9 10 l 1,38,-1
 9 8 l 1,39,-1
 7 8 l 1,40,-1
 7 6 l 1,41,-1
 7 4 l 1,42,-1
 7 2 l 1,43,-1
 9 2 l 1,28,-1
EndSplineSet
EndChar

StartChar: Ntilde
Encoding: 209 209 144
Width: 15
VWidth: 16
GlyphClass: 2
Flags: W
LayerCount: 2
Fore
SplineSet
11 0 m 1,0,-1
 9 0 l 1,1,-1
 9 2 l 1,2,-1
 9 4 l 1,3,-1
 9 6 l 1,4,-1
 7 6 l 1,5,-1
 7 8 l 1,6,-1
 5 8 l 1,7,-1
 5 6 l 1,8,-1
 5 4 l 1,9,-1
 5 2 l 1,10,-1
 5 0 l 1,11,-1
 3 0 l 1,12,-1
 1 0 l 1,13,-1
 1 2 l 1,14,-1
 1 4 l 1,15,-1
 1 6 l 1,16,-1
 1 8 l 1,17,-1
 1 10 l 1,18,-1
 1 12 l 1,19,-1
 1 14 l 1,20,-1
 3 14 l 1,21,-1
 5 14 l 1,22,-1
 5 12 l 1,23,-1
 7 12 l 1,24,-1
 7 10 l 1,25,-1
 9 10 l 1,26,-1
 9 12 l 1,27,-1
 9 14 l 1,28,-1
 11 14 l 1,29,-1
 13 14 l 1,30,-1
 13 12 l 1,31,-1
 13 10 l 1,32,-1
 13 8 l 1,33,-1
 13 6 l 1,34,-1
 13 4 l 1,35,-1
 13 2 l 1,36,-1
 13 0 l 1,37,-1
 11 0 l 1,0,-1
9 16 m 1,38,-1
 7 16 l 1,39,-1
 5 16 l 1,40,-1
 3 16 l 1,41,-1
 3 18 l 1,42,-1
 5 18 l 1,43,-1
 5 20 l 1,44,-1
 7 20 l 1,45,-1
 9 20 l 1,46,-1
 11 20 l 1,47,-1
 13 20 l 1,48,-1
 13 18 l 1,49,-1
 11 18 l 1,50,-1
 11 16 l 1,51,-1
 9 16 l 1,38,-1
EndSplineSet
EndChar

StartChar: Ograve
Encoding: 210 210 145
Width: 15
VWidth: 16
GlyphClass: 2
Flags: W
LayerCount: 2
Fore
SplineSet
9 0 m 1,0,-1
 7 0 l 1,1,-1
 5 0 l 1,2,-1
 3 0 l 1,3,-1
 3 2 l 1,4,-1
 1 2 l 1,5,-1
 1 4 l 1,6,-1
 1 6 l 1,7,-1
 1 8 l 1,8,-1
 1 10 l 1,9,-1
 1 12 l 1,10,-1
 3 12 l 1,11,-1
 3 14 l 1,12,-1
 5 14 l 1,13,-1
 7 14 l 1,14,-1
 9 14 l 1,15,-1
 11 14 l 1,16,-1
 11 12 l 1,17,-1
 13 12 l 1,18,-1
 13 10 l 1,19,-1
 13 8 l 1,20,-1
 13 6 l 1,21,-1
 13 4 l 1,22,-1
 13 2 l 1,23,-1
 11 2 l 1,24,-1
 11 0 l 1,25,-1
 9 0 l 1,0,-1
7 2 m 1,26,-1
 9 2 l 1,27,-1
 9 4 l 1,28,-1
 9 6 l 1,29,-1
 9 8 l 1,30,-1
 9 10 l 1,31,-1
 9 12 l 1,32,-1
 7 12 l 1,33,-1
 5 12 l 1,34,-1
 5 10 l 1,35,-1
 5 8 l 1,36,-1
 5 6 l 1,37,-1
 5 4 l 1,38,-1
 5 2 l 1,39,-1
 7 2 l 1,26,-1
7 16 m 1,40,-1
 5 16 l 1,41,-1
 5 18 l 1,42,-1
 3 18 l 1,43,-1
 3 20 l 1,44,-1
 5 20 l 1,45,-1
 7 20 l 1,46,-1
 7 18 l 1,47,-1
 9 18 l 1,48,-1
 9 16 l 1,49,-1
 7 16 l 1,40,-1
EndSplineSet
EndChar

StartChar: Oacute
Encoding: 211 211 146
Width: 15
VWidth: 16
GlyphClass: 2
Flags: W
LayerCount: 2
Fore
SplineSet
9 0 m 1,0,-1
 7 0 l 1,1,-1
 5 0 l 1,2,-1
 3 0 l 1,3,-1
 3 2 l 1,4,-1
 1 2 l 1,5,-1
 1 4 l 1,6,-1
 1 6 l 1,7,-1
 1 8 l 1,8,-1
 1 10 l 1,9,-1
 1 12 l 1,10,-1
 3 12 l 1,11,-1
 3 14 l 1,12,-1
 5 14 l 1,13,-1
 7 14 l 1,14,-1
 9 14 l 1,15,-1
 11 14 l 1,16,-1
 11 12 l 1,17,-1
 13 12 l 1,18,-1
 13 10 l 1,19,-1
 13 8 l 1,20,-1
 13 6 l 1,21,-1
 13 4 l 1,22,-1
 13 2 l 1,23,-1
 11 2 l 1,24,-1
 11 0 l 1,25,-1
 9 0 l 1,0,-1
7 2 m 1,26,-1
 9 2 l 1,27,-1
 9 4 l 1,28,-1
 9 6 l 1,29,-1
 9 8 l 1,30,-1
 9 10 l 1,31,-1
 9 12 l 1,32,-1
 7 12 l 1,33,-1
 5 12 l 1,34,-1
 5 10 l 1,35,-1
 5 8 l 1,36,-1
 5 6 l 1,37,-1
 5 4 l 1,38,-1
 5 2 l 1,39,-1
 7 2 l 1,26,-1
7 16 m 1,40,-1
 5 16 l 1,41,-1
 5 18 l 1,42,-1
 7 18 l 1,43,-1
 7 20 l 1,44,-1
 9 20 l 1,45,-1
 11 20 l 1,46,-1
 11 18 l 1,47,-1
 9 18 l 1,48,-1
 9 16 l 1,49,-1
 7 16 l 1,40,-1
EndSplineSet
EndChar

StartChar: Ocircumflex
Encoding: 212 212 147
Width: 15
VWidth: 16
GlyphClass: 2
Flags: W
LayerCount: 2
Fore
SplineSet
9 0 m 1,0,-1
 7 0 l 1,1,-1
 5 0 l 1,2,-1
 3 0 l 1,3,-1
 3 2 l 1,4,-1
 1 2 l 1,5,-1
 1 4 l 1,6,-1
 1 6 l 1,7,-1
 1 8 l 1,8,-1
 1 10 l 1,9,-1
 1 12 l 1,10,-1
 3 12 l 1,11,-1
 3 14 l 1,12,-1
 5 14 l 1,13,-1
 7 14 l 1,14,-1
 9 14 l 1,15,-1
 11 14 l 1,16,-1
 11 12 l 1,17,-1
 13 12 l 1,18,-1
 13 10 l 1,19,-1
 13 8 l 1,20,-1
 13 6 l 1,21,-1
 13 4 l 1,22,-1
 13 2 l 1,23,-1
 11 2 l 1,24,-1
 11 0 l 1,25,-1
 9 0 l 1,0,-1
7 2 m 1,26,-1
 9 2 l 1,27,-1
 9 4 l 1,28,-1
 9 6 l 1,29,-1
 9 8 l 1,30,-1
 9 10 l 1,31,-1
 9 12 l 1,32,-1
 7 12 l 1,33,-1
 5 12 l 1,34,-1
 5 10 l 1,35,-1
 5 8 l 1,36,-1
 5 6 l 1,37,-1
 5 4 l 1,38,-1
 5 2 l 1,39,-1
 7 2 l 1,26,-1
9 16 m 1,40,-1
 7 16 l 1,41,-1
 5 16 l 1,42,-1
 3 16 l 1,43,-1
 3 18 l 1,44,-1
 5 18 l 1,45,-1
 5 20 l 1,46,-1
 7 20 l 1,47,-1
 9 20 l 1,48,-1
 9 18 l 1,49,-1
 11 18 l 1,50,-1
 11 16 l 1,51,-1
 9 16 l 1,40,-1
EndSplineSet
EndChar

StartChar: Otilde
Encoding: 213 213 148
Width: 15
VWidth: 16
GlyphClass: 2
Flags: W
LayerCount: 2
Fore
SplineSet
9 0 m 1,0,-1
 7 0 l 1,1,-1
 5 0 l 1,2,-1
 3 0 l 1,3,-1
 3 2 l 1,4,-1
 1 2 l 1,5,-1
 1 4 l 1,6,-1
 1 6 l 1,7,-1
 1 8 l 1,8,-1
 1 10 l 1,9,-1
 1 12 l 1,10,-1
 3 12 l 1,11,-1
 3 14 l 1,12,-1
 5 14 l 1,13,-1
 7 14 l 1,14,-1
 9 14 l 1,15,-1
 11 14 l 1,16,-1
 11 12 l 1,17,-1
 13 12 l 1,18,-1
 13 10 l 1,19,-1
 13 8 l 1,20,-1
 13 6 l 1,21,-1
 13 4 l 1,22,-1
 13 2 l 1,23,-1
 11 2 l 1,24,-1
 11 0 l 1,25,-1
 9 0 l 1,0,-1
7 2 m 1,26,-1
 9 2 l 1,27,-1
 9 4 l 1,28,-1
 9 6 l 1,29,-1
 9 8 l 1,30,-1
 9 10 l 1,31,-1
 9 12 l 1,32,-1
 7 12 l 1,33,-1
 5 12 l 1,34,-1
 5 10 l 1,35,-1
 5 8 l 1,36,-1
 5 6 l 1,37,-1
 5 4 l 1,38,-1
 5 2 l 1,39,-1
 7 2 l 1,26,-1
9 16 m 1,40,-1
 7 16 l 1,41,-1
 5 16 l 1,42,-1
 3 16 l 1,43,-1
 3 18 l 1,44,-1
 5 18 l 1,45,-1
 5 20 l 1,46,-1
 7 20 l 1,47,-1
 9 20 l 1,48,-1
 11 20 l 1,49,-1
 13 20 l 1,50,-1
 13 18 l 1,51,-1
 11 18 l 1,52,-1
 11 16 l 1,53,-1
 9 16 l 1,40,-1
EndSplineSet
EndChar

StartChar: Odieresis
Encoding: 214 214 149
Width: 15
VWidth: 16
GlyphClass: 2
Flags: W
LayerCount: 2
Fore
SplineSet
9 0 m 1,0,-1
 7 0 l 1,1,-1
 5 0 l 1,2,-1
 3 0 l 1,3,-1
 3 2 l 1,4,-1
 1 2 l 1,5,-1
 1 4 l 1,6,-1
 1 6 l 1,7,-1
 1 8 l 1,8,-1
 1 10 l 1,9,-1
 1 12 l 1,10,-1
 3 12 l 1,11,-1
 3 14 l 1,12,-1
 5 14 l 1,13,-1
 7 14 l 1,14,-1
 9 14 l 1,15,-1
 11 14 l 1,16,-1
 11 12 l 1,17,-1
 13 12 l 1,18,-1
 13 10 l 1,19,-1
 13 8 l 1,20,-1
 13 6 l 1,21,-1
 13 4 l 1,22,-1
 13 2 l 1,23,-1
 11 2 l 1,24,-1
 11 0 l 1,25,-1
 9 0 l 1,0,-1
7 2 m 1,26,-1
 9 2 l 1,27,-1
 9 4 l 1,28,-1
 9 6 l 1,29,-1
 9 8 l 1,30,-1
 9 10 l 1,31,-1
 9 12 l 1,32,-1
 7 12 l 1,33,-1
 5 12 l 1,34,-1
 5 10 l 1,35,-1
 5 8 l 1,36,-1
 5 6 l 1,37,-1
 5 4 l 1,38,-1
 5 2 l 1,39,-1
 7 2 l 1,26,-1
9 18 m 1,40,-1
 11 18 l 1,41,-1
 11 16 l 1,42,-1
 9 16 l 1,43,-1
 7 16 l 1,44,-1
 5 16 l 1,45,-1
 3 16 l 1,46,-1
 3 18 l 1,47,-1
 5 18 l 1,48,-1
 7 18 l 1,49,-1
 9 18 l 1,40,-1
EndSplineSet
EndChar

StartChar: multiply
Encoding: 215 215 150
Width: 15
VWidth: 16
GlyphClass: 2
Flags: W
LayerCount: 2
Fore
SplineSet
11 2 m 1,0,-1
 9 2 l 1,1,-1
 9 4 l 1,2,-1
 7 4 l 1,3,-1
 5 4 l 1,4,-1
 5 2 l 1,5,-1
 3 2 l 1,6,-1
 1 2 l 1,7,-1
 1 4 l 1,8,-1
 3 4 l 1,9,-1
 3 6 l 1,10,-1
 5 6 l 1,11,-1
 5 8 l 1,12,-1
 3 8 l 1,13,-1
 3 10 l 1,14,-1
 1 10 l 1,15,-1
 1 12 l 1,16,-1
 3 12 l 1,17,-1
 5 12 l 1,18,-1
 5 10 l 1,19,-1
 7 10 l 1,20,-1
 9 10 l 1,21,-1
 9 12 l 1,22,-1
 11 12 l 1,23,-1
 13 12 l 1,24,-1
 13 10 l 1,25,-1
 11 10 l 1,26,-1
 11 8 l 1,27,-1
 9 8 l 1,28,-1
 9 6 l 1,29,-1
 11 6 l 1,30,-1
 11 4 l 1,31,-1
 13 4 l 1,32,-1
 13 2 l 1,33,-1
 11 2 l 1,0,-1
EndSplineSet
EndChar

StartChar: Oslash
Encoding: 216 216 151
Width: 15
VWidth: 16
GlyphClass: 2
Flags: W
LayerCount: 2
Fore
SplineSet
9 0 m 1,0,-1
 7 0 l 1,1,-1
 5 0 l 1,2,-1
 3 0 l 1,3,-1
 3 2 l 1,4,-1
 1 2 l 1,5,-1
 1 4 l 1,6,-1
 1 6 l 1,7,-1
 1 8 l 1,8,-1
 1 10 l 1,9,-1
 1 12 l 1,10,-1
 3 12 l 1,11,-1
 3 14 l 1,12,-1
 5 14 l 1,13,-1
 7 14 l 1,14,-1
 9 14 l 1,15,-1
 11 14 l 1,16,-1
 11 12 l 1,17,-1
 13 12 l 1,18,-1
 13 10 l 1,19,-1
 13 8 l 1,20,-1
 13 6 l 1,21,-1
 13 4 l 1,22,-1
 13 2 l 1,23,-1
 11 2 l 1,24,-1
 11 0 l 1,25,-1
 9 0 l 1,0,-1
9 2 m 1,26,-1
 9 4 l 1,27,-1
 9 6 l 1,28,-1
 7 6 l 1,29,-1
 7 4 l 1,30,-1
 7 2 l 1,31,-1
 9 2 l 1,26,-1
7 8 m 1,32,-1
 7 10 l 1,33,-1
 7 12 l 1,34,-1
 5 12 l 1,35,-1
 5 10 l 1,36,-1
 5 8 l 1,37,-1
 7 8 l 1,32,-1
EndSplineSet
EndChar

StartChar: Ugrave
Encoding: 217 217 152
Width: 15
VWidth: 16
GlyphClass: 2
Flags: W
LayerCount: 2
Fore
SplineSet
9 0 m 1,0,-1
 7 0 l 1,1,-1
 5 0 l 1,2,-1
 3 0 l 1,3,-1
 3 2 l 1,4,-1
 1 2 l 1,5,-1
 1 4 l 1,6,-1
 1 6 l 1,7,-1
 1 8 l 1,8,-1
 1 10 l 1,9,-1
 1 12 l 1,10,-1
 1 14 l 1,11,-1
 3 14 l 1,12,-1
 5 14 l 1,13,-1
 5 12 l 1,14,-1
 5 10 l 1,15,-1
 5 8 l 1,16,-1
 5 6 l 1,17,-1
 5 4 l 1,18,-1
 5 2 l 1,19,-1
 7 2 l 1,20,-1
 9 2 l 1,21,-1
 9 4 l 1,22,-1
 9 6 l 1,23,-1
 9 8 l 1,24,-1
 9 10 l 1,25,-1
 9 12 l 1,26,-1
 9 14 l 1,27,-1
 11 14 l 1,28,-1
 13 14 l 1,29,-1
 13 12 l 1,30,-1
 13 10 l 1,31,-1
 13 8 l 1,32,-1
 13 6 l 1,33,-1
 13 4 l 1,34,-1
 13 2 l 1,35,-1
 11 2 l 1,36,-1
 11 0 l 1,37,-1
 9 0 l 1,0,-1
7 16 m 1,38,-1
 5 16 l 1,39,-1
 5 18 l 1,40,-1
 3 18 l 1,41,-1
 3 20 l 1,42,-1
 5 20 l 1,43,-1
 7 20 l 1,44,-1
 7 18 l 1,45,-1
 9 18 l 1,46,-1
 9 16 l 1,47,-1
 7 16 l 1,38,-1
EndSplineSet
EndChar

StartChar: Uacute
Encoding: 218 218 153
Width: 15
VWidth: 16
GlyphClass: 2
Flags: W
LayerCount: 2
Fore
SplineSet
9 0 m 1,0,-1
 7 0 l 1,1,-1
 5 0 l 1,2,-1
 3 0 l 1,3,-1
 3 2 l 1,4,-1
 1 2 l 1,5,-1
 1 4 l 1,6,-1
 1 6 l 1,7,-1
 1 8 l 1,8,-1
 1 10 l 1,9,-1
 1 12 l 1,10,-1
 1 14 l 1,11,-1
 3 14 l 1,12,-1
 5 14 l 1,13,-1
 5 12 l 1,14,-1
 5 10 l 1,15,-1
 5 8 l 1,16,-1
 5 6 l 1,17,-1
 5 4 l 1,18,-1
 5 2 l 1,19,-1
 7 2 l 1,20,-1
 9 2 l 1,21,-1
 9 4 l 1,22,-1
 9 6 l 1,23,-1
 9 8 l 1,24,-1
 9 10 l 1,25,-1
 9 12 l 1,26,-1
 9 14 l 1,27,-1
 11 14 l 1,28,-1
 13 14 l 1,29,-1
 13 12 l 1,30,-1
 13 10 l 1,31,-1
 13 8 l 1,32,-1
 13 6 l 1,33,-1
 13 4 l 1,34,-1
 13 2 l 1,35,-1
 11 2 l 1,36,-1
 11 0 l 1,37,-1
 9 0 l 1,0,-1
7 16 m 1,38,-1
 5 16 l 1,39,-1
 5 18 l 1,40,-1
 7 18 l 1,41,-1
 7 20 l 1,42,-1
 9 20 l 1,43,-1
 11 20 l 1,44,-1
 11 18 l 1,45,-1
 9 18 l 1,46,-1
 9 16 l 1,47,-1
 7 16 l 1,38,-1
EndSplineSet
EndChar

StartChar: Ucircumflex
Encoding: 219 219 154
Width: 15
VWidth: 16
GlyphClass: 2
Flags: W
LayerCount: 2
Fore
SplineSet
9 0 m 1,0,-1
 7 0 l 1,1,-1
 5 0 l 1,2,-1
 3 0 l 1,3,-1
 3 2 l 1,4,-1
 1 2 l 1,5,-1
 1 4 l 1,6,-1
 1 6 l 1,7,-1
 1 8 l 1,8,-1
 1 10 l 1,9,-1
 1 12 l 1,10,-1
 1 14 l 1,11,-1
 3 14 l 1,12,-1
 5 14 l 1,13,-1
 5 12 l 1,14,-1
 5 10 l 1,15,-1
 5 8 l 1,16,-1
 5 6 l 1,17,-1
 5 4 l 1,18,-1
 5 2 l 1,19,-1
 7 2 l 1,20,-1
 9 2 l 1,21,-1
 9 4 l 1,22,-1
 9 6 l 1,23,-1
 9 8 l 1,24,-1
 9 10 l 1,25,-1
 9 12 l 1,26,-1
 9 14 l 1,27,-1
 11 14 l 1,28,-1
 13 14 l 1,29,-1
 13 12 l 1,30,-1
 13 10 l 1,31,-1
 13 8 l 1,32,-1
 13 6 l 1,33,-1
 13 4 l 1,34,-1
 13 2 l 1,35,-1
 11 2 l 1,36,-1
 11 0 l 1,37,-1
 9 0 l 1,0,-1
9 16 m 1,38,-1
 7 16 l 1,39,-1
 5 16 l 1,40,-1
 3 16 l 1,41,-1
 3 18 l 1,42,-1
 5 18 l 1,43,-1
 5 20 l 1,44,-1
 7 20 l 1,45,-1
 9 20 l 1,46,-1
 9 18 l 1,47,-1
 11 18 l 1,48,-1
 11 16 l 1,49,-1
 9 16 l 1,38,-1
EndSplineSet
EndChar

StartChar: Udieresis
Encoding: 220 220 155
Width: 15
VWidth: 16
GlyphClass: 2
Flags: W
LayerCount: 2
Fore
SplineSet
9 0 m 1,0,-1
 7 0 l 1,1,-1
 5 0 l 1,2,-1
 3 0 l 1,3,-1
 3 2 l 1,4,-1
 1 2 l 1,5,-1
 1 4 l 1,6,-1
 1 6 l 1,7,-1
 1 8 l 1,8,-1
 1 10 l 1,9,-1
 1 12 l 1,10,-1
 1 14 l 1,11,-1
 3 14 l 1,12,-1
 5 14 l 1,13,-1
 5 12 l 1,14,-1
 5 10 l 1,15,-1
 5 8 l 1,16,-1
 5 6 l 1,17,-1
 5 4 l 1,18,-1
 5 2 l 1,19,-1
 7 2 l 1,20,-1
 9 2 l 1,21,-1
 9 4 l 1,22,-1
 9 6 l 1,23,-1
 9 8 l 1,24,-1
 9 10 l 1,25,-1
 9 12 l 1,26,-1
 9 14 l 1,27,-1
 11 14 l 1,28,-1
 13 14 l 1,29,-1
 13 12 l 1,30,-1
 13 10 l 1,31,-1
 13 8 l 1,32,-1
 13 6 l 1,33,-1
 13 4 l 1,34,-1
 13 2 l 1,35,-1
 11 2 l 1,36,-1
 11 0 l 1,37,-1
 9 0 l 1,0,-1
9 18 m 1,38,-1
 11 18 l 1,39,-1
 11 16 l 1,40,-1
 9 16 l 1,41,-1
 7 16 l 1,42,-1
 5 16 l 1,43,-1
 3 16 l 1,44,-1
 3 18 l 1,45,-1
 5 18 l 1,46,-1
 7 18 l 1,47,-1
 9 18 l 1,38,-1
EndSplineSet
EndChar

StartChar: Yacute
Encoding: 221 221 156
Width: 15
VWidth: 16
GlyphClass: 2
Flags: W
LayerCount: 2
Fore
SplineSet
7 0 m 1,0,-1
 5 0 l 1,1,-1
 5 2 l 1,2,-1
 5 4 l 1,3,-1
 5 6 l 1,4,-1
 5 8 l 1,5,-1
 5 10 l 1,6,-1
 3 10 l 1,7,-1
 3 12 l 1,8,-1
 1 12 l 1,9,-1
 1 14 l 1,10,-1
 3 14 l 1,11,-1
 5 14 l 1,12,-1
 5 12 l 1,13,-1
 7 12 l 1,14,-1
 9 12 l 1,15,-1
 9 14 l 1,16,-1
 11 14 l 1,17,-1
 13 14 l 1,18,-1
 13 12 l 1,19,-1
 11 12 l 1,20,-1
 11 10 l 1,21,-1
 9 10 l 1,22,-1
 9 8 l 1,23,-1
 9 6 l 1,24,-1
 9 4 l 1,25,-1
 9 2 l 1,26,-1
 9 0 l 1,27,-1
 7 0 l 1,0,-1
7 16 m 1,28,-1
 5 16 l 1,29,-1
 5 18 l 1,30,-1
 7 18 l 1,31,-1
 7 20 l 1,32,-1
 9 20 l 1,33,-1
 11 20 l 1,34,-1
 11 18 l 1,35,-1
 9 18 l 1,36,-1
 9 16 l 1,37,-1
 7 16 l 1,28,-1
EndSplineSet
EndChar

StartChar: Thorn
Encoding: 222 222 157
Width: 15
VWidth: 16
GlyphClass: 2
Flags: W
LayerCount: 2
Fore
SplineSet
3 0 m 1,0,-1
 1 0 l 1,1,-1
 1 2 l 1,2,-1
 1 4 l 1,3,-1
 1 6 l 1,4,-1
 1 8 l 1,5,-1
 1 10 l 1,6,-1
 1 12 l 1,7,-1
 1 14 l 1,8,-1
 3 14 l 1,9,-1
 5 14 l 1,10,-1
 5 12 l 1,11,-1
 5 10 l 1,12,-1
 7 10 l 1,13,-1
 9 10 l 1,14,-1
 11 10 l 1,15,-1
 11 8 l 1,16,-1
 13 8 l 1,17,-1
 13 6 l 1,18,-1
 11 6 l 1,19,-1
 11 4 l 1,20,-1
 9 4 l 1,21,-1
 7 4 l 1,22,-1
 5 4 l 1,23,-1
 5 2 l 1,24,-1
 5 0 l 1,25,-1
 3 0 l 1,0,-1
7 6 m 1,26,-1
 9 6 l 1,27,-1
 9 8 l 1,28,-1
 7 8 l 1,29,-1
 5 8 l 1,30,-1
 5 6 l 1,31,-1
 7 6 l 1,26,-1
EndSplineSet
EndChar

StartChar: germandbls
Encoding: 223 223 158
Width: 15
VWidth: 16
GlyphClass: 2
Flags: W
LayerCount: 2
Fore
SplineSet
3 -2 m 1,0,-1
 1 -2 l 1,1,-1
 1 0 l 1,2,-1
 1 2 l 1,3,-1
 1 4 l 1,4,-1
 1 6 l 1,5,-1
 1 8 l 1,6,-1
 1 10 l 1,7,-1
 1 12 l 1,8,-1
 3 12 l 1,9,-1
 3 14 l 1,10,-1
 5 14 l 1,11,-1
 7 14 l 1,12,-1
 9 14 l 1,13,-1
 11 14 l 1,14,-1
 11 12 l 1,15,-1
 13 12 l 1,16,-1
 13 10 l 1,17,-1
 11 10 l 1,18,-1
 11 8 l 1,19,-1
 13 8 l 1,20,-1
 13 6 l 1,21,-1
 13 4 l 1,22,-1
 13 2 l 1,23,-1
 11 2 l 1,24,-1
 11 0 l 1,25,-1
 9 0 l 1,26,-1
 7 0 l 1,27,-1
 5 0 l 1,28,-1
 5 -2 l 1,29,-1
 3 -2 l 1,0,-1
7 2 m 1,30,-1
 9 2 l 1,31,-1
 9 4 l 1,32,-1
 9 6 l 1,33,-1
 9 8 l 1,34,-1
 7 8 l 1,35,-1
 5 8 l 1,36,-1
 5 6 l 1,37,-1
 5 4 l 1,38,-1
 5 2 l 1,39,-1
 7 2 l 1,30,-1
7 10 m 1,40,-1
 9 10 l 1,41,-1
 9 12 l 1,42,-1
 7 12 l 1,43,-1
 5 12 l 1,44,-1
 5 10 l 1,45,-1
 7 10 l 1,40,-1
EndSplineSet
EndChar

StartChar: agrave
Encoding: 224 224 159
Width: 15
VWidth: 16
GlyphClass: 2
Flags: W
LayerCount: 2
Fore
SplineSet
11 0 m 1,0,-1
 9 0 l 1,1,-1
 7 0 l 1,2,-1
 5 0 l 1,3,-1
 3 0 l 1,4,-1
 3 2 l 1,5,-1
 1 2 l 1,6,-1
 1 4 l 1,7,-1
 3 4 l 1,8,-1
 3 6 l 1,9,-1
 5 6 l 1,10,-1
 7 6 l 1,11,-1
 9 6 l 1,12,-1
 9 8 l 1,13,-1
 7 8 l 1,14,-1
 5 8 l 1,15,-1
 3 8 l 1,16,-1
 3 10 l 1,17,-1
 5 10 l 1,18,-1
 7 10 l 1,19,-1
 9 10 l 1,20,-1
 11 10 l 1,21,-1
 11 8 l 1,22,-1
 13 8 l 1,23,-1
 13 6 l 1,24,-1
 13 4 l 1,25,-1
 13 2 l 1,26,-1
 13 0 l 1,27,-1
 11 0 l 1,0,-1
7 2 m 1,28,-1
 9 2 l 1,29,-1
 9 4 l 1,30,-1
 7 4 l 1,31,-1
 5 4 l 1,32,-1
 5 2 l 1,33,-1
 7 2 l 1,28,-1
7 12 m 1,34,-1
 5 12 l 1,35,-1
 5 14 l 1,36,-1
 3 14 l 1,37,-1
 3 16 l 1,38,-1
 5 16 l 1,39,-1
 7 16 l 1,40,-1
 7 14 l 1,41,-1
 9 14 l 1,42,-1
 9 12 l 1,43,-1
 7 12 l 1,34,-1
EndSplineSet
EndChar

StartChar: aacute
Encoding: 225 225 160
Width: 15
VWidth: 16
GlyphClass: 2
Flags: W
LayerCount: 2
Fore
SplineSet
11 0 m 1,0,-1
 9 0 l 1,1,-1
 7 0 l 1,2,-1
 5 0 l 1,3,-1
 3 0 l 1,4,-1
 3 2 l 1,5,-1
 1 2 l 1,6,-1
 1 4 l 1,7,-1
 3 4 l 1,8,-1
 3 6 l 1,9,-1
 5 6 l 1,10,-1
 7 6 l 1,11,-1
 9 6 l 1,12,-1
 9 8 l 1,13,-1
 7 8 l 1,14,-1
 5 8 l 1,15,-1
 3 8 l 1,16,-1
 3 10 l 1,17,-1
 5 10 l 1,18,-1
 7 10 l 1,19,-1
 9 10 l 1,20,-1
 11 10 l 1,21,-1
 11 8 l 1,22,-1
 13 8 l 1,23,-1
 13 6 l 1,24,-1
 13 4 l 1,25,-1
 13 2 l 1,26,-1
 13 0 l 1,27,-1
 11 0 l 1,0,-1
7 2 m 1,28,-1
 9 2 l 1,29,-1
 9 4 l 1,30,-1
 7 4 l 1,31,-1
 5 4 l 1,32,-1
 5 2 l 1,33,-1
 7 2 l 1,28,-1
7 12 m 1,34,-1
 5 12 l 1,35,-1
 5 14 l 1,36,-1
 7 14 l 1,37,-1
 7 16 l 1,38,-1
 9 16 l 1,39,-1
 11 16 l 1,40,-1
 11 14 l 1,41,-1
 9 14 l 1,42,-1
 9 12 l 1,43,-1
 7 12 l 1,34,-1
EndSplineSet
EndChar

StartChar: acircumflex
Encoding: 226 226 161
Width: 15
VWidth: 16
GlyphClass: 2
Flags: W
LayerCount: 2
Fore
SplineSet
11 0 m 1,0,-1
 9 0 l 1,1,-1
 7 0 l 1,2,-1
 5 0 l 1,3,-1
 3 0 l 1,4,-1
 3 2 l 1,5,-1
 1 2 l 1,6,-1
 1 4 l 1,7,-1
 3 4 l 1,8,-1
 3 6 l 1,9,-1
 5 6 l 1,10,-1
 7 6 l 1,11,-1
 9 6 l 1,12,-1
 9 8 l 1,13,-1
 7 8 l 1,14,-1
 5 8 l 1,15,-1
 3 8 l 1,16,-1
 3 10 l 1,17,-1
 5 10 l 1,18,-1
 7 10 l 1,19,-1
 9 10 l 1,20,-1
 11 10 l 1,21,-1
 11 8 l 1,22,-1
 13 8 l 1,23,-1
 13 6 l 1,24,-1
 13 4 l 1,25,-1
 13 2 l 1,26,-1
 13 0 l 1,27,-1
 11 0 l 1,0,-1
7 2 m 1,28,-1
 9 2 l 1,29,-1
 9 4 l 1,30,-1
 7 4 l 1,31,-1
 5 4 l 1,32,-1
 5 2 l 1,33,-1
 7 2 l 1,28,-1
9 12 m 1,34,-1
 7 12 l 1,35,-1
 5 12 l 1,36,-1
 3 12 l 1,37,-1
 3 14 l 1,38,-1
 5 14 l 1,39,-1
 5 16 l 1,40,-1
 7 16 l 1,41,-1
 9 16 l 1,42,-1
 9 14 l 1,43,-1
 11 14 l 1,44,-1
 11 12 l 1,45,-1
 9 12 l 1,34,-1
EndSplineSet
EndChar

StartChar: atilde
Encoding: 227 227 162
Width: 15
VWidth: 16
GlyphClass: 2
Flags: W
LayerCount: 2
Fore
SplineSet
11 0 m 1,0,-1
 9 0 l 1,1,-1
 7 0 l 1,2,-1
 5 0 l 1,3,-1
 3 0 l 1,4,-1
 3 2 l 1,5,-1
 1 2 l 1,6,-1
 1 4 l 1,7,-1
 3 4 l 1,8,-1
 3 6 l 1,9,-1
 5 6 l 1,10,-1
 7 6 l 1,11,-1
 9 6 l 1,12,-1
 9 8 l 1,13,-1
 7 8 l 1,14,-1
 5 8 l 1,15,-1
 3 8 l 1,16,-1
 3 10 l 1,17,-1
 5 10 l 1,18,-1
 7 10 l 1,19,-1
 9 10 l 1,20,-1
 11 10 l 1,21,-1
 11 8 l 1,22,-1
 13 8 l 1,23,-1
 13 6 l 1,24,-1
 13 4 l 1,25,-1
 13 2 l 1,26,-1
 13 0 l 1,27,-1
 11 0 l 1,0,-1
7 2 m 1,28,-1
 9 2 l 1,29,-1
 9 4 l 1,30,-1
 7 4 l 1,31,-1
 5 4 l 1,32,-1
 5 2 l 1,33,-1
 7 2 l 1,28,-1
9 12 m 1,34,-1
 7 12 l 1,35,-1
 5 12 l 1,36,-1
 3 12 l 1,37,-1
 3 14 l 1,38,-1
 5 14 l 1,39,-1
 5 16 l 1,40,-1
 7 16 l 1,41,-1
 9 16 l 1,42,-1
 11 16 l 1,43,-1
 13 16 l 1,44,-1
 13 14 l 1,45,-1
 11 14 l 1,46,-1
 11 12 l 1,47,-1
 9 12 l 1,34,-1
EndSplineSet
EndChar

StartChar: adieresis
Encoding: 228 228 163
Width: 15
VWidth: 16
GlyphClass: 2
Flags: W
LayerCount: 2
Fore
SplineSet
11 0 m 1,0,-1
 9 0 l 1,1,-1
 7 0 l 1,2,-1
 5 0 l 1,3,-1
 3 0 l 1,4,-1
 3 2 l 1,5,-1
 1 2 l 1,6,-1
 1 4 l 1,7,-1
 3 4 l 1,8,-1
 3 6 l 1,9,-1
 5 6 l 1,10,-1
 7 6 l 1,11,-1
 9 6 l 1,12,-1
 9 8 l 1,13,-1
 7 8 l 1,14,-1
 5 8 l 1,15,-1
 3 8 l 1,16,-1
 3 10 l 1,17,-1
 5 10 l 1,18,-1
 7 10 l 1,19,-1
 9 10 l 1,20,-1
 11 10 l 1,21,-1
 11 8 l 1,22,-1
 13 8 l 1,23,-1
 13 6 l 1,24,-1
 13 4 l 1,25,-1
 13 2 l 1,26,-1
 13 0 l 1,27,-1
 11 0 l 1,0,-1
7 2 m 1,28,-1
 9 2 l 1,29,-1
 9 4 l 1,30,-1
 7 4 l 1,31,-1
 5 4 l 1,32,-1
 5 2 l 1,33,-1
 7 2 l 1,28,-1
9 14 m 1,34,-1
 11 14 l 1,35,-1
 11 12 l 1,36,-1
 9 12 l 1,37,-1
 7 12 l 1,38,-1
 5 12 l 1,39,-1
 3 12 l 1,40,-1
 3 14 l 1,41,-1
 5 14 l 1,42,-1
 7 14 l 1,43,-1
 9 14 l 1,34,-1
EndSplineSet
EndChar

StartChar: aring
Encoding: 229 229 164
Width: 15
VWidth: 16
GlyphClass: 2
Flags: W
LayerCount: 2
Fore
SplineSet
11 0 m 1,0,-1
 9 0 l 1,1,-1
 7 0 l 1,2,-1
 5 0 l 1,3,-1
 3 0 l 1,4,-1
 3 2 l 1,5,-1
 1 2 l 1,6,-1
 1 4 l 1,7,-1
 3 4 l 1,8,-1
 3 6 l 1,9,-1
 5 6 l 1,10,-1
 7 6 l 1,11,-1
 9 6 l 1,12,-1
 9 8 l 1,13,-1
 7 8 l 1,14,-1
 5 8 l 1,15,-1
 3 8 l 1,16,-1
 3 10 l 1,17,-1
 5 10 l 1,18,-1
 7 10 l 1,19,-1
 9 10 l 1,20,-1
 11 10 l 1,21,-1
 11 8 l 1,22,-1
 13 8 l 1,23,-1
 13 6 l 1,24,-1
 13 4 l 1,25,-1
 13 2 l 1,26,-1
 13 0 l 1,27,-1
 11 0 l 1,0,-1
7 2 m 1,28,-1
 9 2 l 1,29,-1
 9 4 l 1,30,-1
 7 4 l 1,31,-1
 5 4 l 1,32,-1
 5 2 l 1,33,-1
 7 2 l 1,28,-1
7 12 m 1,34,-1
 5 12 l 1,35,-1
 5 14 l 1,36,-1
 3 14 l 1,37,-1
 3 16 l 1,38,-1
 5 16 l 1,39,-1
 5 18 l 1,40,-1
 7 18 l 1,41,-1
 9 18 l 1,42,-1
 9 16 l 1,43,-1
 11 16 l 1,44,-1
 11 14 l 1,45,-1
 9 14 l 1,46,-1
 9 12 l 1,47,-1
 7 12 l 1,34,-1
EndSplineSet
EndChar

StartChar: ae
Encoding: 230 230 165
Width: 23
VWidth: 16
GlyphClass: 2
Flags: W
LayerCount: 2
Fore
SplineSet
19 2 m 1,0,-1
 21 2 l 1,1,-1
 21 0 l 1,2,-1
 19 0 l 1,3,-1
 17 0 l 1,4,-1
 15 0 l 1,5,-1
 13 0 l 1,6,-1
 11 0 l 1,7,-1
 9 0 l 1,8,-1
 7 0 l 1,9,-1
 5 0 l 1,10,-1
 3 0 l 1,11,-1
 3 2 l 1,12,-1
 1 2 l 1,13,-1
 1 4 l 1,14,-1
 3 4 l 1,15,-1
 3 6 l 1,16,-1
 5 6 l 1,17,-1
 7 6 l 1,18,-1
 9 6 l 1,19,-1
 9 8 l 1,20,-1
 7 8 l 1,21,-1
 5 8 l 1,22,-1
 3 8 l 1,23,-1
 3 10 l 1,24,-1
 5 10 l 1,25,-1
 7 10 l 1,26,-1
 9 10 l 1,27,-1
 11 10 l 1,28,-1
 13 10 l 1,29,-1
 15 10 l 1,30,-1
 17 10 l 1,31,-1
 19 10 l 1,32,-1
 19 8 l 1,33,-1
 21 8 l 1,34,-1
 21 6 l 1,35,-1
 21 4 l 1,36,-1
 19 4 l 1,37,-1
 17 4 l 1,38,-1
 15 4 l 1,39,-1
 13 4 l 1,40,-1
 13 2 l 1,41,-1
 15 2 l 1,42,-1
 17 2 l 1,43,-1
 19 2 l 1,0,-1
7 2 m 1,44,-1
 9 2 l 1,45,-1
 9 4 l 1,46,-1
 7 4 l 1,47,-1
 5 4 l 1,48,-1
 5 2 l 1,49,-1
 7 2 l 1,44,-1
15 6 m 1,50,-1
 17 6 l 1,51,-1
 17 8 l 1,52,-1
 15 8 l 1,53,-1
 13 8 l 1,54,-1
 13 6 l 1,55,-1
 15 6 l 1,50,-1
EndSplineSet
EndChar

StartChar: ccedilla
Encoding: 231 231 166
Width: 15
VWidth: 16
GlyphClass: 2
Flags: W
LayerCount: 2
Fore
SplineSet
7 -4 m 1,0,-1
 5 -4 l 1,1,-1
 5 -2 l 1,2,-1
 7 -2 l 1,3,-1
 7 0 l 1,4,-1
 5 0 l 1,5,-1
 3 0 l 1,6,-1
 3 2 l 1,7,-1
 1 2 l 1,8,-1
 1 4 l 1,9,-1
 1 6 l 1,10,-1
 1 8 l 1,11,-1
 3 8 l 1,12,-1
 3 10 l 1,13,-1
 5 10 l 1,14,-1
 7 10 l 1,15,-1
 9 10 l 1,16,-1
 11 10 l 1,17,-1
 11 8 l 1,18,-1
 13 8 l 1,19,-1
 13 6 l 1,20,-1
 11 6 l 1,21,-1
 9 6 l 1,22,-1
 9 8 l 1,23,-1
 7 8 l 1,24,-1
 5 8 l 1,25,-1
 5 6 l 1,26,-1
 5 4 l 1,27,-1
 5 2 l 1,28,-1
 7 2 l 1,29,-1
 9 2 l 1,30,-1
 9 4 l 1,31,-1
 11 4 l 1,32,-1
 13 4 l 1,33,-1
 13 2 l 1,34,-1
 11 2 l 1,35,-1
 11 0 l 1,36,-1
 11 -2 l 1,37,-1
 9 -2 l 1,38,-1
 9 -4 l 1,39,-1
 7 -4 l 1,0,-1
EndSplineSet
EndChar

StartChar: egrave
Encoding: 232 232 167
Width: 15
VWidth: 16
GlyphClass: 2
Flags: W
LayerCount: 2
Fore
SplineSet
11 2 m 1,0,-1
 13 2 l 1,1,-1
 13 0 l 1,2,-1
 11 0 l 1,3,-1
 9 0 l 1,4,-1
 7 0 l 1,5,-1
 5 0 l 1,6,-1
 3 0 l 1,7,-1
 3 2 l 1,8,-1
 1 2 l 1,9,-1
 1 4 l 1,10,-1
 1 6 l 1,11,-1
 1 8 l 1,12,-1
 3 8 l 1,13,-1
 3 10 l 1,14,-1
 5 10 l 1,15,-1
 7 10 l 1,16,-1
 9 10 l 1,17,-1
 11 10 l 1,18,-1
 11 8 l 1,19,-1
 13 8 l 1,20,-1
 13 6 l 1,21,-1
 13 4 l 1,22,-1
 11 4 l 1,23,-1
 9 4 l 1,24,-1
 7 4 l 1,25,-1
 5 4 l 1,26,-1
 5 2 l 1,27,-1
 7 2 l 1,28,-1
 9 2 l 1,29,-1
 11 2 l 1,0,-1
7 6 m 1,30,-1
 9 6 l 1,31,-1
 9 8 l 1,32,-1
 7 8 l 1,33,-1
 5 8 l 1,34,-1
 5 6 l 1,35,-1
 7 6 l 1,30,-1
7 12 m 1,36,-1
 5 12 l 1,37,-1
 5 14 l 1,38,-1
 3 14 l 1,39,-1
 3 16 l 1,40,-1
 5 16 l 1,41,-1
 7 16 l 1,42,-1
 7 14 l 1,43,-1
 9 14 l 1,44,-1
 9 12 l 1,45,-1
 7 12 l 1,36,-1
EndSplineSet
EndChar

StartChar: eacute
Encoding: 233 233 168
Width: 15
VWidth: 16
GlyphClass: 2
Flags: W
LayerCount: 2
Fore
SplineSet
11 2 m 1,0,-1
 13 2 l 1,1,-1
 13 0 l 1,2,-1
 11 0 l 1,3,-1
 9 0 l 1,4,-1
 7 0 l 1,5,-1
 5 0 l 1,6,-1
 3 0 l 1,7,-1
 3 2 l 1,8,-1
 1 2 l 1,9,-1
 1 4 l 1,10,-1
 1 6 l 1,11,-1
 1 8 l 1,12,-1
 3 8 l 1,13,-1
 3 10 l 1,14,-1
 5 10 l 1,15,-1
 7 10 l 1,16,-1
 9 10 l 1,17,-1
 11 10 l 1,18,-1
 11 8 l 1,19,-1
 13 8 l 1,20,-1
 13 6 l 1,21,-1
 13 4 l 1,22,-1
 11 4 l 1,23,-1
 9 4 l 1,24,-1
 7 4 l 1,25,-1
 5 4 l 1,26,-1
 5 2 l 1,27,-1
 7 2 l 1,28,-1
 9 2 l 1,29,-1
 11 2 l 1,0,-1
7 6 m 1,30,-1
 9 6 l 1,31,-1
 9 8 l 1,32,-1
 7 8 l 1,33,-1
 5 8 l 1,34,-1
 5 6 l 1,35,-1
 7 6 l 1,30,-1
7 12 m 1,36,-1
 5 12 l 1,37,-1
 5 14 l 1,38,-1
 7 14 l 1,39,-1
 7 16 l 1,40,-1
 9 16 l 1,41,-1
 11 16 l 1,42,-1
 11 14 l 1,43,-1
 9 14 l 1,44,-1
 9 12 l 1,45,-1
 7 12 l 1,36,-1
EndSplineSet
EndChar

StartChar: ecircumflex
Encoding: 234 234 169
Width: 15
VWidth: 16
GlyphClass: 2
Flags: W
LayerCount: 2
Fore
SplineSet
11 2 m 1,0,-1
 13 2 l 1,1,-1
 13 0 l 1,2,-1
 11 0 l 1,3,-1
 9 0 l 1,4,-1
 7 0 l 1,5,-1
 5 0 l 1,6,-1
 3 0 l 1,7,-1
 3 2 l 1,8,-1
 1 2 l 1,9,-1
 1 4 l 1,10,-1
 1 6 l 1,11,-1
 1 8 l 1,12,-1
 3 8 l 1,13,-1
 3 10 l 1,14,-1
 5 10 l 1,15,-1
 7 10 l 1,16,-1
 9 10 l 1,17,-1
 11 10 l 1,18,-1
 11 8 l 1,19,-1
 13 8 l 1,20,-1
 13 6 l 1,21,-1
 13 4 l 1,22,-1
 11 4 l 1,23,-1
 9 4 l 1,24,-1
 7 4 l 1,25,-1
 5 4 l 1,26,-1
 5 2 l 1,27,-1
 7 2 l 1,28,-1
 9 2 l 1,29,-1
 11 2 l 1,0,-1
7 6 m 1,30,-1
 9 6 l 1,31,-1
 9 8 l 1,32,-1
 7 8 l 1,33,-1
 5 8 l 1,34,-1
 5 6 l 1,35,-1
 7 6 l 1,30,-1
9 12 m 1,36,-1
 7 12 l 1,37,-1
 5 12 l 1,38,-1
 3 12 l 1,39,-1
 3 14 l 1,40,-1
 5 14 l 1,41,-1
 5 16 l 1,42,-1
 7 16 l 1,43,-1
 9 16 l 1,44,-1
 9 14 l 1,45,-1
 11 14 l 1,46,-1
 11 12 l 1,47,-1
 9 12 l 1,36,-1
EndSplineSet
EndChar

StartChar: edieresis
Encoding: 235 235 170
Width: 15
VWidth: 16
GlyphClass: 2
Flags: W
LayerCount: 2
Fore
SplineSet
11 2 m 1,0,-1
 13 2 l 1,1,-1
 13 0 l 1,2,-1
 11 0 l 1,3,-1
 9 0 l 1,4,-1
 7 0 l 1,5,-1
 5 0 l 1,6,-1
 3 0 l 1,7,-1
 3 2 l 1,8,-1
 1 2 l 1,9,-1
 1 4 l 1,10,-1
 1 6 l 1,11,-1
 1 8 l 1,12,-1
 3 8 l 1,13,-1
 3 10 l 1,14,-1
 5 10 l 1,15,-1
 7 10 l 1,16,-1
 9 10 l 1,17,-1
 11 10 l 1,18,-1
 11 8 l 1,19,-1
 13 8 l 1,20,-1
 13 6 l 1,21,-1
 13 4 l 1,22,-1
 11 4 l 1,23,-1
 9 4 l 1,24,-1
 7 4 l 1,25,-1
 5 4 l 1,26,-1
 5 2 l 1,27,-1
 7 2 l 1,28,-1
 9 2 l 1,29,-1
 11 2 l 1,0,-1
7 6 m 1,30,-1
 9 6 l 1,31,-1
 9 8 l 1,32,-1
 7 8 l 1,33,-1
 5 8 l 1,34,-1
 5 6 l 1,35,-1
 7 6 l 1,30,-1
9 14 m 1,36,-1
 11 14 l 1,37,-1
 11 12 l 1,38,-1
 9 12 l 1,39,-1
 7 12 l 1,40,-1
 5 12 l 1,41,-1
 3 12 l 1,42,-1
 3 14 l 1,43,-1
 5 14 l 1,44,-1
 7 14 l 1,45,-1
 9 14 l 1,36,-1
EndSplineSet
EndChar

StartChar: igrave
Encoding: 236 236 171
Width: 9
VWidth: 16
GlyphClass: 2
Flags: W
LayerCount: 2
Fore
SplineSet
5 0 m 1,0,-1
 3 0 l 1,1,-1
 3 2 l 1,2,-1
 3 4 l 1,3,-1
 3 6 l 1,4,-1
 3 8 l 1,5,-1
 3 10 l 1,6,-1
 5 10 l 1,7,-1
 7 10 l 1,8,-1
 7 8 l 1,9,-1
 7 6 l 1,10,-1
 7 4 l 1,11,-1
 7 2 l 1,12,-1
 7 0 l 1,13,-1
 5 0 l 1,0,-1
5 12 m 1,14,-1
 3 12 l 1,15,-1
 3 14 l 1,16,-1
 1 14 l 1,17,-1
 1 16 l 1,18,-1
 3 16 l 1,19,-1
 5 16 l 1,20,-1
 5 14 l 1,21,-1
 7 14 l 1,22,-1
 7 12 l 1,23,-1
 5 12 l 1,14,-1
EndSplineSet
EndChar

StartChar: iacute
Encoding: 237 237 172
Width: 9
VWidth: 16
GlyphClass: 2
Flags: W
LayerCount: 2
Fore
SplineSet
3 0 m 1,0,-1
 1 0 l 1,1,-1
 1 2 l 1,2,-1
 1 4 l 1,3,-1
 1 6 l 1,4,-1
 1 8 l 1,5,-1
 1 10 l 1,6,-1
 3 10 l 1,7,-1
 5 10 l 1,8,-1
 5 8 l 1,9,-1
 5 6 l 1,10,-1
 5 4 l 1,11,-1
 5 2 l 1,12,-1
 5 0 l 1,13,-1
 3 0 l 1,0,-1
3 12 m 1,14,-1
 1 12 l 1,15,-1
 1 14 l 1,16,-1
 3 14 l 1,17,-1
 3 16 l 1,18,-1
 5 16 l 1,19,-1
 7 16 l 1,20,-1
 7 14 l 1,21,-1
 5 14 l 1,22,-1
 5 12 l 1,23,-1
 3 12 l 1,14,-1
EndSplineSet
EndChar

StartChar: icircumflex
Encoding: 238 238 173
Width: 11
VWidth: 16
GlyphClass: 2
Flags: W
LayerCount: 2
Fore
SplineSet
5 0 m 1,0,-1
 3 0 l 1,1,-1
 3 2 l 1,2,-1
 3 4 l 1,3,-1
 3 6 l 1,4,-1
 3 8 l 1,5,-1
 3 10 l 1,6,-1
 5 10 l 1,7,-1
 7 10 l 1,8,-1
 7 8 l 1,9,-1
 7 6 l 1,10,-1
 7 4 l 1,11,-1
 7 2 l 1,12,-1
 7 0 l 1,13,-1
 5 0 l 1,0,-1
7 12 m 1,14,-1
 5 12 l 1,15,-1
 3 12 l 1,16,-1
 1 12 l 1,17,-1
 1 14 l 1,18,-1
 3 14 l 1,19,-1
 3 16 l 1,20,-1
 5 16 l 1,21,-1
 7 16 l 1,22,-1
 7 14 l 1,23,-1
 9 14 l 1,24,-1
 9 12 l 1,25,-1
 7 12 l 1,14,-1
EndSplineSet
EndChar

StartChar: idieresis
Encoding: 239 239 174
Width: 11
VWidth: 16
GlyphClass: 2
Flags: W
LayerCount: 2
Fore
SplineSet
5 0 m 1,0,-1
 3 0 l 1,1,-1
 3 2 l 1,2,-1
 3 4 l 1,3,-1
 3 6 l 1,4,-1
 3 8 l 1,5,-1
 3 10 l 1,6,-1
 5 10 l 1,7,-1
 7 10 l 1,8,-1
 7 8 l 1,9,-1
 7 6 l 1,10,-1
 7 4 l 1,11,-1
 7 2 l 1,12,-1
 7 0 l 1,13,-1
 5 0 l 1,0,-1
7 14 m 1,14,-1
 9 14 l 1,15,-1
 9 12 l 1,16,-1
 7 12 l 1,17,-1
 5 12 l 1,18,-1
 3 12 l 1,19,-1
 1 12 l 1,20,-1
 1 14 l 1,21,-1
 3 14 l 1,22,-1
 5 14 l 1,23,-1
 7 14 l 1,14,-1
EndSplineSet
EndChar

StartChar: eth
Encoding: 240 240 175
Width: 15
VWidth: 16
GlyphClass: 2
Flags: W
LayerCount: 2
Fore
SplineSet
9 0 m 1,0,-1
 7 0 l 1,1,-1
 5 0 l 1,2,-1
 3 0 l 1,3,-1
 3 2 l 1,4,-1
 1 2 l 1,5,-1
 1 4 l 1,6,-1
 3 4 l 1,7,-1
 3 6 l 1,8,-1
 5 6 l 1,9,-1
 7 6 l 1,10,-1
 9 6 l 1,11,-1
 9 8 l 1,12,-1
 7 8 l 1,13,-1
 5 8 l 1,14,-1
 5 10 l 1,15,-1
 7 10 l 1,16,-1
 7 12 l 1,17,-1
 5 12 l 1,18,-1
 3 12 l 1,19,-1
 3 14 l 1,20,-1
 5 14 l 1,21,-1
 7 14 l 1,22,-1
 9 14 l 1,23,-1
 11 14 l 1,24,-1
 13 14 l 1,25,-1
 13 12 l 1,26,-1
 11 12 l 1,27,-1
 11 10 l 1,28,-1
 13 10 l 1,29,-1
 13 8 l 1,30,-1
 13 6 l 1,31,-1
 13 4 l 1,32,-1
 13 2 l 1,33,-1
 11 2 l 1,34,-1
 11 0 l 1,35,-1
 9 0 l 1,0,-1
7 2 m 1,36,-1
 9 2 l 1,37,-1
 9 4 l 1,38,-1
 7 4 l 1,39,-1
 5 4 l 1,40,-1
 5 2 l 1,41,-1
 7 2 l 1,36,-1
EndSplineSet
EndChar

StartChar: ntilde
Encoding: 241 241 176
Width: 15
VWidth: 16
GlyphClass: 2
Flags: W
LayerCount: 2
Fore
SplineSet
11 0 m 1,0,-1
 9 0 l 1,1,-1
 9 2 l 1,2,-1
 9 4 l 1,3,-1
 9 6 l 1,4,-1
 9 8 l 1,5,-1
 7 8 l 1,6,-1
 5 8 l 1,7,-1
 5 6 l 1,8,-1
 5 4 l 1,9,-1
 5 2 l 1,10,-1
 5 0 l 1,11,-1
 3 0 l 1,12,-1
 1 0 l 1,13,-1
 1 2 l 1,14,-1
 1 4 l 1,15,-1
 1 6 l 1,16,-1
 1 8 l 1,17,-1
 1 10 l 1,18,-1
 3 10 l 1,19,-1
 5 10 l 1,20,-1
 7 10 l 1,21,-1
 9 10 l 1,22,-1
 11 10 l 1,23,-1
 11 8 l 1,24,-1
 13 8 l 1,25,-1
 13 6 l 1,26,-1
 13 4 l 1,27,-1
 13 2 l 1,28,-1
 13 0 l 1,29,-1
 11 0 l 1,0,-1
9 12 m 1,30,-1
 7 12 l 1,31,-1
 5 12 l 1,32,-1
 3 12 l 1,33,-1
 3 14 l 1,34,-1
 5 14 l 1,35,-1
 5 16 l 1,36,-1
 7 16 l 1,37,-1
 9 16 l 1,38,-1
 11 16 l 1,39,-1
 13 16 l 1,40,-1
 13 14 l 1,41,-1
 11 14 l 1,42,-1
 11 12 l 1,43,-1
 9 12 l 1,30,-1
EndSplineSet
EndChar

StartChar: ograve
Encoding: 242 242 177
Width: 15
VWidth: 16
GlyphClass: 2
Flags: W
LayerCount: 2
Fore
SplineSet
9 0 m 1,0,-1
 7 0 l 1,1,-1
 5 0 l 1,2,-1
 3 0 l 1,3,-1
 3 2 l 1,4,-1
 1 2 l 1,5,-1
 1 4 l 1,6,-1
 1 6 l 1,7,-1
 1 8 l 1,8,-1
 3 8 l 1,9,-1
 3 10 l 1,10,-1
 5 10 l 1,11,-1
 7 10 l 1,12,-1
 9 10 l 1,13,-1
 11 10 l 1,14,-1
 11 8 l 1,15,-1
 13 8 l 1,16,-1
 13 6 l 1,17,-1
 13 4 l 1,18,-1
 13 2 l 1,19,-1
 11 2 l 1,20,-1
 11 0 l 1,21,-1
 9 0 l 1,0,-1
7 2 m 1,22,-1
 9 2 l 1,23,-1
 9 4 l 1,24,-1
 9 6 l 1,25,-1
 9 8 l 1,26,-1
 7 8 l 1,27,-1
 5 8 l 1,28,-1
 5 6 l 1,29,-1
 5 4 l 1,30,-1
 5 2 l 1,31,-1
 7 2 l 1,22,-1
7 12 m 1,32,-1
 5 12 l 1,33,-1
 5 14 l 1,34,-1
 3 14 l 1,35,-1
 3 16 l 1,36,-1
 5 16 l 1,37,-1
 7 16 l 1,38,-1
 7 14 l 1,39,-1
 9 14 l 1,40,-1
 9 12 l 1,41,-1
 7 12 l 1,32,-1
EndSplineSet
EndChar

StartChar: oacute
Encoding: 243 243 178
Width: 15
VWidth: 16
GlyphClass: 2
Flags: W
LayerCount: 2
Fore
SplineSet
9 0 m 1,0,-1
 7 0 l 1,1,-1
 5 0 l 1,2,-1
 3 0 l 1,3,-1
 3 2 l 1,4,-1
 1 2 l 1,5,-1
 1 4 l 1,6,-1
 1 6 l 1,7,-1
 1 8 l 1,8,-1
 3 8 l 1,9,-1
 3 10 l 1,10,-1
 5 10 l 1,11,-1
 7 10 l 1,12,-1
 9 10 l 1,13,-1
 11 10 l 1,14,-1
 11 8 l 1,15,-1
 13 8 l 1,16,-1
 13 6 l 1,17,-1
 13 4 l 1,18,-1
 13 2 l 1,19,-1
 11 2 l 1,20,-1
 11 0 l 1,21,-1
 9 0 l 1,0,-1
7 2 m 1,22,-1
 9 2 l 1,23,-1
 9 4 l 1,24,-1
 9 6 l 1,25,-1
 9 8 l 1,26,-1
 7 8 l 1,27,-1
 5 8 l 1,28,-1
 5 6 l 1,29,-1
 5 4 l 1,30,-1
 5 2 l 1,31,-1
 7 2 l 1,22,-1
7 12 m 1,32,-1
 5 12 l 1,33,-1
 5 14 l 1,34,-1
 7 14 l 1,35,-1
 7 16 l 1,36,-1
 9 16 l 1,37,-1
 11 16 l 1,38,-1
 11 14 l 1,39,-1
 9 14 l 1,40,-1
 9 12 l 1,41,-1
 7 12 l 1,32,-1
EndSplineSet
EndChar

StartChar: ocircumflex
Encoding: 244 244 179
Width: 15
VWidth: 16
GlyphClass: 2
Flags: W
LayerCount: 2
Fore
SplineSet
9 0 m 1,0,-1
 7 0 l 1,1,-1
 5 0 l 1,2,-1
 3 0 l 1,3,-1
 3 2 l 1,4,-1
 1 2 l 1,5,-1
 1 4 l 1,6,-1
 1 6 l 1,7,-1
 1 8 l 1,8,-1
 3 8 l 1,9,-1
 3 10 l 1,10,-1
 5 10 l 1,11,-1
 7 10 l 1,12,-1
 9 10 l 1,13,-1
 11 10 l 1,14,-1
 11 8 l 1,15,-1
 13 8 l 1,16,-1
 13 6 l 1,17,-1
 13 4 l 1,18,-1
 13 2 l 1,19,-1
 11 2 l 1,20,-1
 11 0 l 1,21,-1
 9 0 l 1,0,-1
7 2 m 1,22,-1
 9 2 l 1,23,-1
 9 4 l 1,24,-1
 9 6 l 1,25,-1
 9 8 l 1,26,-1
 7 8 l 1,27,-1
 5 8 l 1,28,-1
 5 6 l 1,29,-1
 5 4 l 1,30,-1
 5 2 l 1,31,-1
 7 2 l 1,22,-1
9 12 m 1,32,-1
 7 12 l 1,33,-1
 5 12 l 1,34,-1
 3 12 l 1,35,-1
 3 14 l 1,36,-1
 5 14 l 1,37,-1
 5 16 l 1,38,-1
 7 16 l 1,39,-1
 9 16 l 1,40,-1
 9 14 l 1,41,-1
 11 14 l 1,42,-1
 11 12 l 1,43,-1
 9 12 l 1,32,-1
EndSplineSet
EndChar

StartChar: otilde
Encoding: 245 245 180
Width: 15
VWidth: 16
GlyphClass: 2
Flags: W
LayerCount: 2
Fore
SplineSet
9 0 m 1,0,-1
 7 0 l 1,1,-1
 5 0 l 1,2,-1
 3 0 l 1,3,-1
 3 2 l 1,4,-1
 1 2 l 1,5,-1
 1 4 l 1,6,-1
 1 6 l 1,7,-1
 1 8 l 1,8,-1
 3 8 l 1,9,-1
 3 10 l 1,10,-1
 5 10 l 1,11,-1
 7 10 l 1,12,-1
 9 10 l 1,13,-1
 11 10 l 1,14,-1
 11 8 l 1,15,-1
 13 8 l 1,16,-1
 13 6 l 1,17,-1
 13 4 l 1,18,-1
 13 2 l 1,19,-1
 11 2 l 1,20,-1
 11 0 l 1,21,-1
 9 0 l 1,0,-1
7 2 m 1,22,-1
 9 2 l 1,23,-1
 9 4 l 1,24,-1
 9 6 l 1,25,-1
 9 8 l 1,26,-1
 7 8 l 1,27,-1
 5 8 l 1,28,-1
 5 6 l 1,29,-1
 5 4 l 1,30,-1
 5 2 l 1,31,-1
 7 2 l 1,22,-1
9 12 m 1,32,-1
 7 12 l 1,33,-1
 5 12 l 1,34,-1
 3 12 l 1,35,-1
 3 14 l 1,36,-1
 5 14 l 1,37,-1
 5 16 l 1,38,-1
 7 16 l 1,39,-1
 9 16 l 1,40,-1
 11 16 l 1,41,-1
 13 16 l 1,42,-1
 13 14 l 1,43,-1
 11 14 l 1,44,-1
 11 12 l 1,45,-1
 9 12 l 1,32,-1
EndSplineSet
EndChar

StartChar: odieresis
Encoding: 246 246 181
Width: 15
VWidth: 16
GlyphClass: 2
Flags: W
LayerCount: 2
Fore
SplineSet
9 0 m 1,0,-1
 7 0 l 1,1,-1
 5 0 l 1,2,-1
 3 0 l 1,3,-1
 3 2 l 1,4,-1
 1 2 l 1,5,-1
 1 4 l 1,6,-1
 1 6 l 1,7,-1
 1 8 l 1,8,-1
 3 8 l 1,9,-1
 3 10 l 1,10,-1
 5 10 l 1,11,-1
 7 10 l 1,12,-1
 9 10 l 1,13,-1
 11 10 l 1,14,-1
 11 8 l 1,15,-1
 13 8 l 1,16,-1
 13 6 l 1,17,-1
 13 4 l 1,18,-1
 13 2 l 1,19,-1
 11 2 l 1,20,-1
 11 0 l 1,21,-1
 9 0 l 1,0,-1
7 2 m 1,22,-1
 9 2 l 1,23,-1
 9 4 l 1,24,-1
 9 6 l 1,25,-1
 9 8 l 1,26,-1
 7 8 l 1,27,-1
 5 8 l 1,28,-1
 5 6 l 1,29,-1
 5 4 l 1,30,-1
 5 2 l 1,31,-1
 7 2 l 1,22,-1
9 14 m 1,32,-1
 11 14 l 1,33,-1
 11 12 l 1,34,-1
 9 12 l 1,35,-1
 7 12 l 1,36,-1
 5 12 l 1,37,-1
 3 12 l 1,38,-1
 3 14 l 1,39,-1
 5 14 l 1,40,-1
 7 14 l 1,41,-1
 9 14 l 1,32,-1
EndSplineSet
EndChar

StartChar: divide
Encoding: 247 247 182
Width: 15
VWidth: 16
GlyphClass: 2
Flags: W
LayerCount: 2
Fore
SplineSet
7 4 m 1,0,-1
 9 4 l 1,1,-1
 9 2 l 1,2,-1
 7 2 l 1,3,-1
 5 2 l 1,4,-1
 5 4 l 1,5,-1
 7 4 l 1,0,-1
11 8 m 1,6,-1
 13 8 l 1,7,-1
 13 6 l 1,8,-1
 11 6 l 1,9,-1
 9 6 l 1,10,-1
 7 6 l 1,11,-1
 5 6 l 1,12,-1
 3 6 l 1,13,-1
 1 6 l 1,14,-1
 1 8 l 1,15,-1
 3 8 l 1,16,-1
 5 8 l 1,17,-1
 7 8 l 1,18,-1
 9 8 l 1,19,-1
 11 8 l 1,6,-1
7 12 m 1,20,-1
 9 12 l 1,21,-1
 9 10 l 1,22,-1
 7 10 l 1,23,-1
 5 10 l 1,24,-1
 5 12 l 1,25,-1
 7 12 l 1,20,-1
EndSplineSet
EndChar

StartChar: oslash
Encoding: 248 248 183
Width: 15
VWidth: 16
GlyphClass: 2
Flags: W
LayerCount: 2
Fore
SplineSet
9 0 m 1,0,-1
 7 0 l 1,1,-1
 5 0 l 1,2,-1
 3 0 l 1,3,-1
 3 2 l 1,4,-1
 1 2 l 1,5,-1
 1 4 l 1,6,-1
 1 6 l 1,7,-1
 1 8 l 1,8,-1
 3 8 l 1,9,-1
 3 10 l 1,10,-1
 5 10 l 1,11,-1
 7 10 l 1,12,-1
 9 10 l 1,13,-1
 11 10 l 1,14,-1
 11 8 l 1,15,-1
 13 8 l 1,16,-1
 13 6 l 1,17,-1
 13 4 l 1,18,-1
 13 2 l 1,19,-1
 11 2 l 1,20,-1
 11 0 l 1,21,-1
 9 0 l 1,0,-1
9 2 m 1,22,-1
 9 4 l 1,23,-1
 7 4 l 1,24,-1
 7 2 l 1,25,-1
 9 2 l 1,22,-1
7 6 m 1,26,-1
 7 8 l 1,27,-1
 5 8 l 1,28,-1
 5 6 l 1,29,-1
 7 6 l 1,26,-1
EndSplineSet
EndChar

StartChar: ugrave
Encoding: 249 249 184
Width: 15
VWidth: 16
GlyphClass: 2
Flags: W
LayerCount: 2
Fore
SplineSet
11 0 m 1,0,-1
 9 0 l 1,1,-1
 7 0 l 1,2,-1
 5 0 l 1,3,-1
 3 0 l 1,4,-1
 3 2 l 1,5,-1
 1 2 l 1,6,-1
 1 4 l 1,7,-1
 1 6 l 1,8,-1
 1 8 l 1,9,-1
 1 10 l 1,10,-1
 3 10 l 1,11,-1
 5 10 l 1,12,-1
 5 8 l 1,13,-1
 5 6 l 1,14,-1
 5 4 l 1,15,-1
 5 2 l 1,16,-1
 7 2 l 1,17,-1
 9 2 l 1,18,-1
 9 4 l 1,19,-1
 9 6 l 1,20,-1
 9 8 l 1,21,-1
 9 10 l 1,22,-1
 11 10 l 1,23,-1
 13 10 l 1,24,-1
 13 8 l 1,25,-1
 13 6 l 1,26,-1
 13 4 l 1,27,-1
 13 2 l 1,28,-1
 13 0 l 1,29,-1
 11 0 l 1,0,-1
7 12 m 1,30,-1
 5 12 l 1,31,-1
 5 14 l 1,32,-1
 3 14 l 1,33,-1
 3 16 l 1,34,-1
 5 16 l 1,35,-1
 7 16 l 1,36,-1
 7 14 l 1,37,-1
 9 14 l 1,38,-1
 9 12 l 1,39,-1
 7 12 l 1,30,-1
EndSplineSet
EndChar

StartChar: uacute
Encoding: 250 250 185
Width: 15
VWidth: 16
GlyphClass: 2
Flags: W
LayerCount: 2
Fore
SplineSet
11 0 m 1,0,-1
 9 0 l 1,1,-1
 7 0 l 1,2,-1
 5 0 l 1,3,-1
 3 0 l 1,4,-1
 3 2 l 1,5,-1
 1 2 l 1,6,-1
 1 4 l 1,7,-1
 1 6 l 1,8,-1
 1 8 l 1,9,-1
 1 10 l 1,10,-1
 3 10 l 1,11,-1
 5 10 l 1,12,-1
 5 8 l 1,13,-1
 5 6 l 1,14,-1
 5 4 l 1,15,-1
 5 2 l 1,16,-1
 7 2 l 1,17,-1
 9 2 l 1,18,-1
 9 4 l 1,19,-1
 9 6 l 1,20,-1
 9 8 l 1,21,-1
 9 10 l 1,22,-1
 11 10 l 1,23,-1
 13 10 l 1,24,-1
 13 8 l 1,25,-1
 13 6 l 1,26,-1
 13 4 l 1,27,-1
 13 2 l 1,28,-1
 13 0 l 1,29,-1
 11 0 l 1,0,-1
7 12 m 1,30,-1
 5 12 l 1,31,-1
 5 14 l 1,32,-1
 7 14 l 1,33,-1
 7 16 l 1,34,-1
 9 16 l 1,35,-1
 11 16 l 1,36,-1
 11 14 l 1,37,-1
 9 14 l 1,38,-1
 9 12 l 1,39,-1
 7 12 l 1,30,-1
EndSplineSet
EndChar

StartChar: ucircumflex
Encoding: 251 251 186
Width: 15
VWidth: 16
GlyphClass: 2
Flags: W
LayerCount: 2
Fore
SplineSet
11 0 m 1,0,-1
 9 0 l 1,1,-1
 7 0 l 1,2,-1
 5 0 l 1,3,-1
 3 0 l 1,4,-1
 3 2 l 1,5,-1
 1 2 l 1,6,-1
 1 4 l 1,7,-1
 1 6 l 1,8,-1
 1 8 l 1,9,-1
 1 10 l 1,10,-1
 3 10 l 1,11,-1
 5 10 l 1,12,-1
 5 8 l 1,13,-1
 5 6 l 1,14,-1
 5 4 l 1,15,-1
 5 2 l 1,16,-1
 7 2 l 1,17,-1
 9 2 l 1,18,-1
 9 4 l 1,19,-1
 9 6 l 1,20,-1
 9 8 l 1,21,-1
 9 10 l 1,22,-1
 11 10 l 1,23,-1
 13 10 l 1,24,-1
 13 8 l 1,25,-1
 13 6 l 1,26,-1
 13 4 l 1,27,-1
 13 2 l 1,28,-1
 13 0 l 1,29,-1
 11 0 l 1,0,-1
9 12 m 1,30,-1
 7 12 l 1,31,-1
 5 12 l 1,32,-1
 3 12 l 1,33,-1
 3 14 l 1,34,-1
 5 14 l 1,35,-1
 5 16 l 1,36,-1
 7 16 l 1,37,-1
 9 16 l 1,38,-1
 9 14 l 1,39,-1
 11 14 l 1,40,-1
 11 12 l 1,41,-1
 9 12 l 1,30,-1
EndSplineSet
EndChar

StartChar: udieresis
Encoding: 252 252 187
Width: 15
VWidth: 16
GlyphClass: 2
Flags: W
LayerCount: 2
Fore
SplineSet
11 0 m 1,0,-1
 9 0 l 1,1,-1
 7 0 l 1,2,-1
 5 0 l 1,3,-1
 3 0 l 1,4,-1
 3 2 l 1,5,-1
 1 2 l 1,6,-1
 1 4 l 1,7,-1
 1 6 l 1,8,-1
 1 8 l 1,9,-1
 1 10 l 1,10,-1
 3 10 l 1,11,-1
 5 10 l 1,12,-1
 5 8 l 1,13,-1
 5 6 l 1,14,-1
 5 4 l 1,15,-1
 5 2 l 1,16,-1
 7 2 l 1,17,-1
 9 2 l 1,18,-1
 9 4 l 1,19,-1
 9 6 l 1,20,-1
 9 8 l 1,21,-1
 9 10 l 1,22,-1
 11 10 l 1,23,-1
 13 10 l 1,24,-1
 13 8 l 1,25,-1
 13 6 l 1,26,-1
 13 4 l 1,27,-1
 13 2 l 1,28,-1
 13 0 l 1,29,-1
 11 0 l 1,0,-1
9 14 m 1,30,-1
 11 14 l 1,31,-1
 11 12 l 1,32,-1
 9 12 l 1,33,-1
 7 12 l 1,34,-1
 5 12 l 1,35,-1
 3 12 l 1,36,-1
 3 14 l 1,37,-1
 5 14 l 1,38,-1
 7 14 l 1,39,-1
 9 14 l 1,30,-1
EndSplineSet
EndChar

StartChar: yacute
Encoding: 253 253 188
Width: 15
VWidth: 16
GlyphClass: 2
Flags: W
LayerCount: 2
Fore
SplineSet
9 -2 m 1,0,-1
 7 -2 l 1,1,-1
 5 -2 l 1,2,-1
 3 -2 l 1,3,-1
 1 -2 l 1,4,-1
 1 0 l 1,5,-1
 3 0 l 1,6,-1
 5 0 l 1,7,-1
 7 0 l 1,8,-1
 9 0 l 1,9,-1
 9 2 l 1,10,-1
 7 2 l 1,11,-1
 5 2 l 1,12,-1
 3 2 l 1,13,-1
 3 4 l 1,14,-1
 1 4 l 1,15,-1
 1 6 l 1,16,-1
 1 8 l 1,17,-1
 1 10 l 1,18,-1
 3 10 l 1,19,-1
 5 10 l 1,20,-1
 5 8 l 1,21,-1
 5 6 l 1,22,-1
 5 4 l 1,23,-1
 7 4 l 1,24,-1
 9 4 l 1,25,-1
 9 6 l 1,26,-1
 9 8 l 1,27,-1
 9 10 l 1,28,-1
 11 10 l 1,29,-1
 13 10 l 1,30,-1
 13 8 l 1,31,-1
 13 6 l 1,32,-1
 13 4 l 1,33,-1
 13 2 l 1,34,-1
 13 0 l 1,35,-1
 11 0 l 1,36,-1
 11 -2 l 1,37,-1
 9 -2 l 1,0,-1
7 12 m 1,38,-1
 5 12 l 1,39,-1
 5 14 l 1,40,-1
 7 14 l 1,41,-1
 7 16 l 1,42,-1
 9 16 l 1,43,-1
 11 16 l 1,44,-1
 11 14 l 1,45,-1
 9 14 l 1,46,-1
 9 12 l 1,47,-1
 7 12 l 1,38,-1
EndSplineSet
EndChar

StartChar: Euro
Encoding: 8364 8364 189
Width: 17
VWidth: 16
GlyphClass: 2
Flags: W
LayerCount: 2
Fore
SplineSet
11 0 m 1,0,-1
 9 0 l 1,1,-1
 7 0 l 1,2,-1
 5 0 l 1,3,-1
 5 2 l 1,4,-1
 3 2 l 1,5,-1
 3 4 l 1,6,-1
 1 4 l 1,7,-1
 1 6 l 1,8,-1
 3 6 l 1,9,-1
 3 8 l 1,10,-1
 1 8 l 1,11,-1
 1 10 l 1,12,-1
 3 10 l 1,13,-1
 3 12 l 1,14,-1
 5 12 l 1,15,-1
 5 14 l 1,16,-1
 7 14 l 1,17,-1
 9 14 l 1,18,-1
 11 14 l 1,19,-1
 13 14 l 1,20,-1
 13 12 l 1,21,-1
 15 12 l 1,22,-1
 15 10 l 1,23,-1
 13 10 l 1,24,-1
 11 10 l 1,25,-1
 11 12 l 1,26,-1
 9 12 l 1,27,-1
 7 12 l 1,28,-1
 7 10 l 1,29,-1
 9 10 l 1,30,-1
 11 10 l 1,31,-1
 11 8 l 1,32,-1
 9 8 l 1,33,-1
 7 8 l 1,34,-1
 7 6 l 1,35,-1
 9 6 l 1,36,-1
 11 6 l 1,37,-1
 11 4 l 1,38,-1
 9 4 l 1,39,-1
 7 4 l 1,40,-1
 7 2 l 1,41,-1
 9 2 l 1,42,-1
 11 2 l 1,43,-1
 11 4 l 1,44,-1
 13 4 l 1,45,-1
 15 4 l 1,46,-1
 15 2 l 1,47,-1
 13 2 l 1,48,-1
 13 0 l 1,49,-1
 11 0 l 1,0,-1
EndSplineSet
EndChar

StartChar: smileface
Encoding: 9786 9786 190
Width: 15
VWidth: 16
GlyphClass: 2
Flags: W
LayerCount: 2
Fore
SplineSet
9 2 m 1,0,-1
 7 2 l 1,1,-1
 5 2 l 1,2,-1
 3 2 l 1,3,-1
 3 4 l 1,4,-1
 1 4 l 1,5,-1
 1 6 l 1,6,-1
 3 6 l 1,7,-1
 5 6 l 1,8,-1
 5 4 l 1,9,-1
 7 4 l 1,10,-1
 9 4 l 1,11,-1
 9 6 l 1,12,-1
 11 6 l 1,13,-1
 13 6 l 1,14,-1
 13 4 l 1,15,-1
 11 4 l 1,16,-1
 11 2 l 1,17,-1
 9 2 l 1,0,-1
9 8 m 1,18,-1
 7 8 l 1,19,-1
 5 8 l 1,20,-1
 3 8 l 1,21,-1
 3 10 l 1,22,-1
 3 12 l 1,23,-1
 5 12 l 1,24,-1
 7 12 l 1,25,-1
 9 12 l 1,26,-1
 11 12 l 1,27,-1
 11 10 l 1,28,-1
 11 8 l 1,29,-1
 9 8 l 1,18,-1
EndSplineSet
EndChar

StartChar: invsmileface
Encoding: 9787 9787 191
Width: 19
VWidth: 16
GlyphClass: 2
Flags: W
LayerCount: 2
Fore
SplineSet
13 0 m 1,0,-1
 11 0 l 1,1,-1
 9 0 l 1,2,-1
 7 0 l 1,3,-1
 5 0 l 1,4,-1
 3 0 l 1,5,-1
 3 2 l 1,6,-1
 1 2 l 1,7,-1
 1 4 l 1,8,-1
 1 6 l 1,9,-1
 1 8 l 1,10,-1
 1 10 l 1,11,-1
 1 12 l 1,12,-1
 3 12 l 1,13,-1
 3 14 l 1,14,-1
 5 14 l 1,15,-1
 7 14 l 1,16,-1
 9 14 l 1,17,-1
 11 14 l 1,18,-1
 13 14 l 1,19,-1
 15 14 l 1,20,-1
 15 12 l 1,21,-1
 17 12 l 1,22,-1
 17 10 l 1,23,-1
 17 8 l 1,24,-1
 17 6 l 1,25,-1
 17 4 l 1,26,-1
 17 2 l 1,27,-1
 15 2 l 1,28,-1
 15 0 l 1,29,-1
 13 0 l 1,0,-1
EndSplineSet
EndChar

StartChar: heart
Encoding: 9829 9829 192
Width: 15
VWidth: 16
GlyphClass: 2
Flags: W
LayerCount: 2
Fore
SplineSet
7 0 m 1,0,-1
 5 0 l 1,1,-1
 5 2 l 1,2,-1
 3 2 l 1,3,-1
 3 4 l 1,4,-1
 1 4 l 1,5,-1
 1 6 l 1,6,-1
 1 8 l 1,7,-1
 1 10 l 1,8,-1
 3 10 l 1,9,-1
 3 12 l 1,10,-1
 5 12 l 1,11,-1
 7 12 l 1,12,-1
 9 12 l 1,13,-1
 11 12 l 1,14,-1
 11 10 l 1,15,-1
 13 10 l 1,16,-1
 13 8 l 1,17,-1
 13 6 l 1,18,-1
 13 4 l 1,19,-1
 11 4 l 1,20,-1
 11 2 l 1,21,-1
 9 2 l 1,22,-1
 9 0 l 1,23,-1
 7 0 l 1,0,-1
EndSplineSet
EndChar

